<svg width="853" height="47" viewBox="0 0 853 47" fill="none" xmlns="http://www.w3.org/2000/svg">
<path d="M34.625 1.3125L34.3125 14.5625L25 14.9375L22.625 44.5625L9.4375 45.25L9.5 15.625L0.1875 16.125L0.5625 1.375L34.625 1.3125ZM75.9975 44.75L60.3725 45.5L60.2475 32.3125H53.06L52.6225 46H38.6225L39.81 2.0625L54.685 2.75L53.7475 25.1875H60.685L60.7475 1.6875L74.9975 2.0625L75.9975 44.75ZM116.401 20.75C116.401 22.5625 116.276 24.375 116.026 26.1875C112.464 26.4167 108.922 26.7917 105.401 27.3125C101.88 27.8125 98.3596 28.3125 94.8388 28.8125C95.3804 30.3125 96.2242 31.5104 97.37 32.4062C98.5367 33.3021 99.9221 33.75 101.526 33.75C102.36 33.75 103.266 33.5938 104.245 33.2812C105.245 32.9688 106.235 32.5833 107.214 32.125C108.193 31.6458 109.13 31.1354 110.026 30.5938C110.922 30.0521 111.693 29.5625 112.339 29.125L110.839 43.3125C110.026 43.9375 109.141 44.4688 108.183 44.9062C107.245 45.3438 106.266 45.6979 105.245 45.9688C104.224 46.2396 103.193 46.4375 102.151 46.5625C101.11 46.6875 100.089 46.75 99.0888 46.75C97.0263 46.75 95.1408 46.4688 93.4325 45.9062C91.7242 45.3438 90.1721 44.5625 88.7763 43.5625C87.4013 42.5417 86.1929 41.3438 85.1513 39.9688C84.1096 38.5938 83.245 37.0938 82.5575 35.4688C81.87 33.8438 81.3492 32.125 80.995 30.3125C80.6408 28.5 80.4638 26.6667 80.4638 24.8125C80.4638 22.875 80.6408 20.9375 80.995 19C81.3492 17.0625 81.8804 15.1979 82.5888 13.4062C83.3179 11.6146 84.2242 9.95833 85.3075 8.4375C86.4117 6.89583 87.6929 5.55208 89.1513 4.40625C90.6096 3.26042 92.2554 2.36458 94.0888 1.71875C95.9429 1.07292 97.9846 0.75 100.214 0.75C102.068 0.75 103.755 1.01042 105.276 1.53125C106.818 2.03125 108.183 2.73958 109.37 3.65625C110.578 4.55208 111.62 5.625 112.495 6.875C113.391 8.125 114.12 9.5 114.683 11C115.266 12.4792 115.693 14.0521 115.964 15.7188C116.255 17.3646 116.401 19.0417 116.401 20.75ZM103.901 19.125C103.901 18.5417 103.839 17.9479 103.714 17.3438C103.589 16.7188 103.38 16.1562 103.089 15.6562C102.818 15.1562 102.453 14.75 101.995 14.4375C101.537 14.1042 100.964 13.9375 100.276 13.9375C99.4429 13.9375 98.7033 14.1667 98.0575 14.625C97.4325 15.0625 96.8908 15.625 96.4325 16.3125C95.9742 16.9792 95.5992 17.7083 95.3075 18.5C95.0158 19.2917 94.7971 20.0208 94.6513 20.6875L103.901 19.8125V19.125ZM184.396 0.4375L181.521 46.3125L167.271 46.9375L167.396 22.75L160.959 42.25H155.459L150.521 24.8125L150.459 45.0625L136.021 45.5L136.646 2.3125L152.709 1.6875L159.084 22.375L167.584 0.4375H184.396ZM223.831 20.75C223.831 22.5625 223.706 24.375 223.456 26.1875C219.894 26.4167 216.352 26.7917 212.831 27.3125C209.31 27.8125 205.79 28.3125 202.269 28.8125C202.81 30.3125 203.654 31.5104 204.8 32.4062C205.967 33.3021 207.352 33.75 208.956 33.75C209.79 33.75 210.696 33.5938 211.675 33.2812C212.675 32.9688 213.665 32.5833 214.644 32.125C215.623 31.6458 216.56 31.1354 217.456 30.5938C218.352 30.0521 219.123 29.5625 219.769 29.125L218.269 43.3125C217.456 43.9375 216.571 44.4688 215.613 44.9062C214.675 45.3438 213.696 45.6979 212.675 45.9688C211.654 46.2396 210.623 46.4375 209.581 46.5625C208.54 46.6875 207.519 46.75 206.519 46.75C204.456 46.75 202.571 46.4688 200.863 45.9062C199.154 45.3438 197.602 44.5625 196.206 43.5625C194.831 42.5417 193.623 41.3438 192.581 39.9688C191.54 38.5938 190.675 37.0938 189.988 35.4688C189.3 33.8438 188.779 32.125 188.425 30.3125C188.071 28.5 187.894 26.6667 187.894 24.8125C187.894 22.875 188.071 20.9375 188.425 19C188.779 17.0625 189.31 15.1979 190.019 13.4062C190.748 11.6146 191.654 9.95833 192.738 8.4375C193.842 6.89583 195.123 5.55208 196.581 4.40625C198.04 3.26042 199.685 2.36458 201.519 1.71875C203.373 1.07292 205.415 0.75 207.644 0.75C209.498 0.75 211.185 1.01042 212.706 1.53125C214.248 2.03125 215.613 2.73958 216.8 3.65625C218.008 4.55208 219.05 5.625 219.925 6.875C220.821 8.125 221.55 9.5 222.113 11C222.696 12.4792 223.123 14.0521 223.394 15.7188C223.685 17.3646 223.831 19.0417 223.831 20.75ZM211.331 19.125C211.331 18.5417 211.269 17.9479 211.144 17.3438C211.019 16.7188 210.81 16.1562 210.519 15.6562C210.248 15.1562 209.883 14.75 209.425 14.4375C208.967 14.1042 208.394 13.9375 207.706 13.9375C206.873 13.9375 206.133 14.1667 205.488 14.625C204.863 15.0625 204.321 15.625 203.863 16.3125C203.404 16.9792 203.029 17.7083 202.738 18.5C202.446 19.2917 202.227 20.0208 202.081 20.6875L211.331 19.8125V19.125ZM282.641 24.8125C282.641 27.7917 282.548 30.7604 282.36 33.7188C282.173 36.6771 281.954 39.6458 281.704 42.625L265.641 43.375C266.12 39.75 266.548 36.125 266.923 32.5C267.318 28.8542 267.516 25.2083 267.516 21.5625C267.516 21.3333 267.506 20.9375 267.485 20.375C267.464 19.7917 267.423 19.1354 267.36 18.4062C267.318 17.6771 267.245 16.9271 267.141 16.1562C267.058 15.3646 266.933 14.6458 266.766 14C266.62 13.3333 266.433 12.7917 266.204 12.375C265.975 11.9583 265.704 11.75 265.391 11.75C264.662 11.75 264.089 12.0312 263.673 12.5938C263.256 13.1354 262.943 13.7917 262.735 14.5625C262.548 15.3333 262.433 16.125 262.391 16.9375C262.35 17.7292 262.329 18.375 262.329 18.875C262.329 19.75 262.35 20.625 262.391 21.5C262.433 22.375 262.454 23.2708 262.454 24.1875C262.454 27.4167 262.37 30.6354 262.204 33.8438C262.058 37.0521 261.87 40.2708 261.641 43.5L246.829 44.0625C247.308 40.4375 247.725 36.8229 248.079 33.2188C248.454 29.5938 248.641 25.9583 248.641 22.3125C248.641 22.0833 248.631 21.6667 248.61 21.0625C248.589 20.4583 248.548 19.7812 248.485 19.0312C248.443 18.2812 248.37 17.5 248.266 16.6875C248.162 15.875 248.027 15.1354 247.86 14.4688C247.714 13.7812 247.527 13.2188 247.298 12.7812C247.068 12.3438 246.787 12.125 246.454 12.125C245.933 12.125 245.495 12.3333 245.141 12.75C244.787 13.1458 244.495 13.6667 244.266 14.3125C244.058 14.9583 243.891 15.6771 243.766 16.4688C243.662 17.2396 243.579 18 243.516 18.75C243.475 19.5 243.443 20.1979 243.423 20.8438C243.423 21.4688 243.412 21.9375 243.391 22.25L242.704 45.0625H226.954C227.287 41.5417 227.62 38.0104 227.954 34.4688C228.308 30.9271 228.61 27.3958 228.86 23.875C229.131 20.3333 229.35 16.7917 229.516 13.25C229.683 9.70833 229.766 6.16667 229.766 2.625L244.641 2L244.579 5.625C245.037 5.04167 245.558 4.45833 246.141 3.875C246.725 3.27083 247.339 2.73958 247.985 2.28125C248.652 1.80208 249.35 1.41667 250.079 1.125C250.829 0.833333 251.6 0.6875 252.391 0.6875C253.412 0.6875 254.329 0.770833 255.141 0.9375C255.954 1.08333 256.683 1.34375 257.329 1.71875C257.995 2.09375 258.579 2.61458 259.079 3.28125C259.579 3.92708 260.016 4.75 260.391 5.75C261.058 5.02083 261.725 4.34375 262.391 3.71875C263.079 3.09375 263.798 2.5625 264.548 2.125C265.298 1.66667 266.11 1.3125 266.985 1.0625C267.86 0.8125 268.829 0.6875 269.891 0.6875C271.912 0.6875 273.631 1.08333 275.048 1.875C276.464 2.64583 277.641 3.67708 278.579 4.96875C279.537 6.26042 280.277 7.73958 280.798 9.40625C281.339 11.0729 281.745 12.8021 282.016 14.5938C282.287 16.3854 282.454 18.1667 282.516 19.9375C282.6 21.7083 282.641 23.3333 282.641 24.8125ZM322.951 20.75C322.951 22.5625 322.826 24.375 322.576 26.1875C319.014 26.4167 315.472 26.7917 311.951 27.3125C308.43 27.8125 304.91 28.3125 301.389 28.8125C301.93 30.3125 302.774 31.5104 303.92 32.4062C305.087 33.3021 306.472 33.75 308.076 33.75C308.91 33.75 309.816 33.5938 310.795 33.2812C311.795 32.9688 312.785 32.5833 313.764 32.125C314.743 31.6458 315.68 31.1354 316.576 30.5938C317.472 30.0521 318.243 29.5625 318.889 29.125L317.389 43.3125C316.576 43.9375 315.691 44.4688 314.733 44.9062C313.795 45.3438 312.816 45.6979 311.795 45.9688C310.774 46.2396 309.743 46.4375 308.701 46.5625C307.66 46.6875 306.639 46.75 305.639 46.75C303.576 46.75 301.691 46.4688 299.983 45.9062C298.274 45.3438 296.722 44.5625 295.326 43.5625C293.951 42.5417 292.743 41.3438 291.701 39.9688C290.66 38.5938 289.795 37.0938 289.108 35.4688C288.42 33.8438 287.899 32.125 287.545 30.3125C287.191 28.5 287.014 26.6667 287.014 24.8125C287.014 22.875 287.191 20.9375 287.545 19C287.899 17.0625 288.43 15.1979 289.139 13.4062C289.868 11.6146 290.774 9.95833 291.858 8.4375C292.962 6.89583 294.243 5.55208 295.701 4.40625C297.16 3.26042 298.805 2.36458 300.639 1.71875C302.493 1.07292 304.535 0.75 306.764 0.75C308.618 0.75 310.305 1.01042 311.826 1.53125C313.368 2.03125 314.733 2.73958 315.92 3.65625C317.128 4.55208 318.17 5.625 319.045 6.875C319.941 8.125 320.67 9.5 321.233 11C321.816 12.4792 322.243 14.0521 322.514 15.7188C322.805 17.3646 322.951 19.0417 322.951 20.75ZM310.451 19.125C310.451 18.5417 310.389 17.9479 310.264 17.3438C310.139 16.7188 309.93 16.1562 309.639 15.6562C309.368 15.1562 309.003 14.75 308.545 14.4375C308.087 14.1042 307.514 13.9375 306.826 13.9375C305.993 13.9375 305.253 14.1667 304.608 14.625C303.983 15.0625 303.441 15.625 302.983 16.3125C302.524 16.9792 302.149 17.7083 301.858 18.5C301.566 19.2917 301.347 20.0208 301.201 20.6875L310.451 19.8125V19.125ZM379.04 15.9375C379.04 17.9583 378.738 19.75 378.134 21.3125C377.53 22.875 376.696 24.2396 375.634 25.4062C374.592 26.5729 373.363 27.5625 371.946 28.375C370.53 29.1875 369.009 29.8542 367.384 30.375C365.78 30.875 364.113 31.25 362.384 31.5C360.655 31.7292 358.957 31.8542 357.29 31.875V46.4375H342.728C342.728 41.6667 342.738 36.9167 342.759 32.1875C342.78 27.4583 342.811 22.6875 342.853 17.875C342.894 15.3333 342.905 12.7917 342.884 10.25C342.863 7.70833 342.915 5.14583 343.04 2.5625C345.707 1.77083 348.373 1.17708 351.04 0.78125C353.707 0.385417 356.457 0.1875 359.29 0.1875C360.894 0.1875 362.498 0.322917 364.103 0.59375C365.707 0.84375 367.238 1.25 368.696 1.8125C370.175 2.375 371.54 3.08333 372.79 3.9375C374.061 4.77083 375.155 5.77083 376.071 6.9375C376.988 8.10417 377.707 9.4375 378.228 10.9375C378.769 12.4167 379.04 14.0833 379.04 15.9375ZM365.165 17C365.165 15.6458 364.748 14.5938 363.915 13.8438C363.103 13.0729 362.04 12.6875 360.728 12.6875C360.29 12.6875 359.832 12.7292 359.353 12.8125C358.894 12.875 358.457 12.9583 358.04 13.0625L357.665 22.1875C357.957 22.2292 358.238 22.25 358.509 22.25C358.78 22.25 359.061 22.25 359.353 22.25C360.103 22.25 360.821 22.125 361.509 21.875C362.217 21.625 362.842 21.2708 363.384 20.8125C363.925 20.3333 364.353 19.7812 364.665 19.1562C364.998 18.5104 365.165 17.7917 365.165 17ZM418.194 20.75C418.194 22.5625 418.069 24.375 417.819 26.1875C414.256 26.4167 410.715 26.7917 407.194 27.3125C403.673 27.8125 400.152 28.3125 396.631 28.8125C397.173 30.3125 398.017 31.5104 399.163 32.4062C400.329 33.3021 401.715 33.75 403.319 33.75C404.152 33.75 405.058 33.5938 406.038 33.2812C407.038 32.9688 408.027 32.5833 409.006 32.125C409.985 31.6458 410.923 31.1354 411.819 30.5938C412.715 30.0521 413.485 29.5625 414.131 29.125L412.631 43.3125C411.819 43.9375 410.933 44.4688 409.975 44.9062C409.038 45.3438 408.058 45.6979 407.038 45.9688C406.017 46.2396 404.985 46.4375 403.944 46.5625C402.902 46.6875 401.881 46.75 400.881 46.75C398.819 46.75 396.933 46.4688 395.225 45.9062C393.517 45.3438 391.965 44.5625 390.569 43.5625C389.194 42.5417 387.985 41.3438 386.944 39.9688C385.902 38.5938 385.038 37.0938 384.35 35.4688C383.663 33.8438 383.142 32.125 382.788 30.3125C382.433 28.5 382.256 26.6667 382.256 24.8125C382.256 22.875 382.433 20.9375 382.788 19C383.142 17.0625 383.673 15.1979 384.381 13.4062C385.11 11.6146 386.017 9.95833 387.1 8.4375C388.204 6.89583 389.485 5.55208 390.944 4.40625C392.402 3.26042 394.048 2.36458 395.881 1.71875C397.735 1.07292 399.777 0.75 402.006 0.75C403.86 0.75 405.548 1.01042 407.069 1.53125C408.61 2.03125 409.975 2.73958 411.163 3.65625C412.371 4.55208 413.413 5.625 414.288 6.875C415.183 8.125 415.913 9.5 416.475 11C417.058 12.4792 417.485 14.0521 417.756 15.7188C418.048 17.3646 418.194 19.0417 418.194 20.75ZM405.694 19.125C405.694 18.5417 405.631 17.9479 405.506 17.3438C405.381 16.7188 405.173 16.1562 404.881 15.6562C404.61 15.1562 404.246 14.75 403.788 14.4375C403.329 14.1042 402.756 13.9375 402.069 13.9375C401.235 13.9375 400.496 14.1667 399.85 14.625C399.225 15.0625 398.683 15.625 398.225 16.3125C397.767 16.9792 397.392 17.7083 397.1 18.5C396.808 19.2917 396.59 20.0208 396.444 20.6875L405.694 19.8125V19.125ZM455.91 1.9375L455.598 15.1875L446.285 15.5625L445.16 44.5625L431.973 45.25L430.785 16.25L421.473 16.75L421.848 2L455.91 1.9375ZM511.936 15.875C511.936 17.5 511.79 18.9792 511.499 20.3125C511.228 21.625 510.79 22.8333 510.186 23.9375C509.582 25.0417 508.801 26.0625 507.842 27C506.884 27.9375 505.728 28.8333 504.374 29.6875L511.811 42.9375L497.749 45.6875L492.936 32.375L489.061 32.5L488.499 45.5H475.061C475.165 40.75 475.259 36.0208 475.342 31.3125C475.447 26.6042 475.561 21.875 475.686 17.125C475.728 14.7292 475.77 12.3542 475.811 10C475.853 7.64583 475.936 5.27083 476.061 2.875C477.52 2.33333 478.957 1.88542 480.374 1.53125C481.79 1.17708 483.207 0.90625 484.624 0.71875C486.061 0.510417 487.509 0.375 488.967 0.3125C490.447 0.229167 491.957 0.1875 493.499 0.1875C495.874 0.1875 498.165 0.520833 500.374 1.1875C502.603 1.83333 504.572 2.8125 506.28 4.125C507.988 5.4375 509.353 7.07292 510.374 9.03125C511.415 10.9896 511.936 13.2708 511.936 15.875ZM497.936 16.875C497.936 16 497.811 15.1979 497.561 14.4688C497.332 13.7396 496.978 13.1146 496.499 12.5938C496.04 12.0521 495.457 11.6354 494.749 11.3438C494.061 11.0312 493.249 10.875 492.311 10.875C491.895 10.875 491.488 10.9062 491.092 10.9688C490.697 11.0104 490.311 11.0833 489.936 11.1875L489.436 22.8125H490.186C491.082 22.8125 491.988 22.6979 492.905 22.4688C493.842 22.2396 494.676 21.8854 495.405 21.4062C496.155 20.9271 496.759 20.3125 497.217 19.5625C497.697 18.8125 497.936 17.9167 497.936 16.875ZM551.246 20.75C551.246 22.5625 551.121 24.375 550.871 26.1875C547.309 26.4167 543.767 26.7917 540.246 27.3125C536.725 27.8125 533.205 28.3125 529.684 28.8125C530.225 30.3125 531.069 31.5104 532.215 32.4062C533.382 33.3021 534.767 33.75 536.371 33.75C537.205 33.75 538.111 33.5938 539.09 33.2812C540.09 32.9688 541.08 32.5833 542.059 32.125C543.038 31.6458 543.975 31.1354 544.871 30.5938C545.767 30.0521 546.538 29.5625 547.184 29.125L545.684 43.3125C544.871 43.9375 543.986 44.4688 543.028 44.9062C542.09 45.3438 541.111 45.6979 540.09 45.9688C539.069 46.2396 538.038 46.4375 536.996 46.5625C535.955 46.6875 534.934 46.75 533.934 46.75C531.871 46.75 529.986 46.4688 528.278 45.9062C526.569 45.3438 525.017 44.5625 523.621 43.5625C522.246 42.5417 521.038 41.3438 519.996 39.9688C518.955 38.5938 518.09 37.0938 517.403 35.4688C516.715 33.8438 516.194 32.125 515.84 30.3125C515.486 28.5 515.309 26.6667 515.309 24.8125C515.309 22.875 515.486 20.9375 515.84 19C516.194 17.0625 516.725 15.1979 517.434 13.4062C518.163 11.6146 519.069 9.95833 520.153 8.4375C521.257 6.89583 522.538 5.55208 523.996 4.40625C525.455 3.26042 527.1 2.36458 528.934 1.71875C530.788 1.07292 532.83 0.75 535.059 0.75C536.913 0.75 538.6 1.01042 540.121 1.53125C541.663 2.03125 543.028 2.73958 544.215 3.65625C545.423 4.55208 546.465 5.625 547.34 6.875C548.236 8.125 548.965 9.5 549.528 11C550.111 12.4792 550.538 14.0521 550.809 15.7188C551.1 17.3646 551.246 19.0417 551.246 20.75ZM538.746 19.125C538.746 18.5417 538.684 17.9479 538.559 17.3438C538.434 16.7188 538.225 16.1562 537.934 15.6562C537.663 15.1562 537.298 14.75 536.84 14.4375C536.382 14.1042 535.809 13.9375 535.121 13.9375C534.288 13.9375 533.548 14.1667 532.903 14.625C532.278 15.0625 531.736 15.625 531.278 16.3125C530.819 16.9792 530.444 17.7083 530.153 18.5C529.861 19.2917 529.642 20.0208 529.496 20.6875L538.746 19.8125V19.125ZM593.525 2.1875L582.088 44.4375L566.588 45.3125L552.525 4.5L567.338 3.125L573.338 26.875L579.15 1.25L593.525 2.1875ZM634.054 22.0625C634.054 23.9583 633.835 25.7917 633.398 27.5625C632.96 29.3125 632.325 30.9583 631.491 32.5C630.679 34.0417 629.679 35.4583 628.491 36.75C627.325 38.0208 626.002 39.1146 624.523 40.0312C623.064 40.9479 621.47 41.6667 619.741 42.1875C618.012 42.6875 616.179 42.9375 614.241 42.9375C612.366 42.9375 610.575 42.6979 608.866 42.2188C607.179 41.7396 605.595 41.0729 604.116 40.2188C602.637 39.3438 601.293 38.3021 600.085 37.0938C598.898 35.8646 597.877 34.5104 597.023 33.0312C596.189 31.5312 595.533 29.9271 595.054 28.2188C594.595 26.5104 594.366 24.7292 594.366 22.875C594.366 21.0625 594.585 19.2917 595.023 17.5625C595.46 15.8125 596.085 14.1667 596.898 12.625C597.731 11.0833 598.731 9.66667 599.898 8.375C601.064 7.08333 602.366 5.96875 603.804 5.03125C605.262 4.09375 606.835 3.36458 608.523 2.84375C610.21 2.32292 611.991 2.0625 613.866 2.0625C616.887 2.0625 619.637 2.53125 622.116 3.46875C624.616 4.40625 626.741 5.75 628.491 7.5C630.262 9.22917 631.627 11.3333 632.585 13.8125C633.564 16.2708 634.054 19.0208 634.054 22.0625ZM620.179 22.875C620.179 21.9792 620.043 21.1146 619.773 20.2812C619.523 19.4271 619.148 18.6771 618.648 18.0312C618.148 17.3646 617.523 16.8333 616.773 16.4375C616.043 16.0208 615.2 15.8125 614.241 15.8125C613.262 15.8125 612.387 15.9896 611.616 16.3438C610.845 16.6979 610.179 17.1875 609.616 17.8125C609.075 18.4167 608.658 19.1354 608.366 19.9688C608.075 20.7812 607.929 21.6458 607.929 22.5625C607.929 23.4375 608.054 24.3125 608.304 25.1875C608.554 26.0625 608.929 26.8542 609.429 27.5625C609.929 28.2708 610.543 28.8438 611.273 29.2812C612.023 29.7188 612.887 29.9375 613.866 29.9375C614.845 29.9375 615.72 29.75 616.491 29.375C617.283 28.9792 617.95 28.4583 618.491 27.8125C619.033 27.1458 619.45 26.3854 619.741 25.5312C620.033 24.6771 620.179 23.7917 620.179 22.875ZM666.208 29.4375L664.895 43.3125L638.583 45.375L639.583 0.75H655.833L653.52 29.4375H666.208ZM707.486 2C706.549 9.33333 705.747 16.6354 705.08 23.9062C704.413 31.1562 703.778 38.4583 703.174 45.8125L690.361 46.75L690.924 41.9375C690.507 42.4167 690.018 42.8333 689.455 43.1875C688.913 43.5417 688.33 43.8333 687.705 44.0625C687.08 44.2708 686.434 44.4271 685.768 44.5312C685.101 44.6146 684.465 44.6458 683.861 44.625C682.445 44.6042 681.111 44.3333 679.861 43.8125C678.611 43.2708 677.465 42.5625 676.424 41.6875C675.382 40.7917 674.445 39.7604 673.611 38.5938C672.778 37.4062 672.07 36.1667 671.486 34.875C670.924 33.5625 670.486 32.2292 670.174 30.875C669.882 29.5208 669.736 28.2083 669.736 26.9375C669.736 25.0625 669.768 23.125 669.83 21.125C669.913 19.1042 670.049 17.0833 670.236 15.0625C670.424 13.0417 670.663 11.0417 670.955 9.0625C671.268 7.08333 671.653 5.1875 672.111 3.375C674.653 3.5 677.205 3.61458 679.768 3.71875C682.33 3.82292 684.882 3.85417 687.424 3.8125C686.945 5.625 686.465 7.44792 685.986 9.28125C685.528 11.0938 685.111 12.9271 684.736 14.7812C684.361 16.6146 684.059 18.4583 683.83 20.3125C683.601 22.1667 683.486 24.0417 683.486 25.9375C683.486 26.375 683.507 27 683.549 27.8125C683.59 28.625 683.695 29.4271 683.861 30.2188C684.049 31.0104 684.32 31.7083 684.674 32.3125C685.049 32.8958 685.57 33.1875 686.236 33.1875C687.028 33.1875 687.736 32.8542 688.361 32.1875C688.986 31.5 689.538 30.5833 690.018 29.4375C690.497 28.2917 690.903 26.9688 691.236 25.4688C691.59 23.9688 691.882 22.4062 692.111 20.7812C692.361 19.1354 692.559 17.4792 692.705 15.8125C692.851 14.1458 692.955 12.5833 693.018 11.125C693.101 9.64583 693.153 8.32292 693.174 7.15625C693.215 5.98958 693.236 5.08333 693.236 4.4375C693.236 4.02083 693.226 3.61458 693.205 3.21875C693.184 2.82292 693.153 2.41667 693.111 2C694.465 2.04167 695.809 2.07292 697.143 2.09375C698.476 2.11458 699.82 2.125 701.174 2.125C702.215 2.125 703.257 2.125 704.299 2.125C705.361 2.10417 706.424 2.0625 707.486 2ZM745.015 1.9375L744.703 15.1875L735.39 15.5625L734.265 44.5625L721.078 45.25L719.89 16.25L710.578 16.75L710.953 2L745.015 1.9375ZM765.669 2L763.481 44.5625L750.294 45.25L749.044 2.875L765.669 2ZM809.104 22.0625C809.104 23.9583 808.885 25.7917 808.448 27.5625C808.01 29.3125 807.375 30.9583 806.541 32.5C805.729 34.0417 804.729 35.4583 803.541 36.75C802.375 38.0208 801.052 39.1146 799.573 40.0312C798.114 40.9479 796.52 41.6667 794.791 42.1875C793.062 42.6875 791.229 42.9375 789.291 42.9375C787.416 42.9375 785.625 42.6979 783.916 42.2188C782.229 41.7396 780.645 41.0729 779.166 40.2188C777.687 39.3438 776.343 38.3021 775.135 37.0938C773.948 35.8646 772.927 34.5104 772.073 33.0312C771.239 31.5312 770.583 29.9271 770.104 28.2188C769.645 26.5104 769.416 24.7292 769.416 22.875C769.416 21.0625 769.635 19.2917 770.073 17.5625C770.51 15.8125 771.135 14.1667 771.948 12.625C772.781 11.0833 773.781 9.66667 774.948 8.375C776.114 7.08333 777.416 5.96875 778.854 5.03125C780.312 4.09375 781.885 3.36458 783.573 2.84375C785.26 2.32292 787.041 2.0625 788.916 2.0625C791.937 2.0625 794.687 2.53125 797.166 3.46875C799.666 4.40625 801.791 5.75 803.541 7.5C805.312 9.22917 806.677 11.3333 807.635 13.8125C808.614 16.2708 809.104 19.0208 809.104 22.0625ZM795.229 22.875C795.229 21.9792 795.093 21.1146 794.823 20.2812C794.573 19.4271 794.198 18.6771 793.698 18.0312C793.198 17.3646 792.573 16.8333 791.823 16.4375C791.093 16.0208 790.25 15.8125 789.291 15.8125C788.312 15.8125 787.437 15.9896 786.666 16.3438C785.895 16.6979 785.229 17.1875 784.666 17.8125C784.125 18.4167 783.708 19.1354 783.416 19.9688C783.125 20.7812 782.979 21.6458 782.979 22.5625C782.979 23.4375 783.104 24.3125 783.354 25.1875C783.604 26.0625 783.979 26.8542 784.479 27.5625C784.979 28.2708 785.593 28.8438 786.323 29.2812C787.073 29.7188 787.937 29.9375 788.916 29.9375C789.895 29.9375 790.77 29.75 791.541 29.375C792.333 28.9792 793 28.4583 793.541 27.8125C794.083 27.1458 794.5 26.3854 794.791 25.5312C795.083 24.6771 795.229 23.7917 795.229 22.875ZM852.258 30.1875C852.258 32.5417 852.226 34.875 852.164 37.1875C852.122 39.4792 852.049 41.7917 851.945 44.125L833.945 43.8125C834.57 40.125 835.112 36.4479 835.57 32.7812C836.028 29.0938 836.258 25.375 836.258 21.625C836.258 21.3542 836.247 20.9167 836.226 20.3125C836.205 19.7083 836.164 19.0312 836.101 18.2812C836.039 17.5104 835.945 16.7292 835.82 15.9375C835.716 15.125 835.56 14.3854 835.351 13.7188C835.164 13.0521 834.924 12.5104 834.633 12.0938C834.362 11.6562 834.028 11.4375 833.633 11.4375C832.924 11.4375 832.32 11.6458 831.82 12.0625C831.341 12.4792 830.935 13.0208 830.601 13.6875C830.289 14.3333 830.039 15.0625 829.851 15.875C829.664 16.6875 829.518 17.5 829.414 18.3125C829.33 19.125 829.268 19.8958 829.226 20.625C829.205 21.3333 829.195 21.9167 829.195 22.375C829.091 26.0625 829.008 29.7292 828.945 33.375C828.883 37 828.799 40.6667 828.695 44.375L812.758 45.0625C813.174 37.7083 813.57 30.3958 813.945 23.125C814.341 15.8542 814.653 8.54167 814.883 1.1875L829.633 0.4375L829.508 5.4375C830.091 4.72917 830.716 4.0625 831.383 3.4375C832.07 2.8125 832.799 2.28125 833.57 1.84375C834.341 1.38542 835.153 1.03125 836.008 0.78125C836.883 0.510417 837.799 0.375 838.758 0.375C840.528 0.375 842.08 0.666667 843.414 1.25C844.747 1.83333 845.893 2.625 846.851 3.625C847.81 4.625 848.612 5.8125 849.258 7.1875C849.903 8.54167 850.424 9.98958 850.82 11.5312C851.216 13.0729 851.518 14.6875 851.726 16.375C851.935 18.0417 852.07 19.6875 852.133 21.3125C852.216 22.9375 852.258 24.5104 852.258 26.0312C852.258 27.5521 852.258 28.9375 852.258 30.1875Z" fill="white"/>
</svg>
