<svg width="921" height="243" viewBox="0 0 921 243" fill="none" xmlns="http://www.w3.org/2000/svg">
<rect x="9" y="9" width="903" height="214" rx="95" stroke="white" stroke-width="18"/>
<path d="M187.9 102.4C193.833 102.4 199.267 105.033 204.2 110.3C209.2 115.567 211.7 121.7 211.7 128.7C211.7 135.633 209.233 141.733 204.3 147C199.367 152.2 194.067 154.8 188.4 154.8C182.733 154.8 178.7 153.2 176.3 150C175.767 153.267 172.9 154.9 167.7 154.9C163.5 154.9 160.933 154 160 152.2C159.533 151.2 159.233 150.333 159.1 149.6C159.033 148.8 159 147.633 159 146.1V86.4C159 84.8667 159.033 83.7333 159.1 83C159.233 82.2 159.533 81.3333 160 80.4C160.933 78.6 163.533 77.7 167.8 77.7C172 77.7 174.533 78.6 175.4 80.4C175.933 81.4 176.233 82.3 176.3 83.1C176.433 83.8333 176.5 84.9667 176.5 86.5V107.3C179.167 104.033 182.967 102.4 187.9 102.4ZM179.1 134.7C180.767 136.5 182.833 137.4 185.3 137.4C187.767 137.4 189.867 136.5 191.6 134.7C193.333 132.9 194.2 130.9 194.2 128.7C194.2 126.5 193.4 124.5 191.8 122.7C190.2 120.833 188.067 119.9 185.4 119.9C182.733 119.9 180.6 120.833 179 122.7C177.467 124.567 176.7 126.6 176.7 128.8C176.7 130.933 177.5 132.9 179.1 134.7ZM246.58 154.8C239.846 154.8 234.246 152.267 229.78 147.2C225.38 142.067 223.18 135.833 223.18 128.5V111C223.18 109.4 223.213 108.233 223.28 107.5C223.413 106.767 223.713 105.9 224.18 104.9C225.113 103.1 227.713 102.2 231.98 102.2C236.646 102.2 239.38 103.467 240.18 106C240.58 107.067 240.78 108.767 240.78 111.1V128.6C240.78 131.333 241.546 133.467 243.08 135C244.68 136.533 246.78 137.3 249.38 137.3C252.046 137.3 254.18 136.5 255.78 134.9C257.446 133.3 258.28 131.2 258.28 128.6V110.9C258.28 109.367 258.313 108.233 258.38 107.5C258.513 106.7 258.846 105.8 259.38 104.8C260.246 103.067 262.813 102.2 267.08 102.2C271.28 102.2 273.846 103.1 274.78 104.9C275.246 105.9 275.513 106.8 275.58 107.6C275.713 108.333 275.78 109.467 275.78 111V146.4C275.78 147.867 275.713 149 275.58 149.8C275.513 150.533 275.213 151.367 274.68 152.3C273.68 154.033 271.113 154.9 266.98 154.9C262.913 154.9 260.413 154.1 259.48 152.5C258.813 151.367 258.48 150 258.48 148.4C258.213 148.867 257.613 149.533 256.68 150.4C255.746 151.267 254.846 152 253.98 152.6C251.713 154.067 249.246 154.8 246.58 154.8ZM336.848 102.9C340.781 104.633 342.748 106.733 342.748 109.2C342.748 110.4 342.481 111.533 341.948 112.6C341.414 113.667 341.148 114.233 341.148 114.3L314.948 172.9C314.414 174.167 313.948 175.133 313.548 175.8C313.214 176.467 312.648 177.1 311.848 177.7C311.048 178.3 310.048 178.6 308.848 178.6C307.648 178.6 305.881 178.1 303.548 177.1C299.614 175.367 297.648 173.3 297.648 170.9C297.648 169.3 300.848 161.667 307.248 148L287.348 114.5C286.014 112.3 285.348 110.667 285.348 109.6C285.348 107.467 287.148 105.333 290.748 103.2C293.014 101.867 294.781 101.2 296.048 101.2C297.314 101.2 298.348 101.467 299.148 102C299.948 102.533 300.514 103.1 300.848 103.7C301.248 104.233 303.081 107.333 306.348 113C309.681 118.6 312.848 123.833 315.848 128.7C316.181 127.633 317.981 123.533 321.248 116.4C324.514 109.2 326.248 105.367 326.448 104.9C326.714 104.433 327.114 103.867 327.648 103.2C328.514 102.067 329.714 101.5 331.248 101.5C332.848 101.5 334.714 101.967 336.848 102.9ZM424.492 130.7C424.492 135.9 422.992 140.067 419.992 143.2C416.992 146.333 413.359 148.4 409.092 149.4V155.8C409.092 158.133 408.859 159.767 408.392 160.7C407.992 161.633 407.359 162.267 406.492 162.6C405.692 162.933 404.592 163.1 403.192 163.1C401.792 163.1 400.659 162.933 399.792 162.6C398.992 162.267 398.426 161.667 398.092 160.8C397.626 159.667 397.392 157.967 397.392 155.7V149.5C394.659 148.9 392.192 147.9 389.992 146.5C387.792 145.1 386.259 143.867 385.392 142.8L384.092 141.1C382.692 139.3 381.992 137.733 381.992 136.4C381.992 135.067 383.126 133.3 385.392 131.1C386.726 129.833 388.126 129.2 389.592 129.2C391.126 129.2 393.226 130.533 395.892 133.2C397.959 135.733 400.292 137 402.892 137C407.826 137 410.292 134.967 410.292 130.9C410.292 129.433 409.359 128.3 407.492 127.5C405.626 126.7 403.359 126 400.692 125.4C398.026 124.733 395.359 123.867 392.692 122.8C390.026 121.733 387.759 119.9 385.892 117.3C384.026 114.7 383.092 111.4 383.092 107.4C383.092 103.4 384.359 99.8 386.892 96.6C389.426 93.4 392.926 91.3333 397.392 90.4V84.8C397.392 82.5333 397.592 80.9 397.992 79.9C398.659 78.3 400.426 77.5 403.292 77.5C405.092 77.5 406.426 77.9 407.292 78.7C408.226 79.4333 408.759 80.2333 408.892 81.1C409.026 81.9667 409.092 83.2333 409.092 84.9V90.5C410.959 90.9 412.659 91.4667 414.192 92.2C415.726 92.9333 416.792 93.5333 417.392 94L418.292 94.8L418.692 95.1C420.359 96.6333 421.192 97.9 421.192 98.9C421.192 99.9 420.392 101.567 418.792 103.9C417.259 106.233 415.559 107.4 413.692 107.4C412.492 107.4 411.459 107.1 410.592 106.5C409.792 105.9 409.159 105.4 408.692 105C408.226 104.6 407.792 104.267 407.392 104C406.259 103.267 404.826 102.9 403.092 102.9C401.359 102.9 399.926 103.333 398.792 104.2C397.659 105 397.092 106.133 397.092 107.6C397.092 109.067 397.759 110.267 399.092 111.2C400.492 112.067 402.192 112.667 404.192 113C406.192 113.267 408.392 113.767 410.792 114.5C413.192 115.167 415.392 115.967 417.392 116.9C419.392 117.833 421.059 119.5 422.392 121.9C423.792 124.233 424.492 127.167 424.492 130.7ZM469.353 148.4C466.82 151.733 462.786 153.4 457.253 153.4C451.72 153.4 446.52 150.867 441.653 145.8C436.853 140.667 434.453 134.7 434.453 127.9C434.453 121.1 436.886 115.133 441.753 110C446.62 104.867 451.953 102.3 457.753 102.3C460.02 102.3 462.086 102.733 463.953 103.6C465.82 104.4 467.086 105.167 467.753 105.9C468.486 106.567 469.053 107.2 469.453 107.8C469.653 105.933 470.32 104.533 471.453 103.6C472.653 102.6 474.553 102.1 477.153 102.1C479.753 102.1 481.653 102.3 482.853 102.7C484.053 103.1 484.886 103.8 485.353 104.8C485.886 105.733 486.186 106.567 486.253 107.3C486.386 108.033 486.453 109.167 486.453 110.7V152.1C486.453 159.767 483.786 165.933 478.453 170.6C473.12 175.333 467.12 177.7 460.453 177.7C455.386 177.7 450.553 176.467 445.953 174C441.353 171.533 439.053 169.3 439.053 167.3C439.053 164.7 440.053 162.4 442.053 160.4C443.32 159 444.286 158.033 444.953 157.5C445.686 156.967 446.52 156.7 447.453 156.7C448.386 156.7 449.353 157.1 450.353 157.9C453.553 160.367 457.02 161.6 460.753 161.6C463.286 161.6 465.353 160.6 466.953 158.6C468.553 156.6 469.353 154.2 469.353 151.4V148.4ZM451.553 128C451.553 130.133 452.386 132.067 454.053 133.8C455.786 135.533 457.853 136.4 460.253 136.4C462.72 136.4 464.753 135.533 466.353 133.8C467.953 132 468.753 130.067 468.753 128C468.753 125.867 467.986 123.9 466.453 122.1C464.92 120.233 462.853 119.3 460.253 119.3C457.653 119.3 455.553 120.2 453.953 122C452.353 123.8 451.553 125.8 451.553 128ZM497.949 128.7C497.949 120.7 500.749 114.1 506.349 108.9C511.949 103.7 518.349 101.1 525.549 101.1C532.749 101.1 539.116 103.7 544.649 108.9C550.183 114.033 552.949 120.6 552.949 128.6C552.949 134.133 551.516 139.067 548.649 143.4C545.783 147.667 542.283 150.833 538.149 152.9C534.083 154.9 529.849 155.9 525.449 155.9C521.049 155.9 516.783 154.833 512.649 152.7C508.516 150.5 505.016 147.3 502.149 143.1C499.349 138.833 497.949 134.033 497.949 128.7ZM518.849 135.9C520.983 137.5 523.149 138.3 525.349 138.3C527.549 138.3 529.749 137.467 531.949 135.8C534.149 134.133 535.249 131.667 535.249 128.4C535.249 125.133 534.216 122.7 532.149 121.1C530.083 119.5 527.849 118.7 525.449 118.7C523.049 118.7 520.816 119.533 518.749 121.2C516.683 122.867 515.649 125.333 515.649 128.6C515.649 131.8 516.716 134.233 518.849 135.9ZM593.545 120L587.045 119.6V133.4C587.045 135.2 587.312 136.5 587.845 137.3C588.445 138.1 589.512 138.5 591.045 138.5C592.645 138.5 593.845 138.567 594.645 138.7C595.512 138.767 596.412 139.067 597.345 139.6C598.879 140.467 599.645 142.7 599.645 146.3C599.645 150.5 598.712 153.067 596.845 154C595.845 154.467 594.945 154.767 594.145 154.9C593.412 154.967 592.312 155 590.845 155C583.912 155 578.645 153.433 575.045 150.3C571.445 147.167 569.645 141.867 569.645 134.4V119.6C568.379 119.8 567.012 119.9 565.545 119.9C564.079 119.9 562.845 119.333 561.845 118.2C560.912 117.067 560.445 115.133 560.445 112.4C560.445 109.667 560.612 107.7 560.945 106.5C561.279 105.233 561.745 104.333 562.345 103.8C563.412 102.933 564.745 102.5 566.345 102.5L569.645 102.9V92.6C569.645 91.0667 569.679 89.9333 569.745 89.2C569.879 88.4667 570.212 87.6667 570.745 86.8C571.612 85.1333 574.179 84.3 578.445 84.3C582.979 84.3 585.679 85.5333 586.545 88C586.879 89.0667 587.045 90.7667 587.045 93.1V102.9C589.979 102.633 592.179 102.5 593.645 102.5C595.179 102.5 596.312 102.567 597.045 102.7C597.845 102.767 598.745 103.067 599.745 103.6C601.479 104.467 602.345 107.033 602.345 111.3C602.345 115.5 601.445 118.067 599.645 119C598.645 119.467 597.745 119.767 596.945 119.9C596.212 119.967 595.079 120 593.545 120ZM627.414 128.7C627.414 131.5 628.347 133.7 630.214 135.3C632.081 136.833 634.047 137.6 636.114 137.6C638.247 137.6 640.214 137 642.014 135.8C643.881 134.533 645.381 133.9 646.514 133.9C648.514 133.9 650.947 135.667 653.814 139.2C655.347 141.133 656.114 142.867 656.114 144.4C656.114 146.933 654.281 149.3 650.614 151.5C646.814 154.167 642.147 155.5 636.614 155.5C630.414 155.5 624.447 153.267 618.714 148.8C615.981 146.667 613.747 143.833 612.014 140.3C610.281 136.7 609.414 132.767 609.414 128.5C609.414 124.167 610.281 120.267 612.014 116.8C613.747 113.267 615.981 110.433 618.714 108.3C624.247 103.9 630.147 101.7 636.414 101.7C638.947 101.7 641.414 102.067 643.814 102.8C646.214 103.467 647.981 104.133 649.114 104.8L650.714 105.8C651.914 106.6 652.847 107.233 653.514 107.7C655.247 109.033 656.114 110.567 656.114 112.3C656.114 113.967 655.414 115.867 654.014 118C651.614 121.667 649.314 123.5 647.114 123.5C645.847 123.5 644.047 122.767 641.714 121.3C640.514 120.167 638.781 119.6 636.514 119.6C634.314 119.6 632.247 120.4 630.314 122C628.381 123.6 627.414 125.833 627.414 128.7ZM696.188 102.5C702.855 102.5 708.388 105.033 712.788 110.1C717.255 115.167 719.488 121.367 719.488 128.7V146.3C719.488 147.833 719.422 149 719.288 149.8C719.222 150.533 718.922 151.4 718.388 152.4C717.522 154.133 714.955 155 710.688 155C706.622 155 704.088 154.133 703.088 152.4C702.555 151.4 702.222 150.5 702.088 149.7C702.022 148.9 701.988 147.7 701.988 146.1V128.6C701.988 125.867 701.222 123.733 699.688 122.2C698.155 120.667 696.188 119.9 693.788 119.9C691.455 119.9 689.388 120.633 687.588 122.1C685.788 123.5 684.755 125.1 684.488 126.9V146.3C684.488 147.833 684.422 149 684.288 149.8C684.222 150.533 683.922 151.4 683.388 152.4C682.522 154.133 679.955 155 675.688 155C671.488 155 668.922 154.1 667.988 152.3C667.522 151.3 667.222 150.433 667.088 149.7C667.022 148.967 666.988 147.8 666.988 146.2V86.4C666.988 84.8667 667.022 83.7333 667.088 83C667.222 82.2 667.522 81.3333 667.988 80.4C668.922 78.6 671.522 77.7 675.788 77.7C679.988 77.7 682.522 78.6 683.388 80.4C683.922 81.4 684.222 82.3 684.288 83.1C684.422 83.8333 684.488 84.9667 684.488 86.5V108.6C687.822 104.533 691.722 102.5 696.188 102.5ZM732.535 111.1C732.535 109.567 732.568 108.433 732.635 107.7C732.768 106.9 733.068 106 733.535 105C734.468 103.267 737.068 102.4 741.335 102.4C744.535 102.4 746.802 102.967 748.135 104.1C749.268 105.033 749.868 106.467 749.935 108.4C750.002 109.067 750.035 110.033 750.035 111.3V146.3C750.035 147.833 749.968 149 749.835 149.8C749.768 150.533 749.468 151.4 748.935 152.4C748.068 154.133 745.502 155 741.235 155C737.035 155 734.468 154.1 733.535 152.3C733.068 151.3 732.768 150.433 732.635 149.7C732.568 148.967 732.535 147.8 732.535 146.2V111.1ZM748.935 92.6C748.468 93.5333 747.602 94.2 746.335 94.6C745.068 95 743.368 95.2 741.235 95.2C739.168 95.2 737.502 95 736.235 94.6C734.968 94.2 734.068 93.5 733.535 92.5C733.068 91.5 732.768 90.6333 732.635 89.9C732.568 89.1 732.535 87.9333 732.535 86.4C732.535 84.8667 732.568 83.7333 732.635 83C732.768 82.2 733.068 81.3333 733.535 80.4C734.468 78.6 737.068 77.7 741.335 77.7C745.535 77.7 748.068 78.6 748.935 80.4C749.468 81.4 749.768 82.3 749.835 83.1C749.968 83.8333 750.035 84.9667 750.035 86.5C750.035 88.0333 749.968 89.2 749.835 90C749.768 90.7333 749.468 91.6 748.935 92.6Z" fill="white"/>
<circle cx="73" cy="218" r="25" transform="rotate(-180 73 218)" fill="white"/>
</svg>
