<svg width="921" height="243" viewBox="0 0 921 243" fill="none" xmlns="http://www.w3.org/2000/svg">
<rect x="9" y="9" width="903" height="214" rx="95" stroke="white" stroke-width="18"/>
<path d="M250.9 102.4C256.833 102.4 262.267 105.033 267.2 110.3C272.2 115.567 274.7 121.7 274.7 128.7C274.7 135.633 272.233 141.733 267.3 147C262.367 152.2 257.067 154.8 251.4 154.8C245.733 154.8 241.7 153.2 239.3 150C238.767 153.267 235.9 154.9 230.7 154.9C226.5 154.9 223.933 154 223 152.2C222.533 151.2 222.233 150.333 222.1 149.6C222.033 148.8 222 147.633 222 146.1V86.4C222 84.8667 222.033 83.7333 222.1 83C222.233 82.2 222.533 81.3333 223 80.4C223.933 78.6 226.533 77.7 230.8 77.7C235 77.7 237.533 78.6 238.4 80.4C238.933 81.4 239.233 82.3 239.3 83.1C239.433 83.8333 239.5 84.9667 239.5 86.5V107.3C242.167 104.033 245.967 102.4 250.9 102.4ZM242.1 134.7C243.767 136.5 245.833 137.4 248.3 137.4C250.767 137.4 252.867 136.5 254.6 134.7C256.333 132.9 257.2 130.9 257.2 128.7C257.2 126.5 256.4 124.5 254.8 122.7C253.2 120.833 251.067 119.9 248.4 119.9C245.733 119.9 243.6 120.833 242 122.7C240.467 124.567 239.7 126.6 239.7 128.8C239.7 130.933 240.5 132.9 242.1 134.7ZM309.58 154.8C302.846 154.8 297.246 152.267 292.78 147.2C288.38 142.067 286.18 135.833 286.18 128.5V111C286.18 109.4 286.213 108.233 286.28 107.5C286.413 106.767 286.713 105.9 287.18 104.9C288.113 103.1 290.713 102.2 294.98 102.2C299.646 102.2 302.38 103.467 303.18 106C303.58 107.067 303.78 108.767 303.78 111.1V128.6C303.78 131.333 304.546 133.467 306.08 135C307.68 136.533 309.78 137.3 312.38 137.3C315.046 137.3 317.18 136.5 318.78 134.9C320.446 133.3 321.28 131.2 321.28 128.6V110.9C321.28 109.367 321.313 108.233 321.38 107.5C321.513 106.7 321.846 105.8 322.38 104.8C323.246 103.067 325.813 102.2 330.08 102.2C334.28 102.2 336.846 103.1 337.78 104.9C338.246 105.9 338.513 106.8 338.58 107.6C338.713 108.333 338.78 109.467 338.78 111V146.4C338.78 147.867 338.713 149 338.58 149.8C338.513 150.533 338.213 151.367 337.68 152.3C336.68 154.033 334.113 154.9 329.98 154.9C325.913 154.9 323.413 154.1 322.48 152.5C321.813 151.367 321.48 150 321.48 148.4C321.213 148.867 320.613 149.533 319.68 150.4C318.746 151.267 317.846 152 316.98 152.6C314.713 154.067 312.246 154.8 309.58 154.8ZM399.848 102.9C403.781 104.633 405.748 106.733 405.748 109.2C405.748 110.4 405.481 111.533 404.948 112.6C404.414 113.667 404.148 114.233 404.148 114.3L377.948 172.9C377.414 174.167 376.948 175.133 376.548 175.8C376.214 176.467 375.648 177.1 374.848 177.7C374.048 178.3 373.048 178.6 371.848 178.6C370.648 178.6 368.881 178.1 366.548 177.1C362.614 175.367 360.648 173.3 360.648 170.9C360.648 169.3 363.848 161.667 370.248 148L350.348 114.5C349.014 112.3 348.348 110.667 348.348 109.6C348.348 107.467 350.148 105.333 353.748 103.2C356.014 101.867 357.781 101.2 359.048 101.2C360.314 101.2 361.348 101.467 362.148 102C362.948 102.533 363.514 103.1 363.848 103.7C364.248 104.233 366.081 107.333 369.348 113C372.681 118.6 375.848 123.833 378.848 128.7C379.181 127.633 380.981 123.533 384.248 116.4C387.514 109.2 389.248 105.367 389.448 104.9C389.714 104.433 390.114 103.867 390.648 103.2C391.514 102.067 392.714 101.5 394.248 101.5C395.848 101.5 397.714 101.967 399.848 102.9ZM487.492 130.7C487.492 135.9 485.992 140.067 482.992 143.2C479.992 146.333 476.359 148.4 472.092 149.4V155.8C472.092 158.133 471.859 159.767 471.392 160.7C470.992 161.633 470.359 162.267 469.492 162.6C468.692 162.933 467.592 163.1 466.192 163.1C464.792 163.1 463.659 162.933 462.792 162.6C461.992 162.267 461.426 161.667 461.092 160.8C460.626 159.667 460.392 157.967 460.392 155.7V149.5C457.659 148.9 455.192 147.9 452.992 146.5C450.792 145.1 449.259 143.867 448.392 142.8L447.092 141.1C445.692 139.3 444.992 137.733 444.992 136.4C444.992 135.067 446.126 133.3 448.392 131.1C449.726 129.833 451.126 129.2 452.592 129.2C454.126 129.2 456.226 130.533 458.892 133.2C460.959 135.733 463.292 137 465.892 137C470.826 137 473.292 134.967 473.292 130.9C473.292 129.433 472.359 128.3 470.492 127.5C468.626 126.7 466.359 126 463.692 125.4C461.026 124.733 458.359 123.867 455.692 122.8C453.026 121.733 450.759 119.9 448.892 117.3C447.026 114.7 446.092 111.4 446.092 107.4C446.092 103.4 447.359 99.8 449.892 96.6C452.426 93.4 455.926 91.3333 460.392 90.4V84.8C460.392 82.5333 460.592 80.9 460.992 79.9C461.659 78.3 463.426 77.5 466.292 77.5C468.092 77.5 469.426 77.9 470.292 78.7C471.226 79.4333 471.759 80.2333 471.892 81.1C472.026 81.9667 472.092 83.2333 472.092 84.9V90.5C473.959 90.9 475.659 91.4667 477.192 92.2C478.726 92.9333 479.792 93.5333 480.392 94L481.292 94.8L481.692 95.1C483.359 96.6333 484.192 97.9 484.192 98.9C484.192 99.9 483.392 101.567 481.792 103.9C480.259 106.233 478.559 107.4 476.692 107.4C475.492 107.4 474.459 107.1 473.592 106.5C472.792 105.9 472.159 105.4 471.692 105C471.226 104.6 470.792 104.267 470.392 104C469.259 103.267 467.826 102.9 466.092 102.9C464.359 102.9 462.926 103.333 461.792 104.2C460.659 105 460.092 106.133 460.092 107.6C460.092 109.067 460.759 110.267 462.092 111.2C463.492 112.067 465.192 112.667 467.192 113C469.192 113.267 471.392 113.767 473.792 114.5C476.192 115.167 478.392 115.967 480.392 116.9C482.392 117.833 484.059 119.5 485.392 121.9C486.792 124.233 487.492 127.167 487.492 130.7ZM529.753 102.4C534.353 102.4 537.053 103.667 537.853 106.2C538.253 107.467 538.453 109.133 538.453 111.2C538.453 113.267 538.22 114.933 537.753 116.2C537.353 117.4 536.686 118.267 535.753 118.8C534.353 119.6 532.32 120 529.653 120L523.253 119.6V146.4C523.253 148.933 522.92 150.833 522.253 152.1C521.653 153.3 520.686 154.1 519.353 154.5C518.086 154.9 516.42 155.1 514.353 155.1C512.286 155.1 510.62 154.9 509.353 154.5C508.153 154.033 507.286 153.333 506.753 152.4C506.22 151.4 505.886 150.5 505.753 149.7C505.686 148.9 505.653 147.733 505.653 146.2V119.7H502.053C500.32 119.567 499.086 119.167 498.353 118.5C497.086 117.233 496.453 114.8 496.453 111.2C496.453 105.733 498.42 103 502.353 103H505.653V97.7C505.653 92.5667 507.486 87.9333 511.153 83.8C514.82 79.6 520.12 77.5 527.053 77.5C528.586 77.5 529.72 77.5667 530.453 77.7C531.253 77.7667 532.153 78.0667 533.153 78.6C534.953 79.4667 535.853 82.0333 535.853 86.3C535.853 89.5 535.286 91.8 534.153 93.2C533.22 94.2667 531.753 94.8667 529.753 95C529.153 95 528.22 95 526.953 95C524.486 95 523.253 95.8333 523.253 97.5V103L529.753 102.4ZM545.52 128.7C545.52 120.7 548.32 114.1 553.92 108.9C559.52 103.7 565.92 101.1 573.12 101.1C580.32 101.1 586.686 103.7 592.22 108.9C597.753 114.033 600.52 120.6 600.52 128.6C600.52 134.133 599.086 139.067 596.22 143.4C593.353 147.667 589.853 150.833 585.72 152.9C581.653 154.9 577.42 155.9 573.02 155.9C568.62 155.9 564.353 154.833 560.22 152.7C556.086 150.5 552.586 147.3 549.72 143.1C546.92 138.833 545.52 134.033 545.52 128.7ZM566.42 135.9C568.553 137.5 570.72 138.3 572.92 138.3C575.12 138.3 577.32 137.467 579.52 135.8C581.72 134.133 582.82 131.667 582.82 128.4C582.82 125.133 581.786 122.7 579.72 121.1C577.653 119.5 575.42 118.7 573.02 118.7C570.62 118.7 568.386 119.533 566.32 121.2C564.253 122.867 563.22 125.333 563.22 128.6C563.22 131.8 564.286 134.233 566.42 135.9ZM610.48 128.7C610.48 120.7 613.28 114.1 618.88 108.9C624.48 103.7 630.88 101.1 638.08 101.1C645.28 101.1 651.647 103.7 657.18 108.9C662.714 114.033 665.48 120.6 665.48 128.6C665.48 134.133 664.047 139.067 661.18 143.4C658.314 147.667 654.814 150.833 650.68 152.9C646.614 154.9 642.38 155.9 637.98 155.9C633.58 155.9 629.314 154.833 625.18 152.7C621.047 150.5 617.547 147.3 614.68 143.1C611.88 138.833 610.48 134.033 610.48 128.7ZM631.38 135.9C633.514 137.5 635.68 138.3 637.88 138.3C640.08 138.3 642.28 137.467 644.48 135.8C646.68 134.133 647.78 131.667 647.78 128.4C647.78 125.133 646.747 122.7 644.68 121.1C642.614 119.5 640.38 118.7 637.98 118.7C635.58 118.7 633.347 119.533 631.28 121.2C629.214 122.867 628.18 125.333 628.18 128.6C628.18 131.8 629.247 134.233 631.38 135.9ZM712.241 80.4C712.775 79.4 713.675 78.7 714.941 78.3C716.208 77.9 717.875 77.7 719.941 77.7C722.075 77.7 723.775 77.9 725.041 78.3C726.308 78.7 727.175 79.4 727.641 80.4C728.175 81.4 728.475 82.3 728.541 83.1C728.675 83.8333 728.741 84.9667 728.741 86.5V146.2C728.741 147.733 728.675 148.9 728.541 149.7C728.475 150.433 728.175 151.267 727.641 152.2C726.641 154 723.808 154.9 719.141 154.9C714.541 154.9 711.975 153.267 711.441 150C708.641 153.2 704.741 154.8 699.741 154.8C693.741 154.8 688.275 152.2 683.341 147C678.408 141.733 675.941 135.633 675.941 128.7C675.941 121.7 678.408 115.567 683.341 110.3C688.341 105.033 693.808 102.4 699.741 102.4C704.675 102.4 708.508 104.067 711.241 107.4V86.4C711.241 84.8667 711.275 83.7333 711.341 83C711.475 82.2 711.775 81.3333 712.241 80.4ZM696.041 134.7C697.775 136.5 699.875 137.4 702.341 137.4C704.808 137.4 706.841 136.5 708.441 134.7C710.108 132.9 710.941 130.933 710.941 128.8C710.941 126.6 710.141 124.567 708.541 122.7C707.008 120.833 704.908 119.9 702.241 119.9C699.575 119.9 697.441 120.833 695.841 122.7C694.241 124.5 693.441 126.5 693.441 128.7C693.441 130.9 694.308 132.9 696.041 134.7Z" fill="white"/>
<circle cx="73" cy="218" r="25" transform="rotate(-180 73 218)" fill="white"/>
</svg>
