<svg width="921" height="243" viewBox="0 0 921 243" fill="none" xmlns="http://www.w3.org/2000/svg">
<rect x="9" y="9" width="903" height="214" rx="95" stroke="white" stroke-width="18"/>
<path d="M250.9 102.4C256.833 102.4 262.267 105.033 267.2 110.3C272.2 115.567 274.7 121.7 274.7 128.7C274.7 135.633 272.233 141.733 267.3 147C262.367 152.2 257.067 154.8 251.4 154.8C245.733 154.8 241.7 153.2 239.3 150C238.767 153.267 235.9 154.9 230.7 154.9C226.5 154.9 223.933 154 223 152.2C222.533 151.2 222.233 150.333 222.1 149.6C222.033 148.8 222 147.633 222 146.1V86.4C222 84.8667 222.033 83.7333 222.1 83C222.233 82.2 222.533 81.3333 223 80.4C223.933 78.6 226.533 77.7 230.8 77.7C235 77.7 237.533 78.6 238.4 80.4C238.933 81.4 239.233 82.3 239.3 83.1C239.433 83.8333 239.5 84.9667 239.5 86.5V107.3C242.167 104.033 245.967 102.4 250.9 102.4ZM242.1 134.7C243.767 136.5 245.833 137.4 248.3 137.4C250.767 137.4 252.867 136.5 254.6 134.7C256.333 132.9 257.2 130.9 257.2 128.7C257.2 126.5 256.4 124.5 254.8 122.7C253.2 120.833 251.067 119.9 248.4 119.9C245.733 119.9 243.6 120.833 242 122.7C240.467 124.567 239.7 126.6 239.7 128.8C239.7 130.933 240.5 132.9 242.1 134.7ZM309.58 154.8C302.846 154.8 297.246 152.267 292.78 147.2C288.38 142.067 286.18 135.833 286.18 128.5V111C286.18 109.4 286.213 108.233 286.28 107.5C286.413 106.767 286.713 105.9 287.18 104.9C288.113 103.1 290.713 102.2 294.98 102.2C299.646 102.2 302.38 103.467 303.18 106C303.58 107.067 303.78 108.767 303.78 111.1V128.6C303.78 131.333 304.546 133.467 306.08 135C307.68 136.533 309.78 137.3 312.38 137.3C315.046 137.3 317.18 136.5 318.78 134.9C320.446 133.3 321.28 131.2 321.28 128.6V110.9C321.28 109.367 321.313 108.233 321.38 107.5C321.513 106.7 321.846 105.8 322.38 104.8C323.246 103.067 325.813 102.2 330.08 102.2C334.28 102.2 336.846 103.1 337.78 104.9C338.246 105.9 338.513 106.8 338.58 107.6C338.713 108.333 338.78 109.467 338.78 111V146.4C338.78 147.867 338.713 149 338.58 149.8C338.513 150.533 338.213 151.367 337.68 152.3C336.68 154.033 334.113 154.9 329.98 154.9C325.913 154.9 323.413 154.1 322.48 152.5C321.813 151.367 321.48 150 321.48 148.4C321.213 148.867 320.613 149.533 319.68 150.4C318.746 151.267 317.846 152 316.98 152.6C314.713 154.067 312.246 154.8 309.58 154.8ZM399.848 102.9C403.781 104.633 405.748 106.733 405.748 109.2C405.748 110.4 405.481 111.533 404.948 112.6C404.414 113.667 404.148 114.233 404.148 114.3L377.948 172.9C377.414 174.167 376.948 175.133 376.548 175.8C376.214 176.467 375.648 177.1 374.848 177.7C374.048 178.3 373.048 178.6 371.848 178.6C370.648 178.6 368.881 178.1 366.548 177.1C362.614 175.367 360.648 173.3 360.648 170.9C360.648 169.3 363.848 161.667 370.248 148L350.348 114.5C349.014 112.3 348.348 110.667 348.348 109.6C348.348 107.467 350.148 105.333 353.748 103.2C356.014 101.867 357.781 101.2 359.048 101.2C360.314 101.2 361.348 101.467 362.148 102C362.948 102.533 363.514 103.1 363.848 103.7C364.248 104.233 366.081 107.333 369.348 113C372.681 118.6 375.848 123.833 378.848 128.7C379.181 127.633 380.981 123.533 384.248 116.4C387.514 109.2 389.248 105.367 389.448 104.9C389.714 104.433 390.114 103.867 390.648 103.2C391.514 102.067 392.714 101.5 394.248 101.5C395.848 101.5 397.714 101.967 399.848 102.9ZM487.492 130.7C487.492 135.9 485.992 140.067 482.992 143.2C479.992 146.333 476.359 148.4 472.092 149.4V155.8C472.092 158.133 471.859 159.767 471.392 160.7C470.992 161.633 470.359 162.267 469.492 162.6C468.692 162.933 467.592 163.1 466.192 163.1C464.792 163.1 463.659 162.933 462.792 162.6C461.992 162.267 461.426 161.667 461.092 160.8C460.626 159.667 460.392 157.967 460.392 155.7V149.5C457.659 148.9 455.192 147.9 452.992 146.5C450.792 145.1 449.259 143.867 448.392 142.8L447.092 141.1C445.692 139.3 444.992 137.733 444.992 136.4C444.992 135.067 446.126 133.3 448.392 131.1C449.726 129.833 451.126 129.2 452.592 129.2C454.126 129.2 456.226 130.533 458.892 133.2C460.959 135.733 463.292 137 465.892 137C470.826 137 473.292 134.967 473.292 130.9C473.292 129.433 472.359 128.3 470.492 127.5C468.626 126.7 466.359 126 463.692 125.4C461.026 124.733 458.359 123.867 455.692 122.8C453.026 121.733 450.759 119.9 448.892 117.3C447.026 114.7 446.092 111.4 446.092 107.4C446.092 103.4 447.359 99.8 449.892 96.6C452.426 93.4 455.926 91.3333 460.392 90.4V84.8C460.392 82.5333 460.592 80.9 460.992 79.9C461.659 78.3 463.426 77.5 466.292 77.5C468.092 77.5 469.426 77.9 470.292 78.7C471.226 79.4333 471.759 80.2333 471.892 81.1C472.026 81.9667 472.092 83.2333 472.092 84.9V90.5C473.959 90.9 475.659 91.4667 477.192 92.2C478.726 92.9333 479.792 93.5333 480.392 94L481.292 94.8L481.692 95.1C483.359 96.6333 484.192 97.9 484.192 98.9C484.192 99.9 483.392 101.567 481.792 103.9C480.259 106.233 478.559 107.4 476.692 107.4C475.492 107.4 474.459 107.1 473.592 106.5C472.792 105.9 472.159 105.4 471.692 105C471.226 104.6 470.792 104.267 470.392 104C469.259 103.267 467.826 102.9 466.092 102.9C464.359 102.9 462.926 103.333 461.792 104.2C460.659 105 460.092 106.133 460.092 107.6C460.092 109.067 460.759 110.267 462.092 111.2C463.492 112.067 465.192 112.667 467.192 113C469.192 113.267 471.392 113.767 473.792 114.5C476.192 115.167 478.392 115.967 480.392 116.9C482.392 117.833 484.059 119.5 485.392 121.9C486.792 124.233 487.492 127.167 487.492 130.7ZM532.353 148.4C529.82 151.733 525.786 153.4 520.253 153.4C514.72 153.4 509.52 150.867 504.653 145.8C499.853 140.667 497.453 134.7 497.453 127.9C497.453 121.1 499.886 115.133 504.753 110C509.62 104.867 514.953 102.3 520.753 102.3C523.02 102.3 525.086 102.733 526.953 103.6C528.82 104.4 530.086 105.167 530.753 105.9C531.486 106.567 532.053 107.2 532.453 107.8C532.653 105.933 533.32 104.533 534.453 103.6C535.653 102.6 537.553 102.1 540.153 102.1C542.753 102.1 544.653 102.3 545.853 102.7C547.053 103.1 547.886 103.8 548.353 104.8C548.886 105.733 549.186 106.567 549.253 107.3C549.386 108.033 549.453 109.167 549.453 110.7V152.1C549.453 159.767 546.786 165.933 541.453 170.6C536.12 175.333 530.12 177.7 523.453 177.7C518.386 177.7 513.553 176.467 508.953 174C504.353 171.533 502.053 169.3 502.053 167.3C502.053 164.7 503.053 162.4 505.053 160.4C506.32 159 507.286 158.033 507.953 157.5C508.686 156.967 509.52 156.7 510.453 156.7C511.386 156.7 512.353 157.1 513.353 157.9C516.553 160.367 520.02 161.6 523.753 161.6C526.286 161.6 528.353 160.6 529.953 158.6C531.553 156.6 532.353 154.2 532.353 151.4V148.4ZM514.553 128C514.553 130.133 515.386 132.067 517.053 133.8C518.786 135.533 520.853 136.4 523.253 136.4C525.72 136.4 527.753 135.533 529.353 133.8C530.953 132 531.753 130.067 531.753 128C531.753 125.867 530.986 123.9 529.453 122.1C527.92 120.233 525.853 119.3 523.253 119.3C520.653 119.3 518.553 120.2 516.953 122C515.353 123.8 514.553 125.8 514.553 128ZM560.949 128.7C560.949 120.7 563.749 114.1 569.349 108.9C574.949 103.7 581.349 101.1 588.549 101.1C595.749 101.1 602.116 103.7 607.649 108.9C613.183 114.033 615.949 120.6 615.949 128.6C615.949 134.133 614.516 139.067 611.649 143.4C608.783 147.667 605.283 150.833 601.149 152.9C597.083 154.9 592.849 155.9 588.449 155.9C584.049 155.9 579.783 154.833 575.649 152.7C571.516 150.5 568.016 147.3 565.149 143.1C562.349 138.833 560.949 134.033 560.949 128.7ZM581.849 135.9C583.983 137.5 586.149 138.3 588.349 138.3C590.549 138.3 592.749 137.467 594.949 135.8C597.149 134.133 598.249 131.667 598.249 128.4C598.249 125.133 597.216 122.7 595.149 121.1C593.083 119.5 590.849 118.7 588.449 118.7C586.049 118.7 583.816 119.533 581.749 121.2C579.683 122.867 578.649 125.333 578.649 128.6C578.649 131.8 579.716 134.233 581.849 135.9ZM656.545 120L650.045 119.6V133.4C650.045 135.2 650.312 136.5 650.845 137.3C651.445 138.1 652.512 138.5 654.045 138.5C655.645 138.5 656.845 138.567 657.645 138.7C658.512 138.767 659.412 139.067 660.345 139.6C661.879 140.467 662.645 142.7 662.645 146.3C662.645 150.5 661.712 153.067 659.845 154C658.845 154.467 657.945 154.767 657.145 154.9C656.412 154.967 655.312 155 653.845 155C646.912 155 641.645 153.433 638.045 150.3C634.445 147.167 632.645 141.867 632.645 134.4V119.6C631.379 119.8 630.012 119.9 628.545 119.9C627.079 119.9 625.845 119.333 624.845 118.2C623.912 117.067 623.445 115.133 623.445 112.4C623.445 109.667 623.612 107.7 623.945 106.5C624.279 105.233 624.745 104.333 625.345 103.8C626.412 102.933 627.745 102.5 629.345 102.5L632.645 102.9V92.6C632.645 91.0667 632.679 89.9333 632.745 89.2C632.879 88.4667 633.212 87.6667 633.745 86.8C634.612 85.1333 637.179 84.3 641.445 84.3C645.979 84.3 648.679 85.5333 649.545 88C649.879 89.0667 650.045 90.7667 650.045 93.1V102.9C652.979 102.633 655.179 102.5 656.645 102.5C658.179 102.5 659.312 102.567 660.045 102.7C660.845 102.767 661.745 103.067 662.745 103.6C664.479 104.467 665.345 107.033 665.345 111.3C665.345 115.5 664.445 118.067 662.645 119C661.645 119.467 660.745 119.767 659.945 119.9C659.212 119.967 658.079 120 656.545 120Z" fill="white"/>
<circle cx="73" cy="218" r="25" transform="rotate(-180 73 218)" fill="white"/>
</svg>
