<svg width="2053" height="198" viewBox="0 0 2053 198" fill="none" xmlns="http://www.w3.org/2000/svg">
<path d="M6.504 52.504C5.4 52.504 4.536 52.192 3.912 51.568C3.336 50.944 3.048 50.08 3.048 48.976V4.264C3.048 3.112 3.36 2.248 3.984 1.672C4.608 1.048 5.448 0.735999 6.504 0.735999C7.512 0.735999 8.28 0.927998 8.808 1.312C9.384 1.648 9.912 2.272 10.392 3.184L29.256 38.392H27.024L45.816 3.184C46.296 2.272 46.8 1.648 47.328 1.312C47.856 0.927998 48.624 0.735999 49.632 0.735999C50.688 0.735999 51.504 1.048 52.08 1.672C52.656 2.248 52.944 3.112 52.944 4.264V48.976C52.944 50.08 52.656 50.944 52.08 51.568C51.552 52.192 50.736 52.504 49.632 52.504C48.528 52.504 47.688 52.192 47.112 51.568C46.536 50.944 46.248 50.08 46.248 48.976V11.824H47.832L31.128 42.712C30.744 43.432 30.336 43.96 29.904 44.296C29.472 44.632 28.872 44.8 28.104 44.8C27.336 44.8 26.712 44.632 26.232 44.296C25.752 43.912 25.32 43.384 24.936 42.712L8.088 11.752H9.816V48.976C9.816 50.08 9.528 50.944 8.952 51.568C8.424 52.192 7.608 52.504 6.504 52.504ZM82.4156 52.648C78.5756 52.648 75.2636 51.928 72.4796 50.488C69.7436 49 67.6076 46.912 66.0716 44.224C64.5836 41.488 63.8396 38.248 63.8396 34.504C63.8396 30.856 64.5836 27.664 66.0716 24.928C67.5596 22.192 69.5996 20.056 72.1916 18.52C74.7836 16.984 77.7356 16.216 81.0476 16.216C83.4956 16.216 85.6796 16.624 87.5996 17.44C89.5196 18.208 91.1516 19.36 92.4956 20.896C93.8876 22.384 94.9196 24.208 95.5916 26.368C96.3116 28.528 96.6716 30.952 96.6716 33.64C96.6716 34.456 96.4316 35.08 95.9516 35.512C95.4716 35.896 94.7516 36.088 93.7916 36.088H69.5996V31.624H91.7756L90.5516 32.632C90.5516 30.232 90.1916 28.192 89.4716 26.512C88.7996 24.832 87.7676 23.56 86.3756 22.696C85.0316 21.784 83.3516 21.328 81.3356 21.328C79.0796 21.328 77.1596 21.856 75.5756 22.912C74.0396 23.968 72.8636 25.432 72.0476 27.304C71.2316 29.176 70.8236 31.36 70.8236 33.856V34.288C70.8236 38.512 71.8076 41.704 73.7756 43.864C75.7916 45.976 78.6956 47.032 82.4876 47.032C83.9276 47.032 85.4396 46.84 87.0236 46.456C88.6556 46.072 90.1916 45.424 91.6316 44.512C92.4476 44.032 93.1676 43.816 93.7916 43.864C94.4636 43.912 94.9916 44.128 95.3756 44.512C95.8076 44.896 96.0716 45.376 96.1676 45.952C96.2636 46.528 96.1676 47.128 95.8796 47.752C95.5916 48.328 95.0876 48.856 94.3676 49.336C92.7356 50.44 90.8396 51.28 88.6796 51.856C86.5196 52.384 84.4316 52.648 82.4156 52.648ZM122.887 52.648C119.047 52.648 115.735 51.928 112.951 50.488C110.215 49 108.079 46.912 106.543 44.224C105.055 41.488 104.311 38.248 104.311 34.504C104.311 30.856 105.055 27.664 106.543 24.928C108.031 22.192 110.071 20.056 112.663 18.52C115.255 16.984 118.207 16.216 121.519 16.216C123.967 16.216 126.151 16.624 128.071 17.44C129.992 18.208 131.624 19.36 132.968 20.896C134.359 22.384 135.391 24.208 136.063 26.368C136.783 28.528 137.144 30.952 137.144 33.64C137.144 34.456 136.904 35.08 136.424 35.512C135.944 35.896 135.224 36.088 134.264 36.088H110.071V31.624H132.247L131.023 32.632C131.023 30.232 130.664 28.192 129.944 26.512C129.271 24.832 128.239 23.56 126.847 22.696C125.503 21.784 123.824 21.328 121.808 21.328C119.551 21.328 117.631 21.856 116.047 22.912C114.511 23.968 113.335 25.432 112.519 27.304C111.703 29.176 111.295 31.36 111.295 33.856V34.288C111.295 38.512 112.279 41.704 114.247 43.864C116.263 45.976 119.168 47.032 122.96 47.032C124.4 47.032 125.912 46.84 127.496 46.456C129.128 46.072 130.664 45.424 132.104 44.512C132.92 44.032 133.64 43.816 134.264 43.864C134.936 43.912 135.464 44.128 135.847 44.512C136.28 44.896 136.544 45.376 136.64 45.952C136.736 46.528 136.64 47.128 136.351 47.752C136.064 48.328 135.56 48.856 134.839 49.336C133.207 50.44 131.311 51.28 129.152 51.856C126.991 52.384 124.903 52.648 122.887 52.648ZM161.777 52.648C158.897 52.648 156.473 52.144 154.505 51.136C152.537 50.128 151.073 48.64 150.113 46.672C149.153 44.704 148.673 42.304 148.673 39.472V22.48H144.353C143.393 22.48 142.649 22.24 142.121 21.76C141.593 21.232 141.329 20.536 141.329 19.672C141.329 18.76 141.593 18.064 142.121 17.584C142.649 17.104 143.393 16.864 144.353 16.864H148.673V9.448C148.673 8.248 148.985 7.336 149.609 6.712C150.281 6.088 151.193 5.776 152.345 5.776C153.497 5.776 154.385 6.088 155.009 6.712C155.633 7.336 155.945 8.248 155.945 9.448V16.864H164.369C165.329 16.864 166.073 17.104 166.601 17.584C167.129 18.064 167.393 18.76 167.393 19.672C167.393 20.536 167.129 21.232 166.601 21.76C166.073 22.24 165.329 22.48 164.369 22.48H155.945V38.896C155.945 41.44 156.473 43.36 157.529 44.656C158.633 45.952 160.409 46.6 162.857 46.6C163.721 46.6 164.465 46.528 165.089 46.384C165.761 46.192 166.313 46.072 166.745 46.024C167.273 46.024 167.705 46.216 168.041 46.6C168.377 46.936 168.545 47.608 168.545 48.616C168.545 49.336 168.401 50.008 168.113 50.632C167.873 51.256 167.417 51.664 166.745 51.856C166.169 52.048 165.377 52.216 164.369 52.36C163.409 52.552 162.545 52.648 161.777 52.648ZM203.962 65.464C203.098 65.464 202.378 65.224 201.802 64.744C201.274 64.312 200.962 63.712 200.866 62.944C200.818 62.224 200.962 61.432 201.298 60.568L206.194 49.552V52.648L192.73 21.328C192.394 20.464 192.274 19.648 192.37 18.88C192.466 18.112 192.826 17.512 193.45 17.08C194.074 16.6 194.914 16.36 195.97 16.36C196.882 16.36 197.602 16.576 198.13 17.008C198.658 17.44 199.138 18.184 199.57 19.24L210.442 46.096H208.426L219.442 19.24C219.874 18.136 220.378 17.392 220.954 17.008C221.53 16.576 222.322 16.36 223.33 16.36C224.194 16.36 224.866 16.6 225.346 17.08C225.874 17.512 226.186 18.112 226.282 18.88C226.426 19.6 226.306 20.392 225.922 21.256L207.922 62.656C207.442 63.76 206.89 64.504 206.266 64.888C205.69 65.272 204.922 65.464 203.962 65.464ZM249.52 52.648C245.968 52.648 242.896 51.904 240.304 50.416C237.76 48.928 235.768 46.816 234.328 44.08C232.888 41.344 232.168 38.128 232.168 34.432C232.168 31.6 232.576 29.08 233.392 26.872C234.208 24.664 235.36 22.768 236.848 21.184C238.384 19.552 240.208 18.328 242.32 17.512C244.48 16.648 246.88 16.216 249.52 16.216C253.024 16.216 256.048 16.96 258.592 18.448C261.184 19.936 263.2 22.048 264.64 24.784C266.08 27.472 266.8 30.688 266.8 34.432C266.8 37.216 266.392 39.736 265.576 41.992C264.76 44.248 263.584 46.168 262.048 47.752C260.56 49.336 258.736 50.56 256.576 51.424C254.464 52.24 252.112 52.648 249.52 52.648ZM249.52 47.032C251.488 47.032 253.216 46.552 254.704 45.592C256.192 44.632 257.344 43.216 258.16 41.344C259.024 39.472 259.456 37.168 259.456 34.432C259.456 30.304 258.544 27.184 256.72 25.072C254.896 22.96 252.496 21.904 249.52 21.904C247.504 21.904 245.752 22.384 244.264 23.344C242.776 24.256 241.6 25.648 240.736 27.52C239.92 29.392 239.512 31.696 239.512 34.432C239.512 38.512 240.424 41.632 242.248 43.792C244.072 45.952 246.496 47.032 249.52 47.032ZM289.295 52.648C286.463 52.648 284.087 52.12 282.167 51.064C280.295 50.008 278.879 48.448 277.919 46.384C277.007 44.272 276.551 41.632 276.551 38.464V20.032C276.551 18.784 276.863 17.872 277.487 17.296C278.111 16.672 278.999 16.36 280.151 16.36C281.303 16.36 282.191 16.672 282.815 17.296C283.487 17.872 283.823 18.784 283.823 20.032V38.536C283.823 41.368 284.399 43.456 285.551 44.8C286.703 46.144 288.527 46.816 291.023 46.816C293.759 46.816 295.967 45.904 297.647 44.08C299.375 42.208 300.239 39.76 300.239 36.736V20.032C300.239 18.784 300.551 17.872 301.175 17.296C301.799 16.672 302.711 16.36 303.911 16.36C305.063 16.36 305.951 16.672 306.575 17.296C307.199 17.872 307.511 18.784 307.511 20.032V48.832C307.511 51.28 306.335 52.504 303.983 52.504C302.879 52.504 302.015 52.192 301.391 51.568C300.767 50.896 300.455 49.984 300.455 48.832V42.712L301.391 44.296C300.431 46.984 298.895 49.048 296.783 50.488C294.671 51.928 292.175 52.648 289.295 52.648ZM323.231 52.504C322.031 52.504 321.119 52.192 320.495 51.568C319.871 50.896 319.559 49.984 319.559 48.832V20.032C319.559 18.832 319.871 17.92 320.495 17.296C321.119 16.672 321.983 16.36 323.087 16.36C324.239 16.36 325.103 16.672 325.679 17.296C326.303 17.92 326.615 18.832 326.615 20.032V25.288H325.895C326.663 22.408 328.079 20.224 330.143 18.736C332.207 17.248 334.847 16.384 338.063 16.144C338.927 16.096 339.599 16.312 340.079 16.792C340.607 17.272 340.895 18.016 340.943 19.024C341.039 20.032 340.823 20.848 340.295 21.472C339.767 22.048 338.951 22.384 337.847 22.48L336.479 22.624C333.359 22.912 330.983 23.896 329.351 25.576C327.719 27.256 326.903 29.56 326.903 32.488V48.832C326.903 49.984 326.591 50.896 325.967 51.568C325.391 52.192 324.479 52.504 323.231 52.504ZM372.603 52.504C371.451 52.504 370.563 52.192 369.939 51.568C369.315 50.896 369.003 49.984 369.003 48.832V20.032C369.003 18.832 369.315 17.92 369.939 17.296C370.563 16.672 371.427 16.36 372.531 16.36C373.683 16.36 374.547 16.672 375.123 17.296C375.747 17.92 376.059 18.832 376.059 20.032V25.648L375.267 24.352C376.323 21.664 377.979 19.648 380.235 18.304C382.491 16.912 385.083 16.216 388.011 16.216C390.795 16.216 393.099 16.744 394.923 17.8C396.795 18.808 398.187 20.368 399.099 22.48C400.011 24.544 400.467 27.16 400.467 30.328V48.832C400.467 49.984 400.155 50.896 399.531 51.568C398.907 52.192 398.019 52.504 396.867 52.504C395.667 52.504 394.755 52.192 394.131 51.568C393.507 50.896 393.195 49.984 393.195 48.832V30.76C393.195 27.736 392.595 25.528 391.395 24.136C390.243 22.744 388.419 22.048 385.923 22.048C382.995 22.048 380.643 22.96 378.867 24.784C377.139 26.608 376.275 29.056 376.275 32.128V48.832C376.275 51.28 375.051 52.504 372.603 52.504ZM428.775 52.648C424.935 52.648 421.623 51.928 418.839 50.488C416.103 49 413.967 46.912 412.431 44.224C410.943 41.488 410.199 38.248 410.199 34.504C410.199 30.856 410.943 27.664 412.431 24.928C413.919 22.192 415.959 20.056 418.551 18.52C421.143 16.984 424.095 16.216 427.407 16.216C429.855 16.216 432.039 16.624 433.959 17.44C435.879 18.208 437.511 19.36 438.855 20.896C440.247 22.384 441.279 24.208 441.951 26.368C442.671 28.528 443.031 30.952 443.031 33.64C443.031 34.456 442.791 35.08 442.311 35.512C441.831 35.896 441.111 36.088 440.151 36.088H415.959V31.624H438.135L436.911 32.632C436.911 30.232 436.551 28.192 435.831 26.512C435.159 24.832 434.127 23.56 432.735 22.696C431.391 21.784 429.711 21.328 427.695 21.328C425.439 21.328 423.519 21.856 421.935 22.912C420.399 23.968 419.223 25.432 418.407 27.304C417.591 29.176 417.183 31.36 417.183 33.856V34.288C417.183 38.512 418.167 41.704 420.135 43.864C422.151 45.976 425.055 47.032 428.847 47.032C430.287 47.032 431.799 46.84 433.383 46.456C435.015 46.072 436.551 45.424 437.991 44.512C438.807 44.032 439.527 43.816 440.151 43.864C440.823 43.912 441.351 44.128 441.735 44.512C442.167 44.896 442.431 45.376 442.527 45.952C442.623 46.528 442.527 47.128 442.239 47.752C441.951 48.328 441.447 48.856 440.727 49.336C439.095 50.44 437.199 51.28 435.039 51.856C432.879 52.384 430.791 52.648 428.775 52.648ZM465.083 52.504C464.075 52.504 463.187 52.264 462.419 51.784C461.699 51.256 461.123 50.44 460.691 49.336L450.107 21.328C449.723 20.368 449.603 19.528 449.747 18.808C449.891 18.04 450.251 17.44 450.827 17.008C451.451 16.576 452.243 16.36 453.203 16.36C454.067 16.36 454.763 16.576 455.291 17.008C455.867 17.392 456.347 18.16 456.731 19.312L466.163 45.88H464.435L474.227 19.024C474.563 18.112 475.019 17.44 475.595 17.008C476.171 16.576 476.915 16.36 477.827 16.36C478.739 16.36 479.483 16.576 480.059 17.008C480.683 17.44 481.139 18.112 481.427 19.024L491.003 45.88H489.419L498.995 19.168C499.379 18.064 499.859 17.32 500.435 16.936C501.059 16.552 501.755 16.36 502.523 16.36C503.483 16.36 504.203 16.6 504.683 17.08C505.211 17.56 505.499 18.184 505.547 18.952C505.643 19.672 505.523 20.464 505.187 21.328L494.603 49.336C494.171 50.392 493.571 51.184 492.803 51.712C492.083 52.24 491.243 52.504 490.283 52.504C489.275 52.504 488.387 52.24 487.619 51.712C486.899 51.184 486.323 50.392 485.891 49.336L475.811 22.048H479.411L469.403 49.336C469.019 50.392 468.443 51.184 467.675 51.712C466.955 52.24 466.091 52.504 465.083 52.504ZM551.222 52.648C547.622 52.648 544.502 51.904 541.862 50.416C539.27 48.88 537.254 46.744 535.814 44.008C534.374 41.224 533.654 37.96 533.654 34.216C533.654 31.432 534.062 28.936 534.878 26.728C535.694 24.472 536.846 22.576 538.334 21.04C539.87 19.504 541.718 18.328 543.878 17.512C546.086 16.648 548.534 16.216 551.222 16.216C552.902 16.216 554.654 16.48 556.478 17.008C558.35 17.488 560.078 18.304 561.662 19.456C562.286 19.84 562.67 20.32 562.814 20.896C563.006 21.424 563.03 21.976 562.886 22.552C562.79 23.128 562.526 23.632 562.094 24.064C561.71 24.448 561.23 24.688 560.654 24.784C560.078 24.832 559.454 24.664 558.782 24.28C557.63 23.464 556.454 22.888 555.254 22.552C554.054 22.168 552.902 21.976 551.798 21.976C550.07 21.976 548.534 22.264 547.19 22.84C545.894 23.368 544.79 24.16 543.878 25.216C542.966 26.224 542.27 27.496 541.79 29.032C541.358 30.568 541.142 32.32 541.142 34.288C541.142 38.224 542.054 41.32 543.878 43.576C545.75 45.784 548.39 46.888 551.798 46.888C552.902 46.888 554.054 46.72 555.254 46.384C556.454 46.048 557.63 45.472 558.782 44.656C559.454 44.272 560.078 44.128 560.654 44.224C561.23 44.32 561.686 44.584 562.022 45.016C562.406 45.4 562.646 45.88 562.742 46.456C562.886 46.984 562.862 47.536 562.67 48.112C562.478 48.688 562.07 49.168 561.446 49.552C559.91 50.656 558.23 51.448 556.406 51.928C554.63 52.408 552.902 52.648 551.222 52.648ZM585.712 52.648C582.16 52.648 579.088 51.904 576.496 50.416C573.952 48.928 571.96 46.816 570.52 44.08C569.08 41.344 568.36 38.128 568.36 34.432C568.36 31.6 568.768 29.08 569.584 26.872C570.4 24.664 571.552 22.768 573.04 21.184C574.576 19.552 576.4 18.328 578.512 17.512C580.672 16.648 583.072 16.216 585.712 16.216C589.216 16.216 592.24 16.96 594.784 18.448C597.376 19.936 599.392 22.048 600.832 24.784C602.272 27.472 602.992 30.688 602.992 34.432C602.992 37.216 602.584 39.736 601.768 41.992C600.952 44.248 599.776 46.168 598.24 47.752C596.752 49.336 594.928 50.56 592.768 51.424C590.656 52.24 588.304 52.648 585.712 52.648ZM585.712 47.032C587.68 47.032 589.408 46.552 590.896 45.592C592.384 44.632 593.536 43.216 594.352 41.344C595.216 39.472 595.648 37.168 595.648 34.432C595.648 30.304 594.736 27.184 592.912 25.072C591.088 22.96 588.688 21.904 585.712 21.904C583.696 21.904 581.944 22.384 580.456 23.344C578.968 24.256 577.792 25.648 576.928 27.52C576.112 29.392 575.704 31.696 575.704 34.432C575.704 38.512 576.616 41.632 578.44 43.792C580.264 45.952 582.688 47.032 585.712 47.032ZM616.703 52.504C615.551 52.504 614.663 52.192 614.039 51.568C613.415 50.896 613.103 49.984 613.103 48.832V20.032C613.103 18.832 613.415 17.92 614.039 17.296C614.663 16.672 615.527 16.36 616.631 16.36C617.783 16.36 618.647 16.672 619.223 17.296C619.847 17.92 620.159 18.832 620.159 20.032V25.936L619.367 24.352C620.327 21.808 621.815 19.816 623.831 18.376C625.847 16.936 628.271 16.216 631.103 16.216C634.031 16.216 636.407 16.912 638.231 18.304C640.055 19.696 641.303 21.832 641.975 24.712H640.967C641.879 22.072 643.439 20.008 645.647 18.52C647.855 16.984 650.423 16.216 653.351 16.216C656.039 16.216 658.247 16.744 659.975 17.8C661.703 18.808 662.999 20.368 663.863 22.48C664.727 24.544 665.159 27.16 665.159 30.328V48.832C665.159 49.984 664.823 50.896 664.151 51.568C663.527 52.192 662.639 52.504 661.487 52.504C660.335 52.504 659.447 52.192 658.823 51.568C658.199 50.896 657.887 49.984 657.887 48.832V30.688C657.887 27.712 657.359 25.528 656.303 24.136C655.295 22.744 653.615 22.048 651.263 22.048C648.623 22.048 646.535 22.96 644.999 24.784C643.463 26.608 642.695 29.128 642.695 32.344V48.832C642.695 49.984 642.383 50.896 641.759 51.568C641.135 52.192 640.247 52.504 639.095 52.504C637.943 52.504 637.031 52.192 636.359 51.568C635.735 50.896 635.423 49.984 635.423 48.832V30.688C635.423 27.712 634.919 25.528 633.911 24.136C632.903 22.744 631.223 22.048 628.871 22.048C626.231 22.048 624.143 22.96 622.607 24.784C621.119 26.608 620.375 29.128 620.375 32.344V48.832C620.375 51.28 619.151 52.504 616.703 52.504ZM680.726 65.464C679.574 65.464 678.686 65.152 678.062 64.528C677.438 63.904 677.126 62.992 677.126 61.792V20.032C677.126 18.832 677.438 17.92 678.062 17.296C678.686 16.672 679.55 16.36 680.654 16.36C681.806 16.36 682.694 16.672 683.318 17.296C683.942 17.92 684.254 18.832 684.254 20.032V26.296L683.462 24.784C684.23 22.192 685.742 20.128 687.998 18.592C690.254 17.008 692.918 16.216 695.99 16.216C699.11 16.216 701.822 16.96 704.126 18.448C706.478 19.936 708.278 22.024 709.526 24.712C710.822 27.4 711.47 30.64 711.47 34.432C711.47 38.128 710.822 41.368 709.526 44.152C708.278 46.888 706.502 49 704.198 50.488C701.894 51.928 699.158 52.648 695.99 52.648C692.966 52.648 690.326 51.88 688.07 50.344C685.814 48.808 684.302 46.768 683.534 44.224H684.398V61.792C684.398 62.992 684.062 63.904 683.39 64.528C682.766 65.152 681.878 65.464 680.726 65.464ZM694.19 47.032C696.206 47.032 697.958 46.552 699.446 45.592C700.934 44.632 702.086 43.216 702.902 41.344C703.718 39.472 704.126 37.168 704.126 34.432C704.126 30.304 703.214 27.184 701.39 25.072C699.614 22.96 697.214 21.904 694.19 21.904C692.222 21.904 690.47 22.384 688.934 23.344C687.446 24.256 686.294 25.648 685.478 27.52C684.662 29.392 684.254 31.696 684.254 34.432C684.254 38.512 685.166 41.632 686.99 43.792C688.814 45.952 691.214 47.032 694.19 47.032ZM732.697 52.648C730.249 52.648 728.041 52.168 726.073 51.208C724.153 50.248 722.641 48.952 721.537 47.32C720.433 45.688 719.881 43.84 719.881 41.776C719.881 39.184 720.529 37.144 721.825 35.656C723.169 34.12 725.353 33.04 728.377 32.416C731.449 31.744 735.577 31.408 740.761 31.408H744.145V35.872H740.833C737.377 35.872 734.641 36.04 732.625 36.376C730.609 36.712 729.169 37.288 728.305 38.104C727.489 38.872 727.081 39.952 727.081 41.344C727.081 43.168 727.705 44.656 728.953 45.808C730.201 46.912 731.929 47.464 734.137 47.464C735.913 47.464 737.473 47.056 738.817 46.24C740.161 45.376 741.217 44.224 741.985 42.784C742.801 41.344 743.209 39.688 743.209 37.816V29.536C743.209 26.8 742.633 24.832 741.481 23.632C740.329 22.432 738.433 21.832 735.793 21.832C734.257 21.832 732.649 22.024 730.969 22.408C729.337 22.792 727.633 23.44 725.857 24.352C725.041 24.736 724.345 24.856 723.769 24.712C723.193 24.568 722.737 24.256 722.401 23.776C722.065 23.248 721.873 22.696 721.825 22.12C721.825 21.496 721.969 20.896 722.257 20.32C722.593 19.744 723.145 19.312 723.913 19.024C726.025 18.016 728.113 17.296 730.177 16.864C732.241 16.432 734.185 16.216 736.009 16.216C739.225 16.216 741.865 16.72 743.929 17.728C746.041 18.736 747.601 20.272 748.609 22.336C749.617 24.4 750.121 27.064 750.121 30.328V48.832C750.121 49.984 749.833 50.896 749.257 51.568C748.681 52.192 747.841 52.504 746.737 52.504C745.681 52.504 744.841 52.192 744.217 51.568C743.593 50.896 743.281 49.984 743.281 48.832V44.152H743.929C743.545 45.928 742.825 47.464 741.769 48.76C740.761 50.008 739.489 50.968 737.953 51.64C736.417 52.312 734.665 52.648 732.697 52.648ZM765.537 52.504C764.385 52.504 763.497 52.192 762.873 51.568C762.249 50.896 761.937 49.984 761.937 48.832V20.032C761.937 18.832 762.249 17.92 762.873 17.296C763.497 16.672 764.361 16.36 765.465 16.36C766.617 16.36 767.481 16.672 768.057 17.296C768.681 17.92 768.993 18.832 768.993 20.032V25.648L768.201 24.352C769.257 21.664 770.913 19.648 773.169 18.304C775.425 16.912 778.017 16.216 780.945 16.216C783.729 16.216 786.033 16.744 787.857 17.8C789.729 18.808 791.121 20.368 792.033 22.48C792.945 24.544 793.401 27.16 793.401 30.328V48.832C793.401 49.984 793.089 50.896 792.465 51.568C791.841 52.192 790.953 52.504 789.801 52.504C788.601 52.504 787.689 52.192 787.065 51.568C786.441 50.896 786.129 49.984 786.129 48.832V30.76C786.129 27.736 785.529 25.528 784.329 24.136C783.177 22.744 781.353 22.048 778.857 22.048C775.929 22.048 773.577 22.96 771.801 24.784C770.073 26.608 769.209 29.056 769.209 32.128V48.832C769.209 51.28 767.985 52.504 765.537 52.504ZM808.821 52.432C807.669 52.432 806.781 52.096 806.157 51.424C805.533 50.704 805.221 49.72 805.221 48.472V20.392C805.221 19.144 805.533 18.184 806.157 17.512C806.781 16.84 807.669 16.504 808.821 16.504C809.973 16.504 810.861 16.84 811.485 17.512C812.157 18.184 812.493 19.144 812.493 20.392V48.472C812.493 49.72 812.181 50.704 811.557 51.424C810.933 52.096 810.021 52.432 808.821 52.432ZM808.821 9.016C807.381 9.016 806.253 8.656 805.437 7.936C804.669 7.216 804.285 6.208 804.285 4.912C804.285 3.568 804.669 2.56 805.437 1.888C806.253 1.168 807.381 0.807998 808.821 0.807998C810.261 0.807998 811.365 1.168 812.133 1.888C812.949 2.56 813.357 3.568 813.357 4.912C813.357 6.208 812.949 7.216 812.133 7.936C811.365 8.656 810.261 9.016 808.821 9.016ZM839.793 52.648C836.241 52.648 833.169 51.904 830.577 50.416C828.033 48.928 826.041 46.816 824.601 44.08C823.161 41.344 822.441 38.128 822.441 34.432C822.441 31.6 822.849 29.08 823.665 26.872C824.481 24.664 825.633 22.768 827.121 21.184C828.657 19.552 830.481 18.328 832.593 17.512C834.753 16.648 837.153 16.216 839.793 16.216C843.297 16.216 846.321 16.96 848.865 18.448C851.457 19.936 853.473 22.048 854.913 24.784C856.353 27.472 857.073 30.688 857.073 34.432C857.073 37.216 856.665 39.736 855.849 41.992C855.033 44.248 853.857 46.168 852.321 47.752C850.833 49.336 849.009 50.56 846.849 51.424C844.737 52.24 842.385 52.648 839.793 52.648ZM839.793 47.032C841.761 47.032 843.489 46.552 844.977 45.592C846.465 44.632 847.617 43.216 848.433 41.344C849.297 39.472 849.729 37.168 849.729 34.432C849.729 30.304 848.817 27.184 846.993 25.072C845.169 22.96 842.769 21.904 839.793 21.904C837.777 21.904 836.025 22.384 834.537 23.344C833.049 24.256 831.873 25.648 831.009 27.52C830.193 29.392 829.785 31.696 829.785 34.432C829.785 38.512 830.697 41.632 832.521 43.792C834.345 45.952 836.769 47.032 839.793 47.032ZM870.64 52.504C869.488 52.504 868.6 52.192 867.976 51.568C867.352 50.896 867.04 49.984 867.04 48.832V20.032C867.04 18.832 867.352 17.92 867.976 17.296C868.6 16.672 869.464 16.36 870.568 16.36C871.72 16.36 872.584 16.672 873.16 17.296C873.784 17.92 874.096 18.832 874.096 20.032V25.648L873.304 24.352C874.36 21.664 876.016 19.648 878.272 18.304C880.528 16.912 883.12 16.216 886.048 16.216C888.832 16.216 891.136 16.744 892.96 17.8C894.832 18.808 896.224 20.368 897.136 22.48C898.048 24.544 898.504 27.16 898.504 30.328V48.832C898.504 49.984 898.192 50.896 897.568 51.568C896.944 52.192 896.056 52.504 894.904 52.504C893.704 52.504 892.792 52.192 892.168 51.568C891.544 50.896 891.232 49.984 891.232 48.832V30.76C891.232 27.736 890.632 25.528 889.432 24.136C888.28 22.744 886.456 22.048 883.96 22.048C881.032 22.048 878.68 22.96 876.904 24.784C875.176 26.608 874.312 29.056 874.312 32.128V48.832C874.312 51.28 873.088 52.504 870.64 52.504ZM914.645 59.272C914.117 59.944 913.541 60.328 912.917 60.424C912.341 60.52 911.837 60.4 911.405 60.064C910.973 59.728 910.733 59.248 910.685 58.624C910.637 58.048 910.901 57.4 911.477 56.68C912.341 55.624 912.917 54.52 913.205 53.368C913.541 52.264 913.709 51.28 913.709 50.416L913.997 52.288C912.557 52.288 911.381 51.88 910.469 51.064C909.605 50.2 909.173 49.072 909.173 47.68C909.173 46.336 909.581 45.256 910.397 44.44C911.213 43.576 912.317 43.144 913.709 43.144C915.149 43.144 916.277 43.648 917.093 44.656C917.957 45.616 918.389 47.008 918.389 48.832C918.389 49.888 918.269 50.992 918.029 52.144C917.837 53.296 917.477 54.472 916.949 55.672C916.421 56.872 915.653 58.072 914.645 59.272ZM964.971 52.648C962.091 52.648 959.667 52.144 957.699 51.136C955.731 50.128 954.267 48.64 953.307 46.672C952.347 44.704 951.867 42.304 951.867 39.472V22.48H947.547C946.587 22.48 945.843 22.24 945.315 21.76C944.787 21.232 944.523 20.536 944.523 19.672C944.523 18.76 944.787 18.064 945.315 17.584C945.843 17.104 946.587 16.864 947.547 16.864H951.867V9.448C951.867 8.248 952.179 7.336 952.803 6.712C953.475 6.088 954.387 5.776 955.539 5.776C956.691 5.776 957.579 6.088 958.203 6.712C958.827 7.336 959.139 8.248 959.139 9.448V16.864H967.563C968.523 16.864 969.267 17.104 969.795 17.584C970.323 18.064 970.587 18.76 970.587 19.672C970.587 20.536 970.323 21.232 969.795 21.76C969.267 22.24 968.523 22.48 967.563 22.48H959.139V38.896C959.139 41.44 959.667 43.36 960.723 44.656C961.827 45.952 963.603 46.6 966.051 46.6C966.915 46.6 967.659 46.528 968.283 46.384C968.955 46.192 969.507 46.072 969.939 46.024C970.467 46.024 970.899 46.216 971.235 46.6C971.571 46.936 971.739 47.608 971.739 48.616C971.739 49.336 971.595 50.008 971.307 50.632C971.067 51.256 970.611 51.664 969.939 51.856C969.363 52.048 968.571 52.216 967.563 52.36C966.603 52.552 965.739 52.648 964.971 52.648ZM982.324 52.504C981.172 52.504 980.284 52.192 979.66 51.568C979.036 50.896 978.724 49.984 978.724 48.832V4.408C978.724 3.208 979.036 2.296 979.66 1.672C980.284 1.048 981.172 0.735999 982.324 0.735999C983.476 0.735999 984.364 1.048 984.988 1.672C985.66 2.296 985.996 3.208 985.996 4.408V24.352H984.988C986.044 21.664 987.7 19.648 989.956 18.304C992.212 16.912 994.804 16.216 997.732 16.216C1000.52 16.216 1002.82 16.744 1004.64 17.8C1006.52 18.808 1007.91 20.368 1008.82 22.48C1009.73 24.544 1010.19 27.16 1010.19 30.328V48.832C1010.19 49.984 1009.88 50.896 1009.25 51.568C1008.63 52.192 1007.74 52.504 1006.59 52.504C1005.39 52.504 1004.48 52.192 1003.85 51.568C1003.23 50.896 1002.92 49.984 1002.92 48.832V30.76C1002.92 27.736 1002.32 25.528 1001.12 24.136C999.964 22.744 998.14 22.048 995.644 22.048C992.716 22.048 990.364 22.96 988.588 24.784C986.86 26.608 985.996 29.056 985.996 32.128V48.832C985.996 51.28 984.772 52.504 982.324 52.504ZM1038.5 52.648C1034.66 52.648 1031.34 51.928 1028.56 50.488C1025.82 49 1023.69 46.912 1022.15 44.224C1020.66 41.488 1019.92 38.248 1019.92 34.504C1019.92 30.856 1020.66 27.664 1022.15 24.928C1023.64 22.192 1025.68 20.056 1028.27 18.52C1030.86 16.984 1033.82 16.216 1037.13 16.216C1039.58 16.216 1041.76 16.624 1043.68 17.44C1045.6 18.208 1047.23 19.36 1048.58 20.896C1049.97 22.384 1051 24.208 1051.67 26.368C1052.39 28.528 1052.75 30.952 1052.75 33.64C1052.75 34.456 1052.51 35.08 1052.03 35.512C1051.55 35.896 1050.83 36.088 1049.87 36.088H1025.68V31.624H1047.86L1046.63 32.632C1046.63 30.232 1046.27 28.192 1045.55 26.512C1044.88 24.832 1043.85 23.56 1042.46 22.696C1041.11 21.784 1039.43 21.328 1037.42 21.328C1035.16 21.328 1033.24 21.856 1031.66 22.912C1030.12 23.968 1028.94 25.432 1028.13 27.304C1027.31 29.176 1026.9 31.36 1026.9 33.856V34.288C1026.9 38.512 1027.89 41.704 1029.86 43.864C1031.87 45.976 1034.78 47.032 1038.57 47.032C1040.01 47.032 1041.52 46.84 1043.1 46.456C1044.74 46.072 1046.27 45.424 1047.71 44.512C1048.53 44.032 1049.25 43.816 1049.87 43.864C1050.54 43.912 1051.07 44.128 1051.46 44.512C1051.89 44.896 1052.15 45.376 1052.25 45.952C1052.34 46.528 1052.25 47.128 1051.96 47.752C1051.67 48.328 1051.17 48.856 1050.45 49.336C1048.82 50.44 1046.92 51.28 1044.76 51.856C1042.6 52.384 1040.51 52.648 1038.5 52.648ZM1087.66 52.504C1086.55 52.504 1085.69 52.192 1085.07 51.568C1084.49 50.944 1084.2 50.08 1084.2 48.976V4.264C1084.2 3.112 1084.51 2.248 1085.14 1.672C1085.76 1.048 1086.6 0.735999 1087.66 0.735999C1088.67 0.735999 1089.43 0.927998 1089.96 1.312C1090.54 1.648 1091.07 2.272 1091.55 3.184L1110.41 38.392H1108.18L1126.97 3.184C1127.45 2.272 1127.95 1.648 1128.48 1.312C1129.01 0.927998 1129.78 0.735999 1130.79 0.735999C1131.84 0.735999 1132.66 1.048 1133.23 1.672C1133.81 2.248 1134.1 3.112 1134.1 4.264V48.976C1134.1 50.08 1133.81 50.944 1133.23 51.568C1132.71 52.192 1131.89 52.504 1130.79 52.504C1129.68 52.504 1128.84 52.192 1128.27 51.568C1127.69 50.944 1127.4 50.08 1127.4 48.976V11.824H1128.99L1112.28 42.712C1111.9 43.432 1111.49 43.96 1111.06 44.296C1110.63 44.632 1110.03 44.8 1109.26 44.8C1108.49 44.8 1107.87 44.632 1107.39 44.296C1106.91 43.912 1106.47 43.384 1106.09 42.712L1089.24 11.752H1090.97V48.976C1090.97 50.08 1090.68 50.944 1090.11 51.568C1089.58 52.192 1088.76 52.504 1087.66 52.504ZM1151.9 52C1150.61 52 1149.6 51.664 1148.88 50.992C1148.21 50.272 1147.87 49.264 1147.87 47.968V5.272C1147.87 3.976 1148.21 2.992 1148.88 2.32C1149.6 1.6 1150.61 1.24 1151.9 1.24H1178.18C1179.19 1.24 1179.96 1.504 1180.49 2.032C1181.02 2.512 1181.28 3.232 1181.28 4.192C1181.28 5.2 1181.02 5.968 1180.49 6.496C1179.96 7.024 1179.19 7.288 1178.18 7.288H1155.07V23.2H1176.6C1177.66 23.2 1178.42 23.464 1178.9 23.992C1179.43 24.52 1179.7 25.264 1179.7 26.224C1179.7 27.232 1179.43 28 1178.9 28.528C1178.42 29.008 1177.66 29.248 1176.6 29.248H1155.07V45.952H1178.18C1179.19 45.952 1179.96 46.216 1180.49 46.744C1181.02 47.272 1181.28 48.016 1181.28 48.976C1181.28 49.984 1181.02 50.752 1180.49 51.28C1179.96 51.76 1179.19 52 1178.18 52H1151.9ZM1195.67 52.504C1194.57 52.504 1193.7 52.192 1193.08 51.568C1192.5 50.944 1192.22 50.08 1192.22 48.976V4.264C1192.22 3.112 1192.53 2.248 1193.15 1.672C1193.78 1.048 1194.62 0.735999 1195.67 0.735999C1196.68 0.735999 1197.45 0.927998 1197.98 1.312C1198.55 1.648 1199.08 2.272 1199.56 3.184L1218.42 38.392H1216.19L1234.98 3.184C1235.46 2.272 1235.97 1.648 1236.5 1.312C1237.02 0.927998 1237.79 0.735999 1238.8 0.735999C1239.86 0.735999 1240.67 1.048 1241.25 1.672C1241.82 2.248 1242.11 3.112 1242.11 4.264V48.976C1242.11 50.08 1241.82 50.944 1241.25 51.568C1240.72 52.192 1239.9 52.504 1238.8 52.504C1237.7 52.504 1236.86 52.192 1236.28 51.568C1235.7 50.944 1235.42 50.08 1235.42 48.976V11.824H1237L1220.3 42.712C1219.91 43.432 1219.5 43.96 1219.07 44.296C1218.64 44.632 1218.04 44.8 1217.27 44.8C1216.5 44.8 1215.88 44.632 1215.4 44.296C1214.92 43.912 1214.49 43.384 1214.1 42.712L1197.26 11.752H1198.98V48.976C1198.98 50.08 1198.7 50.944 1198.12 51.568C1197.59 52.192 1196.78 52.504 1195.67 52.504ZM1259.92 52C1258.62 52 1257.61 51.664 1256.89 50.992C1256.22 50.272 1255.89 49.264 1255.89 47.968V5.272C1255.89 3.976 1256.22 2.992 1256.89 2.32C1257.61 1.6 1258.62 1.24 1259.92 1.24H1286.2C1287.21 1.24 1287.97 1.504 1288.5 2.032C1289.03 2.512 1289.29 3.232 1289.29 4.192C1289.29 5.2 1289.03 5.968 1288.5 6.496C1287.97 7.024 1287.21 7.288 1286.2 7.288H1263.09V23.2H1284.61C1285.67 23.2 1286.44 23.464 1286.92 23.992C1287.45 24.52 1287.71 25.264 1287.71 26.224C1287.71 27.232 1287.45 28 1286.92 28.528C1286.44 29.008 1285.67 29.248 1284.61 29.248H1263.09V45.952H1286.2C1287.21 45.952 1287.97 46.216 1288.5 46.744C1289.03 47.272 1289.29 48.016 1289.29 48.976C1289.29 49.984 1289.03 50.752 1288.5 51.28C1287.97 51.76 1287.21 52 1286.2 52H1259.92ZM1298.81 52.504C1297.85 52.504 1297.08 52.288 1296.51 51.856C1295.93 51.424 1295.6 50.848 1295.5 50.128C1295.4 49.408 1295.55 48.592 1295.93 47.68L1315.44 3.904C1315.92 2.752 1316.52 1.936 1317.24 1.456C1318.01 0.975999 1318.85 0.735999 1319.76 0.735999C1320.63 0.735999 1321.42 0.975999 1322.14 1.456C1322.91 1.936 1323.53 2.752 1324.01 3.904L1343.52 47.68C1343.96 48.592 1344.12 49.432 1344.03 50.2C1343.93 50.92 1343.62 51.496 1343.09 51.928C1342.56 52.312 1341.82 52.504 1340.86 52.504C1339.8 52.504 1338.96 52.24 1338.34 51.712C1337.72 51.184 1337.16 50.368 1336.68 49.264L1331.64 37.6L1335.03 39.616H1304.36L1307.67 37.6L1302.7 49.264C1302.22 50.416 1301.69 51.256 1301.12 51.784C1300.54 52.264 1299.77 52.504 1298.81 52.504ZM1319.62 9.52L1308.75 35.296L1306.95 33.568H1332.36L1330.71 35.296L1319.76 9.52H1319.62ZM1376.69 52.648C1371.17 52.648 1366.52 51.616 1362.72 49.552C1358.93 47.44 1356.05 44.44 1354.08 40.552C1352.16 36.664 1351.2 32.032 1351.2 26.656C1351.2 22.624 1351.76 19.024 1352.86 15.856C1354.01 12.64 1355.64 9.904 1357.76 7.648C1359.92 5.344 1362.53 3.592 1365.6 2.392C1368.72 1.192 1372.25 0.591997 1376.19 0.591997C1379.07 0.591997 1381.9 0.975997 1384.68 1.744C1387.47 2.464 1390.01 3.664 1392.32 5.344C1392.99 5.824 1393.42 6.376 1393.61 7C1393.8 7.624 1393.8 8.272 1393.61 8.944C1393.47 9.568 1393.16 10.12 1392.68 10.6C1392.24 11.08 1391.69 11.368 1391.02 11.464C1390.4 11.56 1389.7 11.368 1388.93 10.888C1387.06 9.592 1385.09 8.656 1383.03 8.08C1380.96 7.456 1378.68 7.144 1376.19 7.144C1372.44 7.144 1369.28 7.912 1366.68 9.448C1364.14 10.984 1362.22 13.216 1360.92 16.144C1359.63 19.024 1358.98 22.528 1358.98 26.656C1358.98 33.04 1360.49 37.888 1363.52 41.2C1366.54 44.512 1371.03 46.168 1376.98 46.168C1379.14 46.168 1381.25 45.976 1383.32 45.592C1385.43 45.16 1387.44 44.56 1389.36 43.792L1387.85 47.536V30.76H1378.56C1377.6 30.76 1376.84 30.52 1376.26 30.04C1375.73 29.512 1375.47 28.792 1375.47 27.88C1375.47 26.968 1375.73 26.296 1376.26 25.864C1376.84 25.384 1377.6 25.144 1378.56 25.144H1391.02C1392.03 25.144 1392.8 25.408 1393.32 25.936C1393.85 26.464 1394.12 27.232 1394.12 28.24V46.384C1394.12 47.248 1393.95 47.992 1393.61 48.616C1393.32 49.192 1392.82 49.624 1392.1 49.912C1390.04 50.728 1387.61 51.4 1384.83 51.928C1382.04 52.408 1379.33 52.648 1376.69 52.648ZM1429.43 52.648C1424.63 52.648 1420.43 51.592 1416.83 49.48C1413.28 47.32 1410.52 44.296 1408.55 40.408C1406.63 36.472 1405.67 31.864 1405.67 26.584C1405.67 22.6 1406.22 19.024 1407.32 15.856C1408.43 12.64 1410.01 9.904 1412.08 7.648C1414.14 5.344 1416.64 3.592 1419.56 2.392C1422.49 1.192 1425.78 0.591997 1429.43 0.591997C1434.28 0.591997 1438.48 1.648 1442.03 3.76C1445.58 5.872 1448.32 8.872 1450.24 12.76C1452.2 16.648 1453.19 21.232 1453.19 26.512C1453.19 30.496 1452.64 34.096 1451.53 37.312C1450.43 40.528 1448.82 43.288 1446.71 45.592C1444.64 47.896 1442.15 49.648 1439.22 50.848C1436.29 52.048 1433.03 52.648 1429.43 52.648ZM1429.43 46.168C1432.79 46.168 1435.64 45.4 1438 43.864C1440.4 42.328 1442.22 40.096 1443.47 37.168C1444.76 34.24 1445.41 30.712 1445.41 26.584C1445.41 20.392 1444.02 15.592 1441.24 12.184C1438.45 8.776 1434.52 7.072 1429.43 7.072C1426.07 7.072 1423.19 7.84 1420.79 9.376C1418.44 10.864 1416.61 13.072 1415.32 16C1414.07 18.928 1413.44 22.456 1413.44 26.584C1413.44 32.728 1414.84 37.528 1417.62 40.984C1420.45 44.44 1424.39 46.168 1429.43 46.168ZM1477.99 52.504C1476.79 52.504 1475.85 52.168 1475.18 51.496C1474.56 50.824 1474.24 49.888 1474.24 48.688V7.504H1458.98C1457.97 7.504 1457.18 7.24 1456.6 6.712C1456.03 6.136 1455.74 5.344 1455.74 4.336C1455.74 3.328 1456.03 2.56 1456.6 2.032C1457.18 1.504 1457.97 1.24 1458.98 1.24H1496.92C1497.98 1.24 1498.8 1.504 1499.37 2.032C1499.95 2.56 1500.24 3.328 1500.24 4.336C1500.24 5.344 1499.95 6.136 1499.37 6.712C1498.8 7.24 1497.98 7.504 1496.92 7.504H1481.66V48.688C1481.66 49.888 1481.35 50.824 1480.72 51.496C1480.15 52.168 1479.24 52.504 1477.99 52.504ZM1527.26 52.648C1522.13 52.648 1517.74 51.592 1514.09 49.48C1510.44 47.368 1507.63 44.368 1505.66 40.48C1503.74 36.544 1502.78 31.912 1502.78 26.584C1502.78 22.6 1503.34 19.024 1504.44 15.856C1505.54 12.64 1507.13 9.904 1509.19 7.648C1511.3 5.344 1513.87 3.592 1516.9 2.392C1519.97 1.192 1523.42 0.591997 1527.26 0.591997C1530.1 0.591997 1532.81 0.975997 1535.4 1.744C1538.04 2.512 1540.32 3.616 1542.24 5.056C1543.06 5.584 1543.58 6.232 1543.82 7C1544.11 7.72 1544.16 8.416 1543.97 9.088C1543.82 9.76 1543.51 10.336 1543.03 10.816C1542.55 11.248 1541.93 11.488 1541.16 11.536C1540.44 11.584 1539.65 11.32 1538.78 10.744C1537.2 9.544 1535.45 8.656 1533.53 8.08C1531.61 7.504 1529.59 7.216 1527.48 7.216C1523.83 7.216 1520.76 7.984 1518.26 9.52C1515.77 11.008 1513.87 13.192 1512.58 16.072C1511.28 18.952 1510.63 22.456 1510.63 26.584C1510.63 30.712 1511.28 34.24 1512.58 37.168C1513.87 40.048 1515.77 42.256 1518.26 43.792C1520.76 45.28 1523.83 46.024 1527.48 46.024C1529.59 46.024 1531.61 45.736 1533.53 45.16C1535.5 44.536 1537.34 43.624 1539.07 42.424C1539.94 41.896 1540.7 41.656 1541.38 41.704C1542.1 41.752 1542.7 41.992 1543.18 42.424C1543.66 42.856 1543.97 43.408 1544.11 44.08C1544.3 44.704 1544.28 45.376 1544.04 46.096C1543.85 46.768 1543.39 47.344 1542.67 47.824C1540.7 49.408 1538.38 50.608 1535.69 51.424C1533 52.24 1530.19 52.648 1527.26 52.648ZM1558.71 52.504C1557.51 52.504 1556.58 52.168 1555.9 51.496C1555.28 50.824 1554.97 49.888 1554.97 48.688V4.552C1554.97 3.304 1555.28 2.368 1555.9 1.744C1556.58 1.072 1557.51 0.735999 1558.71 0.735999C1559.91 0.735999 1560.82 1.072 1561.45 1.744C1562.12 2.368 1562.46 3.304 1562.46 4.552V23.128H1590.9V4.552C1590.9 3.304 1591.21 2.368 1591.83 1.744C1592.5 1.072 1593.44 0.735999 1594.64 0.735999C1595.84 0.735999 1596.75 1.072 1597.38 1.744C1598 2.368 1598.31 3.304 1598.31 4.552V48.688C1598.31 49.888 1598 50.824 1597.38 51.496C1596.75 52.168 1595.84 52.504 1594.64 52.504C1593.44 52.504 1592.5 52.168 1591.83 51.496C1591.21 50.824 1590.9 49.888 1590.9 48.688V29.392H1562.46V48.688C1562.46 49.888 1562.14 50.824 1561.52 51.496C1560.9 52.168 1559.96 52.504 1558.71 52.504ZM1615.71 52.504C1614.51 52.504 1613.57 52.168 1612.9 51.496C1612.28 50.824 1611.96 49.888 1611.96 48.688V4.552C1611.96 3.304 1612.28 2.368 1612.9 1.744C1613.57 1.072 1614.51 0.735999 1615.71 0.735999C1616.91 0.735999 1617.82 1.072 1618.44 1.744C1619.12 2.368 1619.45 3.304 1619.45 4.552V48.688C1619.45 49.888 1619.14 50.824 1618.52 51.496C1617.89 52.168 1616.96 52.504 1615.71 52.504ZM1635.77 38.32C1635 38.32 1634.4 38.08 1633.97 37.6C1633.58 37.12 1633.34 36.448 1633.25 35.584L1631.52 5.488C1631.42 4.048 1631.73 2.896 1632.45 2.032C1633.17 1.168 1634.28 0.735999 1635.77 0.735999C1637.16 0.735999 1638.21 1.168 1638.93 2.032C1639.65 2.896 1639.94 4.048 1639.8 5.488L1638.07 35.584C1638.02 36.448 1637.78 37.12 1637.35 37.6C1636.97 38.08 1636.44 38.32 1635.77 38.32ZM1635.77 52.288C1634.37 52.288 1633.25 51.856 1632.38 50.992C1631.52 50.128 1631.09 49.024 1631.09 47.68C1631.09 46.336 1631.52 45.256 1632.38 44.44C1633.25 43.576 1634.37 43.144 1635.77 43.144C1637.16 43.144 1638.26 43.576 1639.08 44.44C1639.89 45.256 1640.3 46.336 1640.3 47.68C1640.3 49.024 1639.89 50.128 1639.08 50.992C1638.26 51.856 1637.16 52.288 1635.77 52.288ZM1676.44 52.504C1675.24 52.504 1674.31 52.168 1673.64 51.496C1673.01 50.824 1672.7 49.888 1672.7 48.688V4.48C1672.7 3.232 1673.01 2.296 1673.64 1.672C1674.31 1.048 1675.24 0.735999 1676.44 0.735999C1677.64 0.735999 1678.56 1.048 1679.18 1.672C1679.85 2.296 1680.19 3.232 1680.19 4.48V24.064H1680.33L1702.44 2.68C1703.16 2.008 1703.83 1.528 1704.45 1.24C1705.12 0.903998 1705.87 0.735999 1706.68 0.735999C1707.79 0.735999 1708.58 1.024 1709.06 1.6C1709.59 2.128 1709.8 2.776 1709.71 3.544C1709.61 4.312 1709.2 5.056 1708.48 5.776L1685.52 27.664L1685.66 23.992L1709.56 47.032C1710.43 47.848 1710.88 48.688 1710.93 49.552C1710.98 50.416 1710.72 51.136 1710.14 51.712C1709.56 52.24 1708.75 52.504 1707.69 52.504C1706.73 52.504 1705.96 52.312 1705.39 51.928C1704.81 51.544 1704.14 50.992 1703.37 50.272L1680.33 28.312H1680.19V48.688C1680.19 49.888 1679.88 50.824 1679.25 51.496C1678.63 52.168 1677.69 52.504 1676.44 52.504ZM1735.62 52.648C1731.78 52.648 1728.47 51.928 1725.68 50.488C1722.95 49 1720.81 46.912 1719.27 44.224C1717.79 41.488 1717.04 38.248 1717.04 34.504C1717.04 30.856 1717.79 27.664 1719.27 24.928C1720.76 22.192 1722.8 20.056 1725.39 18.52C1727.99 16.984 1730.94 16.216 1734.25 16.216C1736.7 16.216 1738.88 16.624 1740.8 17.44C1742.72 18.208 1744.35 19.36 1745.7 20.896C1747.09 22.384 1748.12 24.208 1748.79 26.368C1749.51 28.528 1749.87 30.952 1749.87 33.64C1749.87 34.456 1749.63 35.08 1749.15 35.512C1748.67 35.896 1747.95 36.088 1746.99 36.088H1722.8V31.624H1744.98L1743.75 32.632C1743.75 30.232 1743.39 28.192 1742.67 26.512C1742 24.832 1740.97 23.56 1739.58 22.696C1738.23 21.784 1736.55 21.328 1734.54 21.328C1732.28 21.328 1730.36 21.856 1728.78 22.912C1727.24 23.968 1726.07 25.432 1725.25 27.304C1724.43 29.176 1724.03 31.36 1724.03 33.856V34.288C1724.03 38.512 1725.01 41.704 1726.98 43.864C1728.99 45.976 1731.9 47.032 1735.69 47.032C1737.13 47.032 1738.64 46.84 1740.23 46.456C1741.86 46.072 1743.39 45.424 1744.83 44.512C1745.65 44.032 1746.37 43.816 1746.99 43.864C1747.67 43.912 1748.19 44.128 1748.58 44.512C1749.01 44.896 1749.27 45.376 1749.37 45.952C1749.47 46.528 1749.37 47.128 1749.08 47.752C1748.79 48.328 1748.29 48.856 1747.57 49.336C1745.94 50.44 1744.04 51.28 1741.88 51.856C1739.72 52.384 1737.63 52.648 1735.62 52.648ZM1776.09 52.648C1772.25 52.648 1768.94 51.928 1766.15 50.488C1763.42 49 1761.28 46.912 1759.75 44.224C1758.26 41.488 1757.51 38.248 1757.51 34.504C1757.51 30.856 1758.26 27.664 1759.75 24.928C1761.23 22.192 1763.27 20.056 1765.87 18.52C1768.46 16.984 1771.41 16.216 1774.72 16.216C1777.17 16.216 1779.35 16.624 1781.27 17.44C1783.19 18.208 1784.83 19.36 1786.17 20.896C1787.56 22.384 1788.59 24.208 1789.27 26.368C1789.99 28.528 1790.35 30.952 1790.35 33.64C1790.35 34.456 1790.11 35.08 1789.63 35.512C1789.15 35.896 1788.43 36.088 1787.47 36.088H1763.27V31.624H1785.45L1784.23 32.632C1784.23 30.232 1783.87 28.192 1783.15 26.512C1782.47 24.832 1781.44 23.56 1780.05 22.696C1778.71 21.784 1777.03 21.328 1775.01 21.328C1772.75 21.328 1770.83 21.856 1769.25 22.912C1767.71 23.968 1766.54 25.432 1765.72 27.304C1764.91 29.176 1764.5 31.36 1764.5 33.856V34.288C1764.5 38.512 1765.48 41.704 1767.45 43.864C1769.47 45.976 1772.37 47.032 1776.16 47.032C1777.6 47.032 1779.11 46.84 1780.7 46.456C1782.33 46.072 1783.87 45.424 1785.31 44.512C1786.12 44.032 1786.84 43.816 1787.47 43.864C1788.14 43.912 1788.67 44.128 1789.05 44.512C1789.48 44.896 1789.75 45.376 1789.84 45.952C1789.94 46.528 1789.84 47.128 1789.55 47.752C1789.27 48.328 1788.76 48.856 1788.04 49.336C1786.41 50.44 1784.51 51.28 1782.35 51.856C1780.19 52.384 1778.11 52.648 1776.09 52.648ZM1803.67 65.464C1802.52 65.464 1801.63 65.152 1801.01 64.528C1800.38 63.904 1800.07 62.992 1800.07 61.792V20.032C1800.07 18.832 1800.38 17.92 1801.01 17.296C1801.63 16.672 1802.5 16.36 1803.6 16.36C1804.75 16.36 1805.64 16.672 1806.26 17.296C1806.89 17.92 1807.2 18.832 1807.2 20.032V26.296L1806.41 24.784C1807.18 22.192 1808.69 20.128 1810.94 18.592C1813.2 17.008 1815.86 16.216 1818.94 16.216C1822.06 16.216 1824.77 16.96 1827.07 18.448C1829.42 19.936 1831.22 22.024 1832.47 24.712C1833.77 27.4 1834.42 30.64 1834.42 34.432C1834.42 38.128 1833.77 41.368 1832.47 44.152C1831.22 46.888 1829.45 49 1827.14 50.488C1824.84 51.928 1822.1 52.648 1818.94 52.648C1815.91 52.648 1813.27 51.88 1811.02 50.344C1808.76 48.808 1807.25 46.768 1806.48 44.224H1807.34V61.792C1807.34 62.992 1807.01 63.904 1806.34 64.528C1805.71 65.152 1804.82 65.464 1803.67 65.464ZM1817.14 47.032C1819.15 47.032 1820.9 46.552 1822.39 45.592C1823.88 44.632 1825.03 43.216 1825.85 41.344C1826.66 39.472 1827.07 37.168 1827.07 34.432C1827.07 30.304 1826.16 27.184 1824.34 25.072C1822.56 22.96 1820.16 21.904 1817.14 21.904C1815.17 21.904 1813.42 22.384 1811.88 23.344C1810.39 24.256 1809.24 25.648 1808.42 27.52C1807.61 29.392 1807.2 31.696 1807.2 34.432C1807.2 38.512 1808.11 41.632 1809.94 43.792C1811.76 45.952 1814.16 47.032 1817.14 47.032ZM1868.8 52.432C1867.64 52.432 1866.76 52.096 1866.13 51.424C1865.51 50.704 1865.2 49.72 1865.2 48.472V20.392C1865.2 19.144 1865.51 18.184 1866.13 17.512C1866.76 16.84 1867.64 16.504 1868.8 16.504C1869.95 16.504 1870.84 16.84 1871.46 17.512C1872.13 18.184 1872.47 19.144 1872.47 20.392V48.472C1872.47 49.72 1872.16 50.704 1871.53 51.424C1870.91 52.096 1870 52.432 1868.8 52.432ZM1868.8 9.016C1867.36 9.016 1866.23 8.656 1865.41 7.936C1864.64 7.216 1864.26 6.208 1864.26 4.912C1864.26 3.568 1864.64 2.56 1865.41 1.888C1866.23 1.168 1867.36 0.807998 1868.8 0.807998C1870.24 0.807998 1871.34 1.168 1872.11 1.888C1872.92 2.56 1873.33 3.568 1873.33 4.912C1873.33 6.208 1872.92 7.216 1872.11 7.936C1871.34 8.656 1870.24 9.016 1868.8 9.016ZM1899.48 52.648C1896.6 52.648 1894.18 52.144 1892.21 51.136C1890.24 50.128 1888.78 48.64 1887.82 46.672C1886.86 44.704 1886.38 42.304 1886.38 39.472V22.48H1882.06C1881.1 22.48 1880.35 22.24 1879.82 21.76C1879.3 21.232 1879.03 20.536 1879.03 19.672C1879.03 18.76 1879.3 18.064 1879.82 17.584C1880.35 17.104 1881.1 16.864 1882.06 16.864H1886.38V9.448C1886.38 8.248 1886.69 7.336 1887.31 6.712C1887.98 6.088 1888.9 5.776 1890.05 5.776C1891.2 5.776 1892.09 6.088 1892.71 6.712C1893.34 7.336 1893.65 8.248 1893.65 9.448V16.864H1902.07C1903.03 16.864 1903.78 17.104 1904.3 17.584C1904.83 18.064 1905.1 18.76 1905.1 19.672C1905.1 20.536 1904.83 21.232 1904.3 21.76C1903.78 22.24 1903.03 22.48 1902.07 22.48H1893.65V38.896C1893.65 41.44 1894.18 43.36 1895.23 44.656C1896.34 45.952 1898.11 46.6 1900.56 46.6C1901.42 46.6 1902.17 46.528 1902.79 46.384C1903.46 46.192 1904.02 46.072 1904.45 46.024C1904.98 46.024 1905.41 46.216 1905.74 46.6C1906.08 46.936 1906.25 47.608 1906.25 48.616C1906.25 49.336 1906.1 50.008 1905.82 50.632C1905.58 51.256 1905.12 51.664 1904.45 51.856C1903.87 52.048 1903.08 52.216 1902.07 52.36C1901.11 52.552 1900.25 52.648 1899.48 52.648ZM1939.15 52.504C1937.99 52.504 1937.08 52.192 1936.41 51.568C1935.79 50.896 1935.47 49.984 1935.47 48.832V22.48H1931.44C1930.53 22.48 1929.81 22.24 1929.28 21.76C1928.75 21.232 1928.49 20.536 1928.49 19.672C1928.49 18.76 1928.75 18.064 1929.28 17.584C1929.81 17.104 1930.53 16.864 1931.44 16.864H1937.56L1935.47 18.808V16.216C1935.47 11.464 1936.65 7.888 1939 5.488C1941.35 3.04 1944.79 1.6 1949.3 1.168L1951.53 1.024C1952.35 0.927998 1952.99 1.048 1953.47 1.384C1953.95 1.72 1954.27 2.152 1954.41 2.68C1954.55 3.208 1954.55 3.76 1954.41 4.336C1954.31 4.864 1954.07 5.344 1953.69 5.776C1953.31 6.208 1952.83 6.448 1952.25 6.496L1950.88 6.568C1948.05 6.808 1945.99 7.624 1944.69 9.016C1943.39 10.36 1942.75 12.424 1942.75 15.208V18.016L1941.74 16.864H1949.73C1950.74 16.864 1951.48 17.104 1951.96 17.584C1952.49 18.064 1952.75 18.76 1952.75 19.672C1952.75 20.536 1952.49 21.232 1951.96 21.76C1951.48 22.24 1950.74 22.48 1949.73 22.48H1942.75V48.832C1942.75 51.28 1941.55 52.504 1939.15 52.504ZM1975.65 52.648C1971.81 52.648 1968.5 51.928 1965.71 50.488C1962.98 49 1960.84 46.912 1959.31 44.224C1957.82 41.488 1957.07 38.248 1957.07 34.504C1957.07 30.856 1957.82 27.664 1959.31 24.928C1960.79 22.192 1962.83 20.056 1965.43 18.52C1968.02 16.984 1970.97 16.216 1974.28 16.216C1976.73 16.216 1978.91 16.624 1980.83 17.44C1982.75 18.208 1984.39 19.36 1985.73 20.896C1987.12 22.384 1988.15 24.208 1988.83 26.368C1989.55 28.528 1989.91 30.952 1989.91 33.64C1989.91 34.456 1989.67 35.08 1989.19 35.512C1988.71 35.896 1987.99 36.088 1987.03 36.088H1962.83V31.624H1985.01L1983.79 32.632C1983.79 30.232 1983.43 28.192 1982.71 26.512C1982.03 24.832 1981 23.56 1979.61 22.696C1978.27 21.784 1976.59 21.328 1974.57 21.328C1972.31 21.328 1970.39 21.856 1968.81 22.912C1967.27 23.968 1966.1 25.432 1965.28 27.304C1964.47 29.176 1964.06 31.36 1964.06 33.856V34.288C1964.06 38.512 1965.04 41.704 1967.01 43.864C1969.03 45.976 1971.93 47.032 1975.72 47.032C1977.16 47.032 1978.67 46.84 1980.26 46.456C1981.89 46.072 1983.43 45.424 1984.87 44.512C1985.68 44.032 1986.4 43.816 1987.03 43.864C1987.7 43.912 1988.23 44.128 1988.61 44.512C1989.04 44.896 1989.31 45.376 1989.4 45.952C1989.5 46.528 1989.4 47.128 1989.11 47.752C1988.83 48.328 1988.32 48.856 1987.6 49.336C1985.97 50.44 1984.07 51.28 1981.91 51.856C1979.75 52.384 1977.67 52.648 1975.65 52.648ZM2013.03 52.648C2009.95 52.648 2007.24 51.928 2004.89 50.488C2002.59 49 2000.79 46.888 1999.49 44.152C1998.19 41.368 1997.55 38.128 1997.55 34.432C1997.55 30.64 1998.19 27.4 1999.49 24.712C2000.79 22.024 2002.59 19.936 2004.89 18.448C2007.24 16.96 2009.95 16.216 2013.03 16.216C2016.1 16.216 2018.74 16.984 2020.95 18.52C2023.2 20.008 2024.71 22.024 2025.48 24.568H2024.69V4.408C2024.69 3.208 2025 2.296 2025.63 1.672C2026.25 1.048 2027.14 0.735999 2028.29 0.735999C2029.44 0.735999 2030.33 1.048 2030.95 1.672C2031.63 2.296 2031.96 3.208 2031.96 4.408V48.832C2031.96 49.984 2031.65 50.896 2031.03 51.568C2030.4 52.192 2029.51 52.504 2028.36 52.504C2027.21 52.504 2026.32 52.192 2025.7 51.568C2025.07 50.896 2024.76 49.984 2024.76 48.832V42.496L2025.55 44.08C2024.79 46.672 2023.27 48.76 2021.02 50.344C2018.81 51.88 2016.15 52.648 2013.03 52.648ZM2014.9 47.032C2016.87 47.032 2018.59 46.552 2020.08 45.592C2021.57 44.632 2022.72 43.216 2023.54 41.344C2024.4 39.472 2024.83 37.168 2024.83 34.432C2024.83 30.304 2023.92 27.184 2022.1 25.072C2020.27 22.96 2017.87 21.904 2014.9 21.904C2012.88 21.904 2011.13 22.384 2009.64 23.344C2008.15 24.256 2006.98 25.648 2006.11 27.52C2005.3 29.392 2004.89 31.696 2004.89 34.432C2004.89 38.512 2005.8 41.632 2007.63 43.792C2009.45 45.952 2011.87 47.032 2014.9 47.032ZM2048.29 59.272C2047.76 59.944 2047.19 60.328 2046.56 60.424C2045.99 60.52 2045.48 60.4 2045.05 60.064C2044.62 59.728 2044.38 59.248 2044.33 58.624C2044.28 58.048 2044.55 57.4 2045.12 56.68C2045.99 55.624 2046.56 54.52 2046.85 53.368C2047.19 52.264 2047.36 51.28 2047.36 50.416L2047.64 52.288C2046.2 52.288 2045.03 51.88 2044.12 51.064C2043.25 50.2 2042.82 49.072 2042.82 47.68C2042.82 46.336 2043.23 45.256 2044.04 44.44C2044.86 43.576 2045.96 43.144 2047.36 43.144C2048.8 43.144 2049.92 43.648 2050.74 44.656C2051.6 45.616 2052.04 47.008 2052.04 48.832C2052.04 49.888 2051.92 50.992 2051.68 52.144C2051.48 53.296 2051.12 54.472 2050.6 55.672C2050.07 56.872 2049.3 58.072 2048.29 59.272ZM18.6 184.648C14.76 184.648 11.448 183.928 8.664 182.488C5.928 181 3.792 178.912 2.256 176.224C0.768 173.488 0.0240002 170.248 0.0240002 166.504C0.0240002 162.856 0.768 159.664 2.256 156.928C3.744 154.192 5.784 152.056 8.376 150.52C10.968 148.984 13.92 148.216 17.232 148.216C19.68 148.216 21.864 148.624 23.784 149.44C25.704 150.208 27.336 151.36 28.68 152.896C30.072 154.384 31.104 156.208 31.776 158.368C32.496 160.528 32.856 162.952 32.856 165.64C32.856 166.456 32.616 167.08 32.136 167.512C31.656 167.896 30.936 168.088 29.976 168.088H5.784V163.624H27.96L26.736 164.632C26.736 162.232 26.376 160.192 25.656 158.512C24.984 156.832 23.952 155.56 22.56 154.696C21.216 153.784 19.536 153.328 17.52 153.328C15.264 153.328 13.344 153.856 11.76 154.912C10.224 155.968 9.048 157.432 8.232 159.304C7.416 161.176 7.008 163.36 7.008 165.856V166.288C7.008 170.512 7.992 173.704 9.96 175.864C11.976 177.976 14.88 179.032 18.672 179.032C20.112 179.032 21.624 178.84 23.208 178.456C24.84 178.072 26.376 177.424 27.816 176.512C28.632 176.032 29.352 175.816 29.976 175.864C30.648 175.912 31.176 176.128 31.56 176.512C31.992 176.896 32.256 177.376 32.352 177.952C32.448 178.528 32.352 179.128 32.064 179.752C31.776 180.328 31.272 180.856 30.552 181.336C28.92 182.44 27.024 183.28 24.864 183.856C22.704 184.384 20.616 184.648 18.6 184.648ZM46.1839 184.504C45.0319 184.504 44.1439 184.192 43.5199 183.568C42.8959 182.896 42.5839 181.984 42.5839 180.832V152.032C42.5839 150.832 42.8959 149.92 43.5199 149.296C44.1439 148.672 45.0079 148.36 46.1119 148.36C47.2639 148.36 48.1279 148.672 48.7039 149.296C49.3279 149.92 49.6399 150.832 49.6399 152.032V157.648L48.8479 156.352C49.9039 153.664 51.5599 151.648 53.8159 150.304C56.0719 148.912 58.6639 148.216 61.5919 148.216C64.3759 148.216 66.6799 148.744 68.5039 149.8C70.3759 150.808 71.7679 152.368 72.6799 154.48C73.5919 156.544 74.0479 159.16 74.0479 162.328V180.832C74.0479 181.984 73.7359 182.896 73.1119 183.568C72.4879 184.192 71.5999 184.504 70.4479 184.504C69.2479 184.504 68.3359 184.192 67.7119 183.568C67.0879 182.896 66.7759 181.984 66.7759 180.832V162.76C66.7759 159.736 66.1759 157.528 64.9759 156.136C63.8239 154.744 61.9999 154.048 59.5039 154.048C56.5759 154.048 54.2239 154.96 52.4479 156.784C50.7199 158.608 49.8559 161.056 49.8559 164.128V180.832C49.8559 183.28 48.6319 184.504 46.1839 184.504ZM100.844 184.648C97.9642 184.648 95.5402 184.144 93.5722 183.136C91.6042 182.128 90.1402 180.64 89.1802 178.672C88.2202 176.704 87.7402 174.304 87.7402 171.472V154.48H83.4202C82.4602 154.48 81.7162 154.24 81.1882 153.76C80.6602 153.232 80.3962 152.536 80.3962 151.672C80.3962 150.76 80.6602 150.064 81.1882 149.584C81.7162 149.104 82.4602 148.864 83.4202 148.864H87.7402V141.448C87.7402 140.248 88.0522 139.336 88.6762 138.712C89.3482 138.088 90.2602 137.776 91.4122 137.776C92.5642 137.776 93.4522 138.088 94.0762 138.712C94.7002 139.336 95.0122 140.248 95.0122 141.448V148.864H103.436C104.396 148.864 105.14 149.104 105.668 149.584C106.196 150.064 106.46 150.76 106.46 151.672C106.46 152.536 106.196 153.232 105.668 153.76C105.14 154.24 104.396 154.48 103.436 154.48H95.0122V170.896C95.0122 173.44 95.5402 175.36 96.5962 176.656C97.7002 177.952 99.4762 178.6 101.924 178.6C102.788 178.6 103.532 178.528 104.156 178.384C104.828 178.192 105.38 178.072 105.812 178.024C106.34 178.024 106.772 178.216 107.108 178.6C107.444 178.936 107.612 179.608 107.612 180.616C107.612 181.336 107.468 182.008 107.18 182.632C106.94 183.256 106.484 183.664 105.812 183.856C105.236 184.048 104.444 184.216 103.436 184.36C102.476 184.552 101.612 184.648 100.844 184.648ZM130.102 184.648C126.262 184.648 122.95 183.928 120.166 182.488C117.43 181 115.294 178.912 113.758 176.224C112.27 173.488 111.526 170.248 111.526 166.504C111.526 162.856 112.27 159.664 113.758 156.928C115.246 154.192 117.286 152.056 119.878 150.52C122.47 148.984 125.422 148.216 128.734 148.216C131.182 148.216 133.366 148.624 135.286 149.44C137.206 150.208 138.838 151.36 140.182 152.896C141.574 154.384 142.606 156.208 143.278 158.368C143.998 160.528 144.358 162.952 144.358 165.64C144.358 166.456 144.118 167.08 143.638 167.512C143.158 167.896 142.438 168.088 141.478 168.088H117.286V163.624H139.462L138.238 164.632C138.238 162.232 137.878 160.192 137.158 158.512C136.486 156.832 135.454 155.56 134.062 154.696C132.718 153.784 131.038 153.328 129.022 153.328C126.766 153.328 124.846 153.856 123.262 154.912C121.726 155.968 120.55 157.432 119.734 159.304C118.918 161.176 118.51 163.36 118.51 165.856V166.288C118.51 170.512 119.494 173.704 121.462 175.864C123.478 177.976 126.382 179.032 130.174 179.032C131.614 179.032 133.126 178.84 134.71 178.456C136.342 178.072 137.878 177.424 139.318 176.512C140.134 176.032 140.854 175.816 141.478 175.864C142.15 175.912 142.678 176.128 143.062 176.512C143.494 176.896 143.758 177.376 143.854 177.952C143.95 178.528 143.854 179.128 143.566 179.752C143.278 180.328 142.774 180.856 142.054 181.336C140.422 182.44 138.526 183.28 136.366 183.856C134.206 184.384 132.118 184.648 130.102 184.648ZM157.757 184.504C156.557 184.504 155.645 184.192 155.021 183.568C154.397 182.896 154.085 181.984 154.085 180.832V152.032C154.085 150.832 154.397 149.92 155.021 149.296C155.645 148.672 156.509 148.36 157.613 148.36C158.765 148.36 159.629 148.672 160.205 149.296C160.829 149.92 161.141 150.832 161.141 152.032V157.288H160.421C161.189 154.408 162.605 152.224 164.669 150.736C166.733 149.248 169.373 148.384 172.589 148.144C173.453 148.096 174.125 148.312 174.605 148.792C175.133 149.272 175.421 150.016 175.469 151.024C175.565 152.032 175.349 152.848 174.821 153.472C174.293 154.048 173.477 154.384 172.373 154.48L171.005 154.624C167.885 154.912 165.509 155.896 163.877 157.576C162.245 159.256 161.429 161.56 161.429 164.488V180.832C161.429 181.984 161.117 182.896 160.493 183.568C159.917 184.192 159.005 184.504 157.757 184.504ZM199.69 184.648C196.81 184.648 194.386 184.144 192.418 183.136C190.45 182.128 188.986 180.64 188.026 178.672C187.066 176.704 186.586 174.304 186.586 171.472V154.48H182.266C181.306 154.48 180.562 154.24 180.034 153.76C179.506 153.232 179.242 152.536 179.242 151.672C179.242 150.76 179.506 150.064 180.034 149.584C180.562 149.104 181.306 148.864 182.266 148.864H186.586V141.448C186.586 140.248 186.898 139.336 187.522 138.712C188.194 138.088 189.106 137.776 190.258 137.776C191.41 137.776 192.298 138.088 192.922 138.712C193.546 139.336 193.858 140.248 193.858 141.448V148.864H202.282C203.242 148.864 203.986 149.104 204.514 149.584C205.042 150.064 205.306 150.76 205.306 151.672C205.306 152.536 205.042 153.232 204.514 153.76C203.986 154.24 203.242 154.48 202.282 154.48H193.858V170.896C193.858 173.44 194.386 175.36 195.442 176.656C196.546 177.952 198.322 178.6 200.77 178.6C201.634 178.6 202.378 178.528 203.002 178.384C203.674 178.192 204.226 178.072 204.658 178.024C205.186 178.024 205.618 178.216 205.954 178.6C206.29 178.936 206.458 179.608 206.458 180.616C206.458 181.336 206.314 182.008 206.026 182.632C205.786 183.256 205.33 183.664 204.658 183.856C204.082 184.048 203.29 184.216 202.282 184.36C201.322 184.552 200.458 184.648 199.69 184.648ZM224.042 184.648C221.594 184.648 219.386 184.168 217.418 183.208C215.498 182.248 213.986 180.952 212.882 179.32C211.778 177.688 211.226 175.84 211.226 173.776C211.226 171.184 211.874 169.144 213.17 167.656C214.514 166.12 216.698 165.04 219.722 164.416C222.794 163.744 226.922 163.408 232.106 163.408H235.49V167.872H232.178C228.722 167.872 225.986 168.04 223.97 168.376C221.954 168.712 220.514 169.288 219.65 170.104C218.834 170.872 218.426 171.952 218.426 173.344C218.426 175.168 219.05 176.656 220.298 177.808C221.546 178.912 223.274 179.464 225.482 179.464C227.258 179.464 228.818 179.056 230.162 178.24C231.506 177.376 232.562 176.224 233.33 174.784C234.146 173.344 234.554 171.688 234.554 169.816V161.536C234.554 158.8 233.978 156.832 232.826 155.632C231.674 154.432 229.778 153.832 227.138 153.832C225.602 153.832 223.994 154.024 222.314 154.408C220.682 154.792 218.978 155.44 217.202 156.352C216.386 156.736 215.69 156.856 215.114 156.712C214.538 156.568 214.082 156.256 213.746 155.776C213.41 155.248 213.218 154.696 213.17 154.12C213.17 153.496 213.314 152.896 213.602 152.32C213.938 151.744 214.49 151.312 215.258 151.024C217.37 150.016 219.458 149.296 221.522 148.864C223.586 148.432 225.53 148.216 227.354 148.216C230.57 148.216 233.21 148.72 235.274 149.728C237.386 150.736 238.946 152.272 239.954 154.336C240.962 156.4 241.466 159.064 241.466 162.328V180.832C241.466 181.984 241.178 182.896 240.602 183.568C240.026 184.192 239.186 184.504 238.082 184.504C237.026 184.504 236.186 184.192 235.562 183.568C234.938 182.896 234.626 181.984 234.626 180.832V176.152H235.274C234.89 177.928 234.17 179.464 233.114 180.76C232.106 182.008 230.834 182.968 229.298 183.64C227.762 184.312 226.01 184.648 224.042 184.648ZM256.882 184.432C255.73 184.432 254.842 184.096 254.218 183.424C253.594 182.704 253.282 181.72 253.282 180.472V152.392C253.282 151.144 253.594 150.184 254.218 149.512C254.842 148.84 255.73 148.504 256.882 148.504C258.034 148.504 258.922 148.84 259.546 149.512C260.218 150.184 260.554 151.144 260.554 152.392V180.472C260.554 181.72 260.242 182.704 259.618 183.424C258.994 184.096 258.082 184.432 256.882 184.432ZM256.882 141.016C255.442 141.016 254.314 140.656 253.498 139.936C252.73 139.216 252.346 138.208 252.346 136.912C252.346 135.568 252.73 134.56 253.498 133.888C254.314 133.168 255.442 132.808 256.882 132.808C258.322 132.808 259.426 133.168 260.194 133.888C261.01 134.56 261.418 135.568 261.418 136.912C261.418 138.208 261.01 139.216 260.194 139.936C259.426 140.656 258.322 141.016 256.882 141.016ZM276.19 184.504C275.038 184.504 274.15 184.192 273.526 183.568C272.902 182.896 272.59 181.984 272.59 180.832V152.032C272.59 150.832 272.902 149.92 273.526 149.296C274.15 148.672 275.014 148.36 276.118 148.36C277.27 148.36 278.134 148.672 278.71 149.296C279.334 149.92 279.646 150.832 279.646 152.032V157.648L278.854 156.352C279.91 153.664 281.566 151.648 283.822 150.304C286.078 148.912 288.67 148.216 291.598 148.216C294.382 148.216 296.686 148.744 298.51 149.8C300.382 150.808 301.774 152.368 302.686 154.48C303.598 156.544 304.054 159.16 304.054 162.328V180.832C304.054 181.984 303.742 182.896 303.118 183.568C302.494 184.192 301.606 184.504 300.454 184.504C299.254 184.504 298.342 184.192 297.718 183.568C297.094 182.896 296.782 181.984 296.782 180.832V162.76C296.782 159.736 296.182 157.528 294.982 156.136C293.83 154.744 292.006 154.048 289.51 154.048C286.582 154.048 284.23 154.96 282.454 156.784C280.726 158.608 279.862 161.056 279.862 164.128V180.832C279.862 183.28 278.638 184.504 276.19 184.504ZM332.363 184.648C328.523 184.648 325.211 183.928 322.427 182.488C319.691 181 317.555 178.912 316.019 176.224C314.531 173.488 313.787 170.248 313.787 166.504C313.787 162.856 314.531 159.664 316.019 156.928C317.507 154.192 319.547 152.056 322.139 150.52C324.731 148.984 327.683 148.216 330.995 148.216C333.443 148.216 335.627 148.624 337.547 149.44C339.467 150.208 341.099 151.36 342.443 152.896C343.835 154.384 344.867 156.208 345.539 158.368C346.259 160.528 346.619 162.952 346.619 165.64C346.619 166.456 346.379 167.08 345.899 167.512C345.419 167.896 344.699 168.088 343.739 168.088H319.547V163.624H341.723L340.499 164.632C340.499 162.232 340.139 160.192 339.419 158.512C338.747 156.832 337.715 155.56 336.323 154.696C334.979 153.784 333.299 153.328 331.283 153.328C329.027 153.328 327.107 153.856 325.523 154.912C323.987 155.968 322.811 157.432 321.995 159.304C321.179 161.176 320.771 163.36 320.771 165.856V166.288C320.771 170.512 321.755 173.704 323.723 175.864C325.739 177.976 328.643 179.032 332.435 179.032C333.875 179.032 335.387 178.84 336.971 178.456C338.603 178.072 340.139 177.424 341.579 176.512C342.395 176.032 343.115 175.816 343.739 175.864C344.411 175.912 344.939 176.128 345.323 176.512C345.755 176.896 346.019 177.376 346.115 177.952C346.211 178.528 346.115 179.128 345.827 179.752C345.539 180.328 345.035 180.856 344.315 181.336C342.683 182.44 340.787 183.28 338.627 183.856C336.467 184.384 334.379 184.648 332.363 184.648ZM369.738 184.648C366.666 184.648 363.954 183.928 361.602 182.488C359.298 181 357.498 178.888 356.202 176.152C354.906 173.368 354.258 170.128 354.258 166.432C354.258 162.64 354.906 159.4 356.202 156.712C357.498 154.024 359.298 151.936 361.602 150.448C363.954 148.96 366.666 148.216 369.738 148.216C372.81 148.216 375.45 148.984 377.658 150.52C379.914 152.008 381.426 154.024 382.194 156.568H381.402V136.408C381.402 135.208 381.714 134.296 382.338 133.672C382.962 133.048 383.85 132.736 385.002 132.736C386.154 132.736 387.042 133.048 387.666 133.672C388.338 134.296 388.674 135.208 388.674 136.408V180.832C388.674 181.984 388.362 182.896 387.738 183.568C387.114 184.192 386.226 184.504 385.074 184.504C383.922 184.504 383.034 184.192 382.41 183.568C381.786 182.896 381.474 181.984 381.474 180.832V174.496L382.266 176.08C381.498 178.672 379.986 180.76 377.73 182.344C375.522 183.88 372.858 184.648 369.738 184.648ZM371.61 179.032C373.578 179.032 375.306 178.552 376.794 177.592C378.282 176.632 379.434 175.216 380.25 173.344C381.114 171.472 381.546 169.168 381.546 166.432C381.546 162.304 380.634 159.184 378.81 157.072C376.986 154.96 374.586 153.904 371.61 153.904C369.594 153.904 367.842 154.384 366.354 155.344C364.866 156.256 363.69 157.648 362.826 159.52C362.01 161.392 361.602 163.696 361.602 166.432C361.602 170.512 362.514 173.632 364.338 175.792C366.162 177.952 368.586 179.032 371.61 179.032ZM405.005 191.272C404.477 191.944 403.901 192.328 403.277 192.424C402.701 192.52 402.197 192.4 401.765 192.064C401.333 191.728 401.093 191.248 401.045 190.624C400.997 190.048 401.261 189.4 401.837 188.68C402.701 187.624 403.277 186.52 403.565 185.368C403.901 184.264 404.069 183.28 404.069 182.416L404.357 184.288C402.917 184.288 401.741 183.88 400.829 183.064C399.965 182.2 399.533 181.072 399.533 179.68C399.533 178.336 399.941 177.256 400.757 176.44C401.573 175.576 402.677 175.144 404.069 175.144C405.509 175.144 406.637 175.648 407.453 176.656C408.317 177.616 408.749 179.008 408.749 180.832C408.749 181.888 408.629 182.992 408.389 184.144C408.197 185.296 407.837 186.472 407.309 187.672C406.781 188.872 406.013 190.072 405.005 191.272ZM451.588 184.648C449.14 184.648 446.932 184.168 444.964 183.208C443.044 182.248 441.532 180.952 440.428 179.32C439.324 177.688 438.772 175.84 438.772 173.776C438.772 171.184 439.42 169.144 440.716 167.656C442.06 166.12 444.244 165.04 447.268 164.416C450.34 163.744 454.468 163.408 459.652 163.408H463.036V167.872H459.724C456.268 167.872 453.532 168.04 451.516 168.376C449.5 168.712 448.06 169.288 447.196 170.104C446.38 170.872 445.972 171.952 445.972 173.344C445.972 175.168 446.596 176.656 447.844 177.808C449.092 178.912 450.82 179.464 453.028 179.464C454.804 179.464 456.364 179.056 457.708 178.24C459.052 177.376 460.108 176.224 460.876 174.784C461.692 173.344 462.1 171.688 462.1 169.816V161.536C462.1 158.8 461.524 156.832 460.372 155.632C459.22 154.432 457.324 153.832 454.684 153.832C453.148 153.832 451.54 154.024 449.86 154.408C448.228 154.792 446.524 155.44 444.748 156.352C443.932 156.736 443.236 156.856 442.66 156.712C442.084 156.568 441.628 156.256 441.292 155.776C440.956 155.248 440.764 154.696 440.716 154.12C440.716 153.496 440.86 152.896 441.148 152.32C441.484 151.744 442.036 151.312 442.804 151.024C444.916 150.016 447.004 149.296 449.068 148.864C451.132 148.432 453.076 148.216 454.9 148.216C458.116 148.216 460.756 148.72 462.82 149.728C464.932 150.736 466.492 152.272 467.5 154.336C468.508 156.4 469.012 159.064 469.012 162.328V180.832C469.012 181.984 468.724 182.896 468.148 183.568C467.572 184.192 466.732 184.504 465.628 184.504C464.572 184.504 463.732 184.192 463.108 183.568C462.484 182.896 462.172 181.984 462.172 180.832V176.152H462.82C462.436 177.928 461.716 179.464 460.66 180.76C459.652 182.008 458.38 182.968 456.844 183.64C455.308 184.312 453.556 184.648 451.588 184.648ZM484.428 184.504C483.276 184.504 482.388 184.192 481.764 183.568C481.14 182.896 480.828 181.984 480.828 180.832V152.032C480.828 150.832 481.14 149.92 481.764 149.296C482.388 148.672 483.252 148.36 484.356 148.36C485.508 148.36 486.372 148.672 486.948 149.296C487.572 149.92 487.884 150.832 487.884 152.032V157.648L487.092 156.352C488.148 153.664 489.804 151.648 492.06 150.304C494.316 148.912 496.908 148.216 499.836 148.216C502.62 148.216 504.924 148.744 506.748 149.8C508.62 150.808 510.012 152.368 510.924 154.48C511.836 156.544 512.292 159.16 512.292 162.328V180.832C512.292 181.984 511.98 182.896 511.356 183.568C510.732 184.192 509.844 184.504 508.692 184.504C507.492 184.504 506.58 184.192 505.956 183.568C505.332 182.896 505.02 181.984 505.02 180.832V162.76C505.02 159.736 504.42 157.528 503.22 156.136C502.068 154.744 500.244 154.048 497.748 154.048C494.82 154.048 492.468 154.96 490.692 156.784C488.964 158.608 488.1 161.056 488.1 164.128V180.832C488.1 183.28 486.876 184.504 484.428 184.504ZM537.504 184.648C534.432 184.648 531.72 183.928 529.368 182.488C527.064 181 525.264 178.888 523.968 176.152C522.672 173.368 522.024 170.128 522.024 166.432C522.024 162.64 522.672 159.4 523.968 156.712C525.264 154.024 527.064 151.936 529.368 150.448C531.72 148.96 534.432 148.216 537.504 148.216C540.576 148.216 543.216 148.984 545.424 150.52C547.68 152.008 549.192 154.024 549.96 156.568H549.168V136.408C549.168 135.208 549.48 134.296 550.104 133.672C550.728 133.048 551.616 132.736 552.768 132.736C553.92 132.736 554.808 133.048 555.432 133.672C556.104 134.296 556.44 135.208 556.44 136.408V180.832C556.44 181.984 556.128 182.896 555.504 183.568C554.88 184.192 553.992 184.504 552.84 184.504C551.688 184.504 550.8 184.192 550.176 183.568C549.552 182.896 549.24 181.984 549.24 180.832V174.496L550.032 176.08C549.264 178.672 547.752 180.76 545.496 182.344C543.288 183.88 540.624 184.648 537.504 184.648ZM539.376 179.032C541.344 179.032 543.072 178.552 544.56 177.592C546.048 176.632 547.2 175.216 548.016 173.344C548.88 171.472 549.312 169.168 549.312 166.432C549.312 162.304 548.4 159.184 546.576 157.072C544.752 154.96 542.352 153.904 539.376 153.904C537.36 153.904 535.608 154.384 534.12 155.344C532.632 156.256 531.456 157.648 530.592 159.52C529.776 161.392 529.368 163.696 529.368 166.432C529.368 170.512 530.28 173.632 532.104 175.792C533.928 177.952 536.352 179.032 539.376 179.032ZM604.211 184.648C601.331 184.648 598.907 184.144 596.939 183.136C594.971 182.128 593.507 180.64 592.547 178.672C591.587 176.704 591.107 174.304 591.107 171.472V154.48H586.787C585.827 154.48 585.083 154.24 584.555 153.76C584.027 153.232 583.763 152.536 583.763 151.672C583.763 150.76 584.027 150.064 584.555 149.584C585.083 149.104 585.827 148.864 586.787 148.864H591.107V141.448C591.107 140.248 591.419 139.336 592.043 138.712C592.715 138.088 593.627 137.776 594.779 137.776C595.931 137.776 596.819 138.088 597.443 138.712C598.067 139.336 598.379 140.248 598.379 141.448V148.864H606.803C607.763 148.864 608.507 149.104 609.035 149.584C609.563 150.064 609.827 150.76 609.827 151.672C609.827 152.536 609.563 153.232 609.035 153.76C608.507 154.24 607.763 154.48 606.803 154.48H598.379V170.896C598.379 173.44 598.907 175.36 599.963 176.656C601.067 177.952 602.843 178.6 605.291 178.6C606.155 178.6 606.899 178.528 607.523 178.384C608.195 178.192 608.747 178.072 609.179 178.024C609.707 178.024 610.139 178.216 610.475 178.6C610.811 178.936 610.979 179.608 610.979 180.616C610.979 181.336 610.835 182.008 610.547 182.632C610.307 183.256 609.851 183.664 609.179 183.856C608.603 184.048 607.811 184.216 606.803 184.36C605.843 184.552 604.979 184.648 604.211 184.648ZM621.565 184.504C620.413 184.504 619.525 184.192 618.901 183.568C618.277 182.896 617.965 181.984 617.965 180.832V136.408C617.965 135.208 618.277 134.296 618.901 133.672C619.525 133.048 620.413 132.736 621.565 132.736C622.717 132.736 623.605 133.048 624.229 133.672C624.901 134.296 625.237 135.208 625.237 136.408V156.352H624.229C625.285 153.664 626.941 151.648 629.197 150.304C631.453 148.912 634.045 148.216 636.973 148.216C639.757 148.216 642.061 148.744 643.885 149.8C645.757 150.808 647.149 152.368 648.061 154.48C648.973 156.544 649.429 159.16 649.429 162.328V180.832C649.429 181.984 649.117 182.896 648.493 183.568C647.869 184.192 646.981 184.504 645.829 184.504C644.629 184.504 643.717 184.192 643.093 183.568C642.469 182.896 642.157 181.984 642.157 180.832V162.76C642.157 159.736 641.557 157.528 640.357 156.136C639.205 154.744 637.381 154.048 634.885 154.048C631.957 154.048 629.605 154.96 627.829 156.784C626.101 158.608 625.237 161.056 625.237 164.128V180.832C625.237 183.28 624.013 184.504 621.565 184.504ZM664.922 184.504C663.722 184.504 662.81 184.192 662.186 183.568C661.562 182.896 661.25 181.984 661.25 180.832V152.032C661.25 150.832 661.562 149.92 662.186 149.296C662.81 148.672 663.674 148.36 664.778 148.36C665.93 148.36 666.794 148.672 667.37 149.296C667.994 149.92 668.306 150.832 668.306 152.032V157.288H667.586C668.354 154.408 669.77 152.224 671.834 150.736C673.898 149.248 676.538 148.384 679.754 148.144C680.618 148.096 681.29 148.312 681.77 148.792C682.298 149.272 682.586 150.016 682.634 151.024C682.73 152.032 682.514 152.848 681.986 153.472C681.458 154.048 680.642 154.384 679.538 154.48L678.17 154.624C675.05 154.912 672.674 155.896 671.042 157.576C669.41 159.256 668.594 161.56 668.594 164.488V180.832C668.594 181.984 668.282 182.896 667.658 183.568C667.082 184.192 666.17 184.504 664.922 184.504ZM693.509 184.432C692.357 184.432 691.469 184.096 690.845 183.424C690.221 182.704 689.909 181.72 689.909 180.472V152.392C689.909 151.144 690.221 150.184 690.845 149.512C691.469 148.84 692.357 148.504 693.509 148.504C694.661 148.504 695.549 148.84 696.173 149.512C696.845 150.184 697.181 151.144 697.181 152.392V180.472C697.181 181.72 696.869 182.704 696.245 183.424C695.621 184.096 694.709 184.432 693.509 184.432ZM693.509 141.016C692.069 141.016 690.941 140.656 690.125 139.936C689.357 139.216 688.973 138.208 688.973 136.912C688.973 135.568 689.357 134.56 690.125 133.888C690.941 133.168 692.069 132.808 693.509 132.808C694.949 132.808 696.053 133.168 696.821 133.888C697.637 134.56 698.045 135.568 698.045 136.912C698.045 138.208 697.637 139.216 696.821 139.936C696.053 140.656 694.949 141.016 693.509 141.016ZM722.825 184.504C721.817 184.504 720.929 184.24 720.161 183.712C719.441 183.184 718.841 182.368 718.361 181.264L706.337 153.328C705.953 152.464 705.809 151.648 705.905 150.88C706.001 150.112 706.361 149.512 706.985 149.08C707.609 148.6 708.449 148.36 709.505 148.36C710.417 148.36 711.137 148.576 711.665 149.008C712.193 149.44 712.673 150.184 713.105 151.24L723.977 178.024H721.961L733.049 151.24C733.481 150.184 733.961 149.44 734.489 149.008C735.065 148.576 735.857 148.36 736.865 148.36C737.729 148.36 738.401 148.6 738.881 149.08C739.409 149.512 739.721 150.112 739.817 150.88C739.961 151.6 739.841 152.392 739.457 153.256L727.289 181.264C726.857 182.368 726.257 183.184 725.489 183.712C724.721 184.24 723.833 184.504 722.825 184.504ZM752.023 184.432C750.871 184.432 749.983 184.096 749.359 183.424C748.735 182.704 748.423 181.72 748.423 180.472V152.392C748.423 151.144 748.735 150.184 749.359 149.512C749.983 148.84 750.871 148.504 752.023 148.504C753.175 148.504 754.063 148.84 754.687 149.512C755.359 150.184 755.695 151.144 755.695 152.392V180.472C755.695 181.72 755.383 182.704 754.759 183.424C754.135 184.096 753.223 184.432 752.023 184.432ZM752.023 141.016C750.583 141.016 749.455 140.656 748.639 139.936C747.871 139.216 747.487 138.208 747.487 136.912C747.487 135.568 747.871 134.56 748.639 133.888C749.455 133.168 750.583 132.808 752.023 132.808C753.463 132.808 754.567 133.168 755.335 133.888C756.151 134.56 756.559 135.568 756.559 136.912C756.559 138.208 756.151 139.216 755.335 139.936C754.567 140.656 753.463 141.016 752.023 141.016ZM771.331 184.504C770.179 184.504 769.291 184.192 768.667 183.568C768.043 182.896 767.731 181.984 767.731 180.832V152.032C767.731 150.832 768.043 149.92 768.667 149.296C769.291 148.672 770.155 148.36 771.259 148.36C772.411 148.36 773.275 148.672 773.851 149.296C774.475 149.92 774.787 150.832 774.787 152.032V157.648L773.995 156.352C775.051 153.664 776.707 151.648 778.963 150.304C781.219 148.912 783.811 148.216 786.739 148.216C789.523 148.216 791.827 148.744 793.651 149.8C795.523 150.808 796.915 152.368 797.827 154.48C798.739 156.544 799.195 159.16 799.195 162.328V180.832C799.195 181.984 798.883 182.896 798.259 183.568C797.635 184.192 796.747 184.504 795.595 184.504C794.395 184.504 793.483 184.192 792.859 183.568C792.235 182.896 791.923 181.984 791.923 180.832V162.76C791.923 159.736 791.323 157.528 790.123 156.136C788.971 154.744 787.147 154.048 784.651 154.048C781.723 154.048 779.371 154.96 777.595 156.784C775.867 158.608 775.003 161.056 775.003 164.128V180.832C775.003 183.28 773.779 184.504 771.331 184.504ZM826.927 197.608C824.335 197.608 821.815 197.344 819.367 196.816C816.967 196.288 814.783 195.424 812.815 194.224C812.095 193.84 811.615 193.36 811.375 192.784C811.135 192.256 811.063 191.704 811.159 191.128C811.303 190.552 811.567 190.048 811.951 189.616C812.335 189.184 812.791 188.896 813.319 188.752C813.895 188.608 814.495 188.704 815.119 189.04C817.231 190.192 819.223 190.96 821.095 191.344C823.015 191.776 824.791 191.992 826.423 191.992C829.783 191.992 832.303 191.128 833.983 189.4C835.663 187.72 836.503 185.224 836.503 181.912V174.568H837.151C836.431 177.208 834.919 179.296 832.615 180.832C830.311 182.368 827.647 183.136 824.623 183.136C821.455 183.136 818.695 182.416 816.343 180.976C813.991 179.488 812.167 177.448 810.871 174.856C809.575 172.216 808.927 169.144 808.927 165.64C808.927 163 809.287 160.624 810.007 158.512C810.775 156.4 811.831 154.576 813.175 153.04C814.567 151.504 816.223 150.328 818.143 149.512C820.111 148.648 822.271 148.216 824.623 148.216C827.695 148.216 830.359 148.984 832.615 150.52C834.919 152.056 836.407 154.144 837.079 156.784L836.359 158.008V152.032C836.359 150.832 836.671 149.92 837.295 149.296C837.967 148.672 838.855 148.36 839.959 148.36C841.111 148.36 841.999 148.672 842.623 149.296C843.247 149.92 843.559 150.832 843.559 152.032V181.048C843.559 186.52 842.143 190.648 839.311 193.432C836.479 196.216 832.351 197.608 826.927 197.608ZM826.351 177.448C828.463 177.448 830.263 176.968 831.751 176.008C833.239 175.048 834.391 173.68 835.207 171.904C836.023 170.128 836.431 168.04 836.431 165.64C836.431 162.04 835.519 159.184 833.695 157.072C831.919 154.96 829.471 153.904 826.351 153.904C824.287 153.904 822.511 154.384 821.023 155.344C819.535 156.304 818.359 157.672 817.495 159.448C816.679 161.176 816.271 163.24 816.271 165.64C816.271 169.288 817.183 172.168 819.007 174.28C820.831 176.392 823.279 177.448 826.351 177.448ZM889.165 184.504C888.157 184.504 887.269 184.264 886.501 183.784C885.781 183.256 885.205 182.44 884.773 181.336L874.189 153.328C873.805 152.368 873.685 151.528 873.829 150.808C873.973 150.04 874.333 149.44 874.909 149.008C875.533 148.576 876.325 148.36 877.285 148.36C878.149 148.36 878.845 148.576 879.373 149.008C879.949 149.392 880.429 150.16 880.813 151.312L890.245 177.88H888.517L898.309 151.024C898.645 150.112 899.101 149.44 899.677 149.008C900.253 148.576 900.997 148.36 901.909 148.36C902.821 148.36 903.565 148.576 904.141 149.008C904.765 149.44 905.221 150.112 905.509 151.024L915.085 177.88H913.501L923.077 151.168C923.461 150.064 923.941 149.32 924.517 148.936C925.141 148.552 925.837 148.36 926.605 148.36C927.565 148.36 928.285 148.6 928.765 149.08C929.293 149.56 929.581 150.184 929.629 150.952C929.725 151.672 929.605 152.464 929.269 153.328L918.685 181.336C918.253 182.392 917.653 183.184 916.885 183.712C916.165 184.24 915.325 184.504 914.365 184.504C913.357 184.504 912.469 184.24 911.701 183.712C910.981 183.184 910.405 182.392 909.973 181.336L899.893 154.048H903.493L893.485 181.336C893.101 182.392 892.525 183.184 891.757 183.712C891.037 184.24 890.173 184.504 889.165 184.504ZM942.64 184.432C941.488 184.432 940.6 184.096 939.976 183.424C939.352 182.704 939.04 181.72 939.04 180.472V152.392C939.04 151.144 939.352 150.184 939.976 149.512C940.6 148.84 941.488 148.504 942.64 148.504C943.792 148.504 944.68 148.84 945.304 149.512C945.976 150.184 946.312 151.144 946.312 152.392V180.472C946.312 181.72 946 182.704 945.376 183.424C944.752 184.096 943.84 184.432 942.64 184.432ZM942.64 141.016C941.2 141.016 940.072 140.656 939.256 139.936C938.488 139.216 938.104 138.208 938.104 136.912C938.104 135.568 938.488 134.56 939.256 133.888C940.072 133.168 941.2 132.808 942.64 132.808C944.08 132.808 945.184 133.168 945.952 133.888C946.768 134.56 947.176 135.568 947.176 136.912C947.176 138.208 946.768 139.216 945.952 139.936C945.184 140.656 944.08 141.016 942.64 141.016ZM973.324 184.648C970.444 184.648 968.02 184.144 966.052 183.136C964.084 182.128 962.62 180.64 961.66 178.672C960.7 176.704 960.22 174.304 960.22 171.472V154.48H955.9C954.94 154.48 954.196 154.24 953.668 153.76C953.14 153.232 952.876 152.536 952.876 151.672C952.876 150.76 953.14 150.064 953.668 149.584C954.196 149.104 954.94 148.864 955.9 148.864H960.22V141.448C960.22 140.248 960.532 139.336 961.156 138.712C961.828 138.088 962.74 137.776 963.892 137.776C965.044 137.776 965.932 138.088 966.556 138.712C967.18 139.336 967.492 140.248 967.492 141.448V148.864H975.916C976.876 148.864 977.62 149.104 978.148 149.584C978.676 150.064 978.94 150.76 978.94 151.672C978.94 152.536 978.676 153.232 978.148 153.76C977.62 154.24 976.876 154.48 975.916 154.48H967.492V170.896C967.492 173.44 968.02 175.36 969.076 176.656C970.18 177.952 971.956 178.6 974.404 178.6C975.268 178.6 976.012 178.528 976.636 178.384C977.308 178.192 977.86 178.072 978.292 178.024C978.82 178.024 979.252 178.216 979.588 178.6C979.924 178.936 980.092 179.608 980.092 180.616C980.092 181.336 979.948 182.008 979.66 182.632C979.42 183.256 978.964 183.664 978.292 183.856C977.716 184.048 976.924 184.216 975.916 184.36C974.956 184.552 974.092 184.648 973.324 184.648ZM990.678 184.504C989.526 184.504 988.638 184.192 988.014 183.568C987.39 182.896 987.078 181.984 987.078 180.832V136.408C987.078 135.208 987.39 134.296 988.014 133.672C988.638 133.048 989.526 132.736 990.678 132.736C991.83 132.736 992.718 133.048 993.342 133.672C994.014 134.296 994.35 135.208 994.35 136.408V156.352H993.342C994.398 153.664 996.054 151.648 998.31 150.304C1000.57 148.912 1003.16 148.216 1006.09 148.216C1008.87 148.216 1011.17 148.744 1013 149.8C1014.87 150.808 1016.26 152.368 1017.17 154.48C1018.09 156.544 1018.54 159.16 1018.54 162.328V180.832C1018.54 181.984 1018.23 182.896 1017.61 183.568C1016.98 184.192 1016.09 184.504 1014.94 184.504C1013.74 184.504 1012.83 184.192 1012.21 183.568C1011.58 182.896 1011.27 181.984 1011.27 180.832V162.76C1011.27 159.736 1010.67 157.528 1009.47 156.136C1008.32 154.744 1006.49 154.048 1004 154.048C1001.07 154.048 998.718 154.96 996.942 156.784C995.214 158.608 994.35 161.056 994.35 164.128V180.832C994.35 183.28 993.126 184.504 990.678 184.504ZM1054.89 184.504C1053.74 184.504 1052.85 184.192 1052.23 183.568C1051.6 182.896 1051.29 181.984 1051.29 180.832V152.032C1051.29 150.832 1051.6 149.92 1052.23 149.296C1052.85 148.672 1053.71 148.36 1054.82 148.36C1055.97 148.36 1056.83 148.672 1057.41 149.296C1058.03 149.92 1058.35 150.832 1058.35 152.032V157.936L1057.55 156.352C1058.51 153.808 1060 151.816 1062.02 150.376C1064.03 148.936 1066.46 148.216 1069.29 148.216C1072.22 148.216 1074.59 148.912 1076.42 150.304C1078.24 151.696 1079.49 153.832 1080.16 156.712H1079.15C1080.07 154.072 1081.63 152.008 1083.83 150.52C1086.04 148.984 1088.61 148.216 1091.54 148.216C1094.23 148.216 1096.43 148.744 1098.16 149.8C1099.89 150.808 1101.19 152.368 1102.05 154.48C1102.91 156.544 1103.35 159.16 1103.35 162.328V180.832C1103.35 181.984 1103.01 182.896 1102.34 183.568C1101.71 184.192 1100.83 184.504 1099.67 184.504C1098.52 184.504 1097.63 184.192 1097.01 183.568C1096.39 182.896 1096.07 181.984 1096.07 180.832V162.688C1096.07 159.712 1095.55 157.528 1094.49 156.136C1093.48 154.744 1091.8 154.048 1089.45 154.048C1086.81 154.048 1084.72 154.96 1083.19 156.784C1081.65 158.608 1080.88 161.128 1080.88 164.344V180.832C1080.88 181.984 1080.57 182.896 1079.95 183.568C1079.32 184.192 1078.43 184.504 1077.28 184.504C1076.13 184.504 1075.22 184.192 1074.55 183.568C1073.92 182.896 1073.61 181.984 1073.61 180.832V162.688C1073.61 159.712 1073.11 157.528 1072.1 156.136C1071.09 154.744 1069.41 154.048 1067.06 154.048C1064.42 154.048 1062.33 154.96 1060.79 156.784C1059.31 158.608 1058.56 161.128 1058.56 164.344V180.832C1058.56 183.28 1057.34 184.504 1054.89 184.504ZM1131.8 184.648C1127.96 184.648 1124.65 183.928 1121.87 182.488C1119.13 181 1116.99 178.912 1115.46 176.224C1113.97 173.488 1113.23 170.248 1113.23 166.504C1113.23 162.856 1113.97 159.664 1115.46 156.928C1116.95 154.192 1118.99 152.056 1121.58 150.52C1124.17 148.984 1127.12 148.216 1130.43 148.216C1132.88 148.216 1135.07 148.624 1136.99 149.44C1138.91 150.208 1140.54 151.36 1141.88 152.896C1143.27 154.384 1144.31 156.208 1144.98 158.368C1145.7 160.528 1146.06 162.952 1146.06 165.64C1146.06 166.456 1145.82 167.08 1145.34 167.512C1144.86 167.896 1144.14 168.088 1143.18 168.088H1118.99V163.624H1141.16L1139.94 164.632C1139.94 162.232 1139.58 160.192 1138.86 158.512C1138.19 156.832 1137.15 155.56 1135.76 154.696C1134.42 153.784 1132.74 153.328 1130.72 153.328C1128.47 153.328 1126.55 153.856 1124.96 154.912C1123.43 155.968 1122.25 157.432 1121.43 159.304C1120.62 161.176 1120.21 163.36 1120.21 165.856V166.288C1120.21 170.512 1121.19 173.704 1123.16 175.864C1125.18 177.976 1128.08 179.032 1131.87 179.032C1133.31 179.032 1134.83 178.84 1136.41 178.456C1138.04 178.072 1139.58 177.424 1141.02 176.512C1141.83 176.032 1142.55 175.816 1143.18 175.864C1143.85 175.912 1144.38 176.128 1144.76 176.512C1145.19 176.896 1145.46 177.376 1145.55 177.952C1145.65 178.528 1145.55 179.128 1145.27 179.752C1144.98 180.328 1144.47 180.856 1143.75 181.336C1142.12 182.44 1140.23 183.28 1138.07 183.856C1135.91 184.384 1133.82 184.648 1131.8 184.648ZM1159.53 184.504C1158.38 184.504 1157.49 184.192 1156.87 183.568C1156.24 182.896 1155.93 181.984 1155.93 180.832V152.032C1155.93 150.832 1156.24 149.92 1156.87 149.296C1157.49 148.672 1158.35 148.36 1159.46 148.36C1160.61 148.36 1161.47 148.672 1162.05 149.296C1162.67 149.92 1162.99 150.832 1162.99 152.032V157.936L1162.19 156.352C1163.15 153.808 1164.64 151.816 1166.66 150.376C1168.67 148.936 1171.1 148.216 1173.93 148.216C1176.86 148.216 1179.23 148.912 1181.06 150.304C1182.88 151.696 1184.13 153.832 1184.8 156.712H1183.79C1184.71 154.072 1186.27 152.008 1188.47 150.52C1190.68 148.984 1193.25 148.216 1196.18 148.216C1198.87 148.216 1201.07 148.744 1202.8 149.8C1204.53 150.808 1205.83 152.368 1206.69 154.48C1207.55 156.544 1207.99 159.16 1207.99 162.328V180.832C1207.99 181.984 1207.65 182.896 1206.98 183.568C1206.35 184.192 1205.47 184.504 1204.31 184.504C1203.16 184.504 1202.27 184.192 1201.65 183.568C1201.03 182.896 1200.71 181.984 1200.71 180.832V162.688C1200.71 159.712 1200.19 157.528 1199.13 156.136C1198.12 154.744 1196.44 154.048 1194.09 154.048C1191.45 154.048 1189.36 154.96 1187.83 156.784C1186.29 158.608 1185.52 161.128 1185.52 164.344V180.832C1185.52 181.984 1185.21 182.896 1184.59 183.568C1183.96 184.192 1183.07 184.504 1181.92 184.504C1180.77 184.504 1179.86 184.192 1179.19 183.568C1178.56 182.896 1178.25 181.984 1178.25 180.832V162.688C1178.25 159.712 1177.75 157.528 1176.74 156.136C1175.73 154.744 1174.05 154.048 1171.7 154.048C1169.06 154.048 1166.97 154.96 1165.43 156.784C1163.95 158.608 1163.2 161.128 1163.2 164.344V180.832C1163.2 183.28 1161.98 184.504 1159.53 184.504ZM1236.44 184.648C1232.6 184.648 1229.29 183.928 1226.5 182.488C1223.77 181 1221.63 178.912 1220.1 176.224C1218.61 173.488 1217.86 170.248 1217.86 166.504C1217.86 162.856 1218.61 159.664 1220.1 156.928C1221.58 154.192 1223.62 152.056 1226.22 150.52C1228.81 148.984 1231.76 148.216 1235.07 148.216C1237.52 148.216 1239.7 148.624 1241.62 149.44C1243.54 150.208 1245.18 151.36 1246.52 152.896C1247.91 154.384 1248.94 156.208 1249.62 158.368C1250.34 160.528 1250.7 162.952 1250.7 165.64C1250.7 166.456 1250.46 167.08 1249.98 167.512C1249.5 167.896 1248.78 168.088 1247.82 168.088H1223.62V163.624H1245.8L1244.58 164.632C1244.58 162.232 1244.22 160.192 1243.5 158.512C1242.82 156.832 1241.79 155.56 1240.4 154.696C1239.06 153.784 1237.38 153.328 1235.36 153.328C1233.1 153.328 1231.18 153.856 1229.6 154.912C1228.06 155.968 1226.89 157.432 1226.07 159.304C1225.26 161.176 1224.85 163.36 1224.85 165.856V166.288C1224.85 170.512 1225.83 173.704 1227.8 175.864C1229.82 177.976 1232.72 179.032 1236.51 179.032C1237.95 179.032 1239.46 178.84 1241.05 178.456C1242.68 178.072 1244.22 177.424 1245.66 176.512C1246.47 176.032 1247.19 175.816 1247.82 175.864C1248.49 175.912 1249.02 176.128 1249.4 176.512C1249.83 176.896 1250.1 177.376 1250.19 177.952C1250.29 178.528 1250.19 179.128 1249.9 179.752C1249.62 180.328 1249.11 180.856 1248.39 181.336C1246.76 182.44 1244.86 183.28 1242.7 183.856C1240.54 184.384 1238.46 184.648 1236.44 184.648ZM1275.9 184.648C1272.3 184.648 1269.18 183.904 1266.54 182.416C1263.95 180.88 1261.94 178.744 1260.5 176.008C1259.06 173.224 1258.34 169.96 1258.34 166.216C1258.34 163.432 1258.74 160.936 1259.56 158.728C1260.38 156.472 1261.53 154.576 1263.02 153.04C1264.55 151.504 1266.4 150.328 1268.56 149.512C1270.77 148.648 1273.22 148.216 1275.9 148.216C1277.58 148.216 1279.34 148.48 1281.16 149.008C1283.03 149.488 1284.76 150.304 1286.34 151.456C1286.97 151.84 1287.35 152.32 1287.5 152.896C1287.69 153.424 1287.71 153.976 1287.57 154.552C1287.47 155.128 1287.21 155.632 1286.78 156.064C1286.39 156.448 1285.91 156.688 1285.34 156.784C1284.76 156.832 1284.14 156.664 1283.46 156.28C1282.31 155.464 1281.14 154.888 1279.94 154.552C1278.74 154.168 1277.58 153.976 1276.48 153.976C1274.75 153.976 1273.22 154.264 1271.87 154.84C1270.58 155.368 1269.47 156.16 1268.56 157.216C1267.65 158.224 1266.95 159.496 1266.47 161.032C1266.04 162.568 1265.82 164.32 1265.82 166.288C1265.82 170.224 1266.74 173.32 1268.56 175.576C1270.43 177.784 1273.07 178.888 1276.48 178.888C1277.58 178.888 1278.74 178.72 1279.94 178.384C1281.14 178.048 1282.31 177.472 1283.46 176.656C1284.14 176.272 1284.76 176.128 1285.34 176.224C1285.91 176.32 1286.37 176.584 1286.7 177.016C1287.09 177.4 1287.33 177.88 1287.42 178.456C1287.57 178.984 1287.54 179.536 1287.35 180.112C1287.16 180.688 1286.75 181.168 1286.13 181.552C1284.59 182.656 1282.91 183.448 1281.09 183.928C1279.31 184.408 1277.58 184.648 1275.9 184.648ZM1310.39 184.648C1306.84 184.648 1303.77 183.904 1301.18 182.416C1298.63 180.928 1296.64 178.816 1295.2 176.08C1293.76 173.344 1293.04 170.128 1293.04 166.432C1293.04 163.6 1293.45 161.08 1294.27 158.872C1295.08 156.664 1296.23 154.768 1297.72 153.184C1299.26 151.552 1301.08 150.328 1303.19 149.512C1305.35 148.648 1307.75 148.216 1310.39 148.216C1313.9 148.216 1316.92 148.96 1319.47 150.448C1322.06 151.936 1324.07 154.048 1325.51 156.784C1326.95 159.472 1327.67 162.688 1327.67 166.432C1327.67 169.216 1327.27 171.736 1326.45 173.992C1325.63 176.248 1324.46 178.168 1322.92 179.752C1321.43 181.336 1319.61 182.56 1317.45 183.424C1315.34 184.24 1312.99 184.648 1310.39 184.648ZM1310.39 179.032C1312.36 179.032 1314.09 178.552 1315.58 177.592C1317.07 176.632 1318.22 175.216 1319.03 173.344C1319.9 171.472 1320.33 169.168 1320.33 166.432C1320.33 162.304 1319.42 159.184 1317.59 157.072C1315.77 154.96 1313.37 153.904 1310.39 153.904C1308.38 153.904 1306.63 154.384 1305.14 155.344C1303.65 156.256 1302.47 157.648 1301.61 159.52C1300.79 161.392 1300.39 163.696 1300.39 166.432C1300.39 170.512 1301.3 173.632 1303.12 175.792C1304.95 177.952 1307.37 179.032 1310.39 179.032ZM1341.24 184.432C1340.09 184.432 1339.2 184.096 1338.58 183.424C1337.95 182.704 1337.64 181.72 1337.64 180.472V152.392C1337.64 151.144 1337.95 150.184 1338.58 149.512C1339.2 148.84 1340.09 148.504 1341.24 148.504C1342.39 148.504 1343.28 148.84 1343.91 149.512C1344.58 150.184 1344.91 151.144 1344.91 152.392V180.472C1344.91 181.72 1344.6 182.704 1343.98 183.424C1343.35 184.096 1342.44 184.432 1341.24 184.432ZM1341.24 141.016C1339.8 141.016 1338.67 140.656 1337.86 139.936C1337.09 139.216 1336.71 138.208 1336.71 136.912C1336.71 135.568 1337.09 134.56 1337.86 133.888C1338.67 133.168 1339.8 132.808 1341.24 132.808C1342.68 132.808 1343.79 133.168 1344.55 133.888C1345.37 134.56 1345.78 135.568 1345.78 136.912C1345.78 138.208 1345.37 139.216 1344.55 139.936C1343.79 140.656 1342.68 141.016 1341.24 141.016ZM1360.55 184.504C1359.4 184.504 1358.51 184.192 1357.89 183.568C1357.26 182.896 1356.95 181.984 1356.95 180.832V152.032C1356.95 150.832 1357.26 149.92 1357.89 149.296C1358.51 148.672 1359.37 148.36 1360.48 148.36C1361.63 148.36 1362.49 148.672 1363.07 149.296C1363.69 149.92 1364.01 150.832 1364.01 152.032V157.648L1363.21 156.352C1364.27 153.664 1365.93 151.648 1368.18 150.304C1370.44 148.912 1373.03 148.216 1375.96 148.216C1378.74 148.216 1381.05 148.744 1382.87 149.8C1384.74 150.808 1386.13 152.368 1387.05 154.48C1387.96 156.544 1388.41 159.16 1388.41 162.328V180.832C1388.41 181.984 1388.1 182.896 1387.48 183.568C1386.85 184.192 1385.97 184.504 1384.81 184.504C1383.61 184.504 1382.7 184.192 1382.08 183.568C1381.45 182.896 1381.14 181.984 1381.14 180.832V162.76C1381.14 159.736 1380.54 157.528 1379.34 156.136C1378.19 154.744 1376.37 154.048 1373.87 154.048C1370.94 154.048 1368.59 154.96 1366.81 156.784C1365.09 158.608 1364.22 161.056 1364.22 164.128V180.832C1364.22 183.28 1363 184.504 1360.55 184.504ZM1412.55 184.648C1410.43 184.648 1408.25 184.408 1405.99 183.928C1403.79 183.448 1401.75 182.632 1399.87 181.48C1399.25 181.048 1398.82 180.568 1398.58 180.04C1398.34 179.512 1398.24 178.984 1398.29 178.456C1398.39 177.88 1398.6 177.4 1398.94 177.016C1399.32 176.584 1399.78 176.32 1400.31 176.224C1400.88 176.128 1401.48 176.248 1402.11 176.584C1403.98 177.64 1405.78 178.384 1407.51 178.816C1409.23 179.2 1410.94 179.392 1412.62 179.392C1415.16 179.392 1417.08 178.936 1418.38 178.024C1419.67 177.112 1420.32 175.888 1420.32 174.352C1420.32 173.104 1419.89 172.144 1419.03 171.472C1418.16 170.752 1416.87 170.2 1415.14 169.816L1408.3 168.448C1405.32 167.824 1403.07 166.72 1401.53 165.136C1399.99 163.552 1399.23 161.536 1399.23 159.088C1399.23 156.88 1399.83 154.96 1401.03 153.328C1402.23 151.696 1403.91 150.448 1406.07 149.584C1408.23 148.672 1410.72 148.216 1413.55 148.216C1415.67 148.216 1417.66 148.48 1419.53 149.008C1421.4 149.536 1423.13 150.328 1424.71 151.384C1425.34 151.72 1425.75 152.176 1425.94 152.752C1426.13 153.28 1426.15 153.808 1426.01 154.336C1425.91 154.864 1425.67 155.344 1425.29 155.776C1424.91 156.16 1424.43 156.4 1423.85 156.496C1423.32 156.544 1422.72 156.4 1422.05 156.064C1420.61 155.152 1419.17 154.504 1417.73 154.12C1416.34 153.736 1414.95 153.544 1413.55 153.544C1411.01 153.544 1409.09 154.024 1407.79 154.984C1406.55 155.896 1405.92 157.144 1405.92 158.728C1405.92 159.928 1406.31 160.912 1407.07 161.68C1407.84 162.448 1409.04 163 1410.67 163.336L1417.51 164.704C1420.63 165.328 1422.99 166.384 1424.57 167.872C1426.2 169.36 1427.02 171.376 1427.02 173.92C1427.02 177.232 1425.7 179.848 1423.06 181.768C1420.42 183.688 1416.91 184.648 1412.55 184.648ZM1440.44 170.32C1439.67 170.32 1439.07 170.08 1438.64 169.6C1438.25 169.12 1438.01 168.448 1437.92 167.584L1436.19 137.488C1436.09 136.048 1436.4 134.896 1437.12 134.032C1437.84 133.168 1438.95 132.736 1440.44 132.736C1441.83 132.736 1442.88 133.168 1443.6 134.032C1444.32 134.896 1444.61 136.048 1444.47 137.488L1442.74 167.584C1442.69 168.448 1442.45 169.12 1442.02 169.6C1441.64 170.08 1441.11 170.32 1440.44 170.32ZM1440.44 184.288C1439.04 184.288 1437.92 183.856 1437.05 182.992C1436.19 182.128 1435.76 181.024 1435.76 179.68C1435.76 178.336 1436.19 177.256 1437.05 176.44C1437.92 175.576 1439.04 175.144 1440.44 175.144C1441.83 175.144 1442.93 175.576 1443.75 176.44C1444.56 177.256 1444.97 178.336 1444.97 179.68C1444.97 181.024 1444.56 182.128 1443.75 182.992C1442.93 183.856 1441.83 184.288 1440.44 184.288Z" fill="white"/>
</svg>
