<svg width="735" height="284" viewBox="0 0 735 284" fill="none" xmlns="http://www.w3.org/2000/svg">
<path d="M85.9961 88.0547C83.8542 90.7435 81.2109 93.0905 78.0664 95.0957C74.9219 97.1009 71.5495 98.7643 67.9492 100.086C64.349 101.408 60.6576 102.387 56.875 103.025C53.0924 103.709 49.4922 104.051 46.0742 104.051C39.4661 104.051 33.3822 102.866 27.8223 100.496C22.2624 98.1263 17.4544 94.8678 13.3984 90.7207C9.38802 86.528 6.24349 81.6061 3.96484 75.9551C1.6862 70.304 0.546875 64.2201 0.546875 57.7031C0.546875 52.7357 1.11654 47.8822 2.25586 43.1426C3.39518 38.3574 5.01302 33.8685 7.10938 29.6758C9.2513 25.4375 11.849 21.5638 14.9023 18.0547C17.9557 14.5 21.4193 11.4466 25.293 8.89453C29.1667 6.34245 33.4049 4.36003 38.0078 2.94727C42.6107 1.53451 47.5326 0.828125 52.7734 0.828125C54.7331 0.828125 56.8294 0.919271 59.0625 1.10156C61.2956 1.23828 63.5059 1.51172 65.6934 1.92188C67.9264 2.28646 70.0911 2.81055 72.1875 3.49414C74.2839 4.17773 76.1979 5.02083 77.9297 6.02344L76.0156 32.1367C73.4635 31.1797 70.8203 30.5417 68.0859 30.2227C65.3971 29.8581 62.7539 29.6758 60.1562 29.6758C56.5104 29.6758 53.0924 30.2454 49.9023 31.3848C46.7578 32.4785 44.0007 34.0736 41.6309 36.1699C39.3066 38.2663 37.4609 40.8184 36.0938 43.8262C34.7266 46.834 34.043 50.2292 34.043 54.0117C34.043 56.3815 34.362 58.6829 35 60.916C35.638 63.1035 36.5951 65.0632 37.8711 66.7949C39.1927 68.4811 40.8105 69.8483 42.7246 70.8965C44.6842 71.9447 46.9401 72.4688 49.4922 72.4688C51.224 72.4688 53.0013 72.2409 54.8242 71.7852C56.6927 71.3294 58.2878 70.5547 59.6094 69.4609L59.8828 64.1289L43.4766 63.8555L44.2969 43.3477C51.0872 43.1198 57.8776 42.9375 64.668 42.8008C71.4583 42.6185 78.2943 42.3906 85.1758 42.1172L85.9961 88.0547ZM183.061 96.1211L149.155 100.496L145.053 85.0469H129.467L126.049 100.496L91.1859 97.0781L118.393 6.02344L156.401 4.10938L183.061 96.1211ZM142.592 64.1289L137.397 40.3398L132.338 64.1289H142.592ZM309.589 55.6523C309.589 62.1693 309.384 68.6634 308.973 75.1348C308.563 81.6061 308.085 88.1003 307.538 94.6172L272.401 96.2578C273.449 88.3281 274.384 80.3984 275.204 72.4688C276.07 64.4935 276.503 56.5182 276.503 48.543C276.503 48.0417 276.48 47.1758 276.434 45.9453C276.389 44.6693 276.298 43.2337 276.161 41.6387C276.07 40.0436 275.91 38.403 275.682 36.7168C275.5 34.985 275.227 33.4128 274.862 32C274.543 30.5417 274.133 29.3568 273.632 28.4453C273.13 27.5339 272.538 27.0781 271.854 27.0781C270.259 27.0781 269.006 27.6934 268.095 28.9238C267.183 30.1087 266.499 31.5443 266.044 33.2305C265.634 34.9167 265.383 36.6484 265.292 38.4258C265.201 40.1576 265.155 41.5703 265.155 42.6641C265.155 44.5781 265.201 46.4922 265.292 48.4062C265.383 50.3203 265.429 52.2799 265.429 54.2852C265.429 61.349 265.246 68.39 264.882 75.4082C264.563 82.4264 264.152 89.4674 263.651 96.5312L231.249 97.7617C232.297 89.832 233.208 81.9251 233.983 74.041C234.804 66.1113 235.214 58.1589 235.214 50.1836C235.214 49.6823 235.191 48.7708 235.145 47.4492C235.1 46.1276 235.009 44.6465 234.872 43.0059C234.781 41.3652 234.621 39.6562 234.393 37.8789C234.165 36.1016 233.869 34.4837 233.505 33.0254C233.186 31.5215 232.776 30.291 232.274 29.334C231.773 28.377 231.158 27.8984 230.429 27.8984C229.289 27.8984 228.332 28.3542 227.557 29.2656C226.783 30.1315 226.145 31.2708 225.643 32.6836C225.188 34.0964 224.823 35.6686 224.55 37.4004C224.322 39.0866 224.139 40.75 224.003 42.3906C223.912 44.0312 223.843 45.5579 223.798 46.9707C223.798 48.3379 223.775 49.3633 223.729 50.0469L222.225 99.9492H187.772C188.501 92.2474 189.231 84.5228 189.96 76.7754C190.735 69.028 191.395 61.3034 191.942 53.6016C192.535 45.8542 193.013 38.1068 193.378 30.3594C193.742 22.612 193.925 14.8646 193.925 7.11719L226.464 5.75L226.327 13.6797C227.33 12.4036 228.469 11.1276 229.745 9.85156C231.021 8.52995 232.365 7.36784 233.778 6.36523C235.236 5.31706 236.763 4.47396 238.358 3.83594C239.999 3.19792 241.685 2.87891 243.417 2.87891C245.65 2.87891 247.655 3.0612 249.432 3.42578C251.21 3.74479 252.805 4.31445 254.218 5.13477C255.676 5.95508 256.952 7.0944 258.046 8.55273C259.139 9.96549 260.096 11.7656 260.917 13.9531C262.375 12.3581 263.833 10.877 265.292 9.50977C266.796 8.14258 268.368 6.98047 270.009 6.02344C271.649 5.02083 273.427 4.24609 275.341 3.69922C277.255 3.15234 279.374 2.87891 281.698 2.87891C286.119 2.87891 289.878 3.74479 292.977 5.47656C296.076 7.16276 298.651 9.41862 300.702 12.2441C302.798 15.0697 304.416 18.3053 305.555 21.9512C306.74 25.597 307.629 29.3796 308.221 33.2988C308.814 37.2181 309.179 41.1146 309.315 44.9883C309.498 48.862 309.589 52.4167 309.589 55.6523ZM397.767 46.7656C397.767 50.7305 397.493 54.6953 396.946 58.6602C389.154 59.1615 381.406 59.9818 373.704 61.1211C366.002 62.2148 358.301 63.3086 350.599 64.4023C351.784 67.6836 353.629 70.304 356.136 72.2637C358.688 74.2233 361.719 75.2031 365.228 75.2031C367.051 75.2031 369.033 74.8613 371.175 74.1777C373.362 73.4941 375.527 72.651 377.669 71.6484C379.811 70.6003 381.862 69.4837 383.821 68.2988C385.781 67.1139 387.467 66.043 388.88 65.0859L385.599 96.1211C383.821 97.4883 381.885 98.6504 379.788 99.6074C377.737 100.564 375.596 101.339 373.362 101.932C371.129 102.524 368.874 102.957 366.595 103.23C364.316 103.504 362.083 103.641 359.896 103.641C355.384 103.641 351.26 103.025 347.523 101.795C343.786 100.564 340.39 98.8555 337.337 96.668C334.329 94.4349 331.686 91.8145 329.407 88.8066C327.129 85.7988 325.237 82.5176 323.734 78.9629C322.23 75.4082 321.09 71.6484 320.316 67.6836C319.541 63.7188 319.154 59.7083 319.154 55.6523C319.154 51.4141 319.541 47.1758 320.316 42.9375C321.09 38.6992 322.252 34.6204 323.802 30.7012C325.397 26.7819 327.379 23.1589 329.749 19.832C332.165 16.4596 334.967 13.5202 338.157 11.0137C341.348 8.50716 344.948 6.54753 348.958 5.13477C353.014 3.72201 357.48 3.01562 362.357 3.01562C366.413 3.01562 370.104 3.58529 373.431 4.72461C376.803 5.81836 379.788 7.36784 382.386 9.37305C385.029 11.3327 387.308 13.6797 389.222 16.4141C391.181 19.1484 392.777 22.1562 394.007 25.4375C395.283 28.6732 396.217 32.1139 396.81 35.7598C397.448 39.36 397.767 43.0286 397.767 46.7656ZM370.423 43.2109C370.423 41.9349 370.286 40.6361 370.013 39.3145C369.739 37.9473 369.284 36.7168 368.646 35.623C368.053 34.5293 367.256 33.6406 366.253 32.957C365.251 32.2279 363.997 31.8633 362.493 31.8633C360.67 31.8633 359.053 32.3646 357.64 33.3672C356.273 34.3242 355.088 35.5547 354.085 37.0586C353.083 38.5169 352.262 40.112 351.624 41.8438C350.986 43.5755 350.508 45.1706 350.189 46.6289L370.423 44.7148V43.2109ZM487.517 38.9727C487.517 43.3932 486.856 47.3125 485.535 50.7305C484.213 54.1484 482.39 57.1562 480.066 59.7539C477.787 62.306 475.099 64.4707 472 66.248C468.901 67.9798 465.574 69.4154 462.019 70.5547C458.51 71.6484 454.864 72.4688 451.082 73.0156C447.299 73.5169 443.585 73.7904 439.939 73.8359V102.957H408.084C408.084 97.7617 408.084 92.7031 408.084 87.7812C408.129 82.8594 408.152 77.9831 408.152 73.1523C408.198 68.276 408.22 63.377 408.22 58.4551C408.266 53.5332 408.311 48.4518 408.357 43.2109C408.448 37.651 408.471 32.0911 408.425 26.5312C408.38 20.9714 408.494 15.3659 408.767 9.71484C414.601 7.98307 420.434 6.68424 426.267 5.81836C432.101 4.95247 438.116 4.51953 444.314 4.51953C447.823 4.51953 451.332 4.81576 454.841 5.4082C458.351 5.95508 461.7 6.84375 464.89 8.07422C468.126 9.30469 471.111 10.8542 473.845 12.7227C476.625 14.5456 479.018 16.7331 481.023 19.2852C483.028 21.8372 484.601 24.7539 485.74 28.0352C486.925 31.3164 487.517 34.9622 487.517 38.9727ZM457.166 41.2969C457.166 38.3346 456.254 36.0332 454.431 34.3926C452.654 32.7064 450.33 31.8633 447.459 31.8633C446.502 31.8633 445.499 31.9544 444.451 32.1367C443.448 32.2734 442.491 32.4557 441.58 32.6836L440.759 52.6445C441.397 52.7357 442.013 52.7812 442.605 52.7812C443.198 52.7812 443.813 52.7812 444.451 52.7812C446.091 52.7812 447.664 52.5078 449.168 51.9609C450.717 51.4141 452.084 50.6393 453.269 49.6367C454.454 48.5885 455.388 47.3809 456.072 46.0137C456.801 44.6009 457.166 43.0286 457.166 41.2969ZM556.965 65.7695L554.094 96.1211L496.535 100.633L498.723 3.01562H534.27L529.211 65.7695H556.965ZM651.979 96.1211L618.073 100.496L613.971 85.0469H598.385L594.967 100.496L560.104 97.0781L587.311 6.02344L625.319 4.10938L651.979 96.1211ZM611.51 64.1289L606.315 40.3398L601.256 64.1289H611.51ZM734.962 9.44141L702.833 61.9414L703.79 100.633H668.653L669.473 62.2148L644.454 11.4922L679.317 7.11719L690.255 36.6484L702.149 7.11719L734.962 9.44141ZM68.2227 183.426C67.9492 187.71 67.6986 191.948 67.4707 196.141C67.2428 200.333 66.9466 204.572 66.582 208.855L37.5977 210.359V218.973H62.7539L61.3867 240.164L37.4609 240.848L37.5977 281.316L3.00781 282L5.19531 183.426H68.2227ZM152.231 226.766C152.231 230.73 151.957 234.695 151.411 238.66C143.618 239.161 135.87 239.982 128.168 241.121C120.467 242.215 112.765 243.309 105.063 244.402C106.248 247.684 108.093 250.304 110.6 252.264C113.152 254.223 116.183 255.203 119.692 255.203C121.515 255.203 123.497 254.861 125.639 254.178C127.827 253.494 129.991 252.651 132.133 251.648C134.275 250.6 136.326 249.484 138.286 248.299C140.245 247.114 141.931 246.043 143.344 245.086L140.063 276.121C138.286 277.488 136.349 278.65 134.252 279.607C132.202 280.564 130.06 281.339 127.827 281.932C125.593 282.524 123.338 282.957 121.059 283.23C118.78 283.504 116.547 283.641 114.36 283.641C109.848 283.641 105.724 283.025 101.987 281.795C98.2497 280.564 94.8546 278.855 91.8012 276.668C88.7934 274.435 86.1501 271.814 83.8715 268.807C81.5928 265.799 79.7016 262.518 78.1977 258.963C76.6937 255.408 75.5544 251.648 74.7797 247.684C74.0049 243.719 73.6176 239.708 73.6176 235.652C73.6176 231.414 74.0049 227.176 74.7797 222.938C75.5544 218.699 76.7165 214.62 78.266 210.701C79.8611 206.782 81.8435 203.159 84.2133 199.832C86.6286 196.46 89.4314 193.52 92.6215 191.014C95.8116 188.507 99.4118 186.548 103.422 185.135C107.478 183.722 111.944 183.016 116.821 183.016C120.877 183.016 124.568 183.585 127.895 184.725C131.267 185.818 134.252 187.368 136.85 189.373C139.493 191.333 141.772 193.68 143.686 196.414C145.646 199.148 147.241 202.156 148.471 205.438C149.747 208.673 150.681 212.114 151.274 215.76C151.912 219.36 152.231 223.029 152.231 226.766ZM124.887 223.211C124.887 221.935 124.75 220.636 124.477 219.314C124.204 217.947 123.748 216.717 123.11 215.623C122.517 214.529 121.72 213.641 120.717 212.957C119.715 212.228 118.461 211.863 116.957 211.863C115.135 211.863 113.517 212.365 112.104 213.367C110.737 214.324 109.552 215.555 108.549 217.059C107.547 218.517 106.726 220.112 106.088 221.844C105.45 223.576 104.972 225.171 104.653 226.629L124.887 224.715V223.211ZM244.716 276.121L210.809 280.496L206.708 265.047H191.122L187.704 280.496L152.841 277.078L180.048 186.023L218.055 184.109L244.716 276.121ZM204.247 244.129L199.052 220.34L193.993 244.129H204.247ZM315.667 185.613L314.984 214.598L294.613 215.418L292.152 278.855L263.304 280.359L260.706 216.922L240.335 218.016L241.155 185.75L315.667 185.613ZM406.648 185.75C404.597 201.792 402.843 217.765 401.384 233.67C399.926 249.529 398.536 265.503 397.214 281.59L369.187 283.641L370.418 273.113C369.506 274.161 368.435 275.073 367.205 275.848C366.02 276.622 364.744 277.26 363.377 277.762C362.009 278.217 360.597 278.559 359.138 278.787C357.68 278.969 356.29 279.038 354.968 278.992C351.869 278.947 348.953 278.354 346.218 277.215C343.484 276.03 340.977 274.48 338.699 272.566C336.42 270.607 334.369 268.351 332.546 265.799C330.724 263.201 329.174 260.49 327.898 257.664C326.668 254.793 325.711 251.876 325.027 248.914C324.389 245.952 324.07 243.081 324.07 240.301C324.07 236.199 324.138 231.961 324.275 227.586C324.457 223.165 324.754 218.745 325.164 214.324C325.574 209.904 326.098 205.529 326.736 201.199C327.42 196.87 328.263 192.723 329.265 188.758C334.825 189.031 340.408 189.282 346.013 189.51C351.619 189.738 357.201 189.806 362.761 189.715C361.713 193.68 360.665 197.667 359.617 201.678C358.614 205.643 357.703 209.653 356.882 213.709C356.062 217.719 355.401 221.753 354.9 225.809C354.399 229.865 354.148 233.966 354.148 238.113C354.148 239.07 354.194 240.438 354.285 242.215C354.376 243.992 354.604 245.747 354.968 247.479C355.379 249.21 355.971 250.737 356.746 252.059C357.566 253.335 358.705 253.973 360.164 253.973C361.895 253.973 363.445 253.243 364.812 251.785C366.179 250.281 367.387 248.276 368.435 245.77C369.483 243.263 370.372 240.369 371.101 237.088C371.876 233.807 372.514 230.389 373.015 226.834C373.562 223.234 373.995 219.611 374.314 215.965C374.633 212.319 374.861 208.901 374.998 205.711C375.18 202.475 375.294 199.581 375.339 197.029C375.431 194.477 375.476 192.495 375.476 191.082C375.476 190.171 375.453 189.282 375.408 188.416C375.362 187.55 375.294 186.661 375.203 185.75C378.165 185.841 381.104 185.91 384.021 185.955C386.938 186.001 389.877 186.023 392.839 186.023C395.118 186.023 397.397 186.023 399.675 186.023C402 185.978 404.324 185.887 406.648 185.75ZM496.467 216.102C496.467 219.656 496.148 222.892 495.51 225.809C494.917 228.68 493.96 231.323 492.639 233.738C491.317 236.154 489.608 238.387 487.512 240.438C485.415 242.488 482.886 244.448 479.924 246.316L496.193 275.301L465.432 281.316L454.904 252.195L446.428 252.469L445.197 280.906H415.803C416.031 270.516 416.236 260.171 416.418 249.871C416.646 239.572 416.896 229.227 417.17 218.836C417.261 213.595 417.352 208.4 417.443 203.25C417.535 198.1 417.717 192.905 417.99 187.664C421.18 186.479 424.325 185.499 427.424 184.725C430.523 183.95 433.622 183.357 436.721 182.947C439.865 182.492 443.033 182.195 446.223 182.059C449.458 181.876 452.762 181.785 456.135 181.785C461.33 181.785 466.343 182.514 471.174 183.973C476.05 185.385 480.357 187.527 484.094 190.398C487.831 193.27 490.816 196.847 493.049 201.131C495.327 205.415 496.467 210.405 496.467 216.102ZM465.842 218.289C465.842 216.375 465.568 214.62 465.021 213.025C464.52 211.43 463.745 210.063 462.697 208.924C461.695 207.739 460.419 206.827 458.869 206.189C457.365 205.506 455.588 205.164 453.537 205.164C452.626 205.164 451.737 205.232 450.871 205.369C450.005 205.46 449.162 205.62 448.342 205.848L447.248 231.277H448.889C450.848 231.277 452.831 231.027 454.836 230.525C456.887 230.024 458.71 229.249 460.305 228.201C461.945 227.153 463.267 225.809 464.27 224.168C465.318 222.527 465.842 220.568 465.842 218.289ZM582.457 226.766C582.457 230.73 582.184 234.695 581.637 238.66C573.844 239.161 566.097 239.982 558.395 241.121C550.693 242.215 542.991 243.309 535.289 244.402C536.474 247.684 538.32 250.304 540.827 252.264C543.379 254.223 546.409 255.203 549.918 255.203C551.741 255.203 553.724 254.861 555.866 254.178C558.053 253.494 560.218 252.651 562.36 251.648C564.502 250.6 566.552 249.484 568.512 248.299C570.472 247.114 572.158 246.043 573.571 245.086L570.289 276.121C568.512 277.488 566.575 278.65 564.479 279.607C562.428 280.564 560.286 281.339 558.053 281.932C555.82 282.524 553.564 282.957 551.286 283.23C549.007 283.504 546.774 283.641 544.586 283.641C540.075 283.641 535.95 283.025 532.213 281.795C528.476 280.564 525.081 278.855 522.028 276.668C519.02 274.435 516.377 271.814 514.098 268.807C511.819 265.799 509.928 262.518 508.424 258.963C506.92 255.408 505.781 251.648 505.006 247.684C504.232 243.719 503.844 239.708 503.844 235.652C503.844 231.414 504.232 227.176 505.006 222.938C505.781 218.699 506.943 214.62 508.493 210.701C510.088 206.782 512.07 203.159 514.44 199.832C516.855 196.46 519.658 193.52 522.848 191.014C526.038 188.507 529.638 186.548 533.649 185.135C537.705 183.722 542.171 183.016 547.047 183.016C551.103 183.016 554.795 183.585 558.121 184.725C561.494 185.818 564.479 187.368 567.077 189.373C569.72 191.333 571.998 193.68 573.913 196.414C575.872 199.148 577.467 202.156 578.698 205.438C579.974 208.673 580.908 212.114 581.5 215.76C582.138 219.36 582.457 223.029 582.457 226.766ZM555.114 223.211C555.114 221.935 554.977 220.636 554.704 219.314C554.43 217.947 553.974 216.717 553.336 215.623C552.744 214.529 551.946 213.641 550.944 212.957C549.941 212.228 548.688 211.863 547.184 211.863C545.361 211.863 543.743 212.365 542.33 213.367C540.963 214.324 539.778 215.555 538.776 217.059C537.773 218.517 536.953 220.112 536.315 221.844C535.677 223.576 535.198 225.171 534.879 226.629L555.114 224.715V223.211ZM662.638 247C662.638 253.243 661.544 258.644 659.356 263.201C657.214 267.713 654.252 271.45 650.47 274.412C646.733 277.329 642.335 279.493 637.276 280.906C632.263 282.273 626.863 282.957 621.075 282.957C618.842 282.957 616.381 282.661 613.692 282.068C611.049 281.476 608.36 280.747 605.626 279.881C602.891 278.969 600.248 278.012 597.696 277.01C595.19 275.962 592.957 274.982 590.997 274.07L594.005 247.273C597.878 249.598 602.162 251.375 606.856 252.605C611.596 253.79 616.244 254.383 620.802 254.383C621.667 254.383 622.716 254.36 623.946 254.314C625.177 254.223 626.339 254.018 627.432 253.699C628.572 253.335 629.529 252.811 630.304 252.127C631.078 251.443 631.466 250.464 631.466 249.188C631.466 248.322 631.192 247.592 630.645 247C630.098 246.362 629.392 245.861 628.526 245.496C627.66 245.086 626.68 244.79 625.587 244.607C624.493 244.38 623.422 244.22 622.374 244.129C621.326 244.038 620.346 243.992 619.434 243.992C618.523 243.992 617.794 243.992 617.247 243.992C613.328 243.992 609.75 243.377 606.514 242.146C603.324 240.916 600.567 239.184 598.243 236.951C595.964 234.673 594.187 231.938 592.911 228.748C591.635 225.512 590.997 221.935 590.997 218.016C590.997 212.638 592.068 207.83 594.21 203.592C596.397 199.308 599.291 195.685 602.891 192.723C606.537 189.715 610.707 187.413 615.401 185.818C620.095 184.223 624.949 183.426 629.962 183.426C632.195 183.426 634.496 183.517 636.866 183.699C639.236 183.836 641.583 184.109 643.907 184.52C646.277 184.93 648.578 185.454 650.811 186.092C653.044 186.73 655.164 187.527 657.169 188.484L654.571 216.238C651.472 215.19 648.214 214.324 644.796 213.641C641.423 212.911 638.119 212.547 634.884 212.547C634.291 212.547 633.516 212.57 632.559 212.615C631.648 212.615 630.668 212.684 629.62 212.82C628.617 212.911 627.592 213.071 626.544 213.299C625.496 213.527 624.561 213.846 623.741 214.256C622.921 214.62 622.26 215.122 621.759 215.76C621.257 216.398 621.029 217.15 621.075 218.016C621.121 219.018 621.485 219.793 622.169 220.34C622.898 220.887 623.809 221.297 624.903 221.57C626.042 221.798 627.273 221.912 628.595 221.912C629.962 221.912 631.306 221.889 632.628 221.844C633.949 221.753 635.18 221.684 636.319 221.639C637.458 221.548 638.393 221.525 639.122 221.57C642.768 221.798 646.049 222.573 648.966 223.895C651.882 225.216 654.343 226.971 656.348 229.158C658.399 231.346 659.949 233.966 660.997 237.02C662.091 240.027 662.638 243.354 662.638 247Z" fill="white"/>
</svg>
