<svg width="735" height="84" viewBox="0 0 735 84" fill="none" xmlns="http://www.w3.org/2000/svg">
<path d="M66.0625 71.8008L41.8438 74.9258L38.9141 63.8906H27.7812L25.3398 74.9258L0.4375 72.4844L19.8711 7.44531L47.0195 6.07812L66.0625 71.8008ZM37.1562 48.9492L33.4453 31.957L29.832 48.9492H37.1562ZM127.924 58.6172C127.924 61.319 127.419 63.6465 126.41 65.5996C125.434 67.5527 124.115 69.2129 122.455 70.5801C120.795 71.9473 118.874 73.0703 116.693 73.9492C114.545 74.7956 112.299 75.4629 109.955 75.9512C107.611 76.4395 105.251 76.765 102.875 76.9277C100.531 77.0905 98.334 77.1719 96.2832 77.1719C94.265 77.1719 92.1654 77.0905 89.9844 76.9277C87.8359 76.7975 85.6875 76.5534 83.5391 76.1953C81.3906 75.8372 79.2747 75.3652 77.1914 74.7793C75.1081 74.1608 73.1387 73.3958 71.2832 72.4844L71.1855 9.59375C73.0085 8.84505 74.9453 8.17773 76.9961 7.5918C79.0469 6.97331 81.1302 6.46875 83.2461 6.07812C85.3945 5.65495 87.5267 5.3457 89.6426 5.15039C91.7585 4.92253 93.8092 4.80859 95.7949 4.80859C98.1061 4.80859 100.434 4.95508 102.777 5.24805C105.154 5.54102 107.432 6.0293 109.613 6.71289C111.794 7.39648 113.829 8.29167 115.717 9.39844C117.605 10.4727 119.249 11.8073 120.648 13.4023C122.081 14.9974 123.188 16.8529 123.969 18.9688C124.783 21.0846 125.189 23.526 125.189 26.293C125.189 28.1159 124.929 29.8249 124.408 31.4199C123.887 33.015 123.139 34.4473 122.162 35.7168C121.186 36.9863 119.997 38.0768 118.598 38.9883C117.198 39.8672 115.619 40.5182 113.861 40.9414C115.977 41.4948 117.898 42.3086 119.623 43.3828C121.381 44.457 122.862 45.7591 124.066 47.2891C125.303 48.819 126.247 50.5443 126.898 52.4648C127.582 54.3854 127.924 56.4362 127.924 58.6172ZM103.119 30.7852C103.119 29.8411 102.924 29.0436 102.533 28.3926C102.143 27.709 101.654 27.1556 101.068 26.7324C100.515 26.3092 99.8965 26 99.2129 25.8047C98.5618 25.6094 97.9759 25.5117 97.4551 25.5117C96.804 25.5117 96.1693 25.6094 95.5508 25.8047C94.9323 26 94.3301 26.2279 93.7441 26.4883L93.4512 37.3281C94.1999 37.3281 95.1276 37.263 96.2344 37.1328C97.3411 37.0026 98.3991 36.7259 99.4082 36.3027C100.45 35.847 101.329 35.196 102.045 34.3496C102.761 33.4707 103.119 32.2826 103.119 30.7852ZM96.1855 46.7031C95.2415 46.7031 94.3301 46.8008 93.4512 46.9961L93.2559 58.1289C93.7441 58.2266 94.2161 58.3242 94.6719 58.4219C95.1602 58.487 95.6322 58.5195 96.0879 58.5195C96.7715 58.5195 97.5202 58.4544 98.334 58.3242C99.1478 58.1615 99.9128 57.8685 100.629 57.4453C101.345 56.9896 101.931 56.3874 102.387 55.6387C102.875 54.89 103.119 53.8971 103.119 52.6602C103.119 51.4232 102.875 50.4141 102.387 49.6328C101.931 48.8516 101.361 48.2493 100.678 47.8262C99.9941 47.3704 99.2454 47.0775 98.4316 46.9473C97.6178 46.7845 96.8691 46.7031 96.1855 46.7031ZM193.74 38.5977C193.74 41.5599 193.398 44.4245 192.715 47.1914C192.031 49.9258 191.038 52.4974 189.736 54.9062C188.467 57.3151 186.904 59.5286 185.049 61.5469C183.226 63.5326 181.159 65.2415 178.848 66.6738C176.569 68.1061 174.079 69.2292 171.377 70.043C168.675 70.8242 165.811 71.2148 162.783 71.2148C159.854 71.2148 157.054 70.8405 154.385 70.0918C151.748 69.3431 149.274 68.3014 146.963 66.9668C144.652 65.5996 142.552 63.972 140.664 62.084C138.809 60.1634 137.214 58.0475 135.879 55.7363C134.577 53.3926 133.551 50.8861 132.803 48.2168C132.087 45.5475 131.729 42.7643 131.729 39.8672C131.729 37.0352 132.07 34.2682 132.754 31.5664C133.438 28.832 134.414 26.2604 135.684 23.8516C136.986 21.4427 138.548 19.2292 140.371 17.2109C142.194 15.1927 144.229 13.4512 146.475 11.9863C148.753 10.5215 151.211 9.38216 153.848 8.56836C156.484 7.75456 159.268 7.34766 162.197 7.34766C166.917 7.34766 171.214 8.08008 175.088 9.54492C178.994 11.0098 182.314 13.1094 185.049 15.8438C187.816 18.5456 189.948 21.8333 191.445 25.707C192.975 29.5482 193.74 33.8451 193.74 38.5977ZM172.061 39.8672C172.061 38.4674 171.849 37.1165 171.426 35.8145C171.035 34.4798 170.449 33.3079 169.668 32.2988C168.887 31.2572 167.91 30.4271 166.738 29.8086C165.599 29.1576 164.281 28.832 162.783 28.832C161.253 28.832 159.886 29.1087 158.682 29.6621C157.477 30.2155 156.436 30.9805 155.557 31.957C154.71 32.901 154.059 34.0241 153.604 35.3262C153.148 36.5957 152.92 37.9466 152.92 39.3789C152.92 40.7461 153.115 42.1133 153.506 43.4805C153.896 44.8477 154.482 46.0846 155.264 47.1914C156.045 48.2982 157.005 49.1934 158.145 49.877C159.316 50.5605 160.667 50.9023 162.197 50.9023C163.727 50.9023 165.094 50.6094 166.299 50.0234C167.536 49.4049 168.577 48.5911 169.424 47.582C170.27 46.5404 170.921 45.3522 171.377 44.0176C171.833 42.6829 172.061 41.2995 172.061 39.8672ZM259.361 7.25C257.896 18.7083 256.643 30.1178 255.602 41.4785C254.56 52.8066 253.567 64.2161 252.623 75.707L232.604 77.1719L233.482 69.6523C232.831 70.401 232.066 71.0521 231.188 71.6055C230.341 72.1589 229.43 72.6146 228.453 72.9727C227.477 73.2982 226.467 73.5423 225.426 73.7051C224.384 73.8353 223.391 73.8841 222.447 73.8516C220.234 73.819 218.15 73.3958 216.197 72.582C214.244 71.7357 212.454 70.6289 210.826 69.2617C209.199 67.862 207.734 66.2507 206.432 64.4277C205.13 62.5723 204.023 60.6354 203.111 58.6172C202.232 56.5664 201.549 54.4831 201.061 52.3672C200.605 50.2513 200.377 48.2005 200.377 46.2148C200.377 43.2852 200.426 40.2578 200.523 37.1328C200.654 33.9753 200.865 30.8177 201.158 27.6602C201.451 24.5026 201.826 21.3776 202.281 18.2852C202.77 15.1927 203.372 12.2305 204.088 9.39844C208.059 9.59375 212.047 9.77279 216.051 9.93555C220.055 10.0983 224.042 10.1471 228.014 10.082C227.265 12.9141 226.516 15.7624 225.768 18.627C225.051 21.459 224.4 24.3236 223.814 27.2207C223.229 30.0853 222.757 32.9661 222.398 35.8633C222.04 38.7604 221.861 41.6901 221.861 44.6523C221.861 45.3359 221.894 46.3125 221.959 47.582C222.024 48.8516 222.187 50.1048 222.447 51.3418C222.74 52.5788 223.163 53.6693 223.717 54.6133C224.303 55.5247 225.117 55.9805 226.158 55.9805C227.395 55.9805 228.502 55.4596 229.479 54.418C230.455 53.3438 231.318 51.9115 232.066 50.1211C232.815 48.3307 233.45 46.2637 233.971 43.9199C234.524 41.5762 234.98 39.1348 235.338 36.5957C235.729 34.0241 236.038 31.4362 236.266 28.832C236.493 26.2279 236.656 23.7865 236.754 21.5078C236.884 19.1966 236.965 17.1296 236.998 15.3066C237.063 13.4837 237.096 12.0677 237.096 11.0586C237.096 10.4076 237.079 9.77279 237.047 9.1543C237.014 8.53581 236.965 7.90104 236.9 7.25C239.016 7.3151 241.116 7.36393 243.199 7.39648C245.283 7.42904 247.382 7.44531 249.498 7.44531C251.126 7.44531 252.753 7.44531 254.381 7.44531C256.041 7.41276 257.701 7.34766 259.361 7.25ZM318 7.15234L317.512 27.8555L302.961 28.4414L301.203 73.7539L280.598 74.8281L278.742 29.5156L264.191 30.2969L264.777 7.25L318 7.15234ZM360.131 82.7383L360.619 63.5C359.577 63.3047 358.52 63.0768 357.445 62.8164C356.371 62.5234 355.313 62.2305 354.271 61.9375C353.262 61.612 352.286 61.2865 351.342 60.9609C350.398 60.6354 349.551 60.3099 348.803 59.9844L350.463 47.9727C352.514 49.0143 354.809 49.7956 357.348 50.3164C359.887 50.8372 362.41 51.0977 364.916 51.0977C365.372 51.0977 365.925 51.0814 366.576 51.0488C367.26 51.0163 367.911 50.9349 368.529 50.8047C369.148 50.6419 369.669 50.3978 370.092 50.0723C370.548 49.7467 370.775 49.3073 370.775 48.7539C370.775 48.168 370.45 47.7285 369.799 47.4355C369.18 47.11 368.432 46.8822 367.553 46.752C366.706 46.5892 365.844 46.4915 364.965 46.459C364.086 46.4264 363.419 46.4102 362.963 46.4102C360.847 46.4102 358.926 46.1335 357.201 45.5801C355.476 45.0267 353.979 44.2454 352.709 43.2363C351.472 42.1947 350.512 40.9577 349.828 39.5254C349.145 38.0931 348.803 36.4818 348.803 34.6914C348.803 33.0312 349.079 31.485 349.633 30.0527C350.219 28.6204 351.016 27.3184 352.025 26.1465C353.067 24.9746 354.288 23.9492 355.688 23.0703C357.12 22.1589 358.666 21.4102 360.326 20.8242L359.545 0.21875L364.818 0.707031V19.6523C365.274 19.5547 365.714 19.4896 366.137 19.457C366.56 19.3919 366.999 19.3268 367.455 19.2617L367.357 0.21875L372.631 0.316406L371.947 19.2617C374.096 19.3268 376.26 19.5384 378.441 19.8965C380.622 20.222 382.624 20.7591 384.447 21.5078L383.178 33.9102C381.452 33.4544 379.678 33.0638 377.855 32.7383C376.033 32.4128 374.291 32.25 372.631 32.25C372.11 32.25 371.41 32.2663 370.531 32.2988C369.685 32.3314 368.839 32.429 367.992 32.5918C367.178 32.7546 366.462 32.9987 365.844 33.3242C365.258 33.6497 364.981 34.1055 365.014 34.6914C365.046 35.1797 365.258 35.554 365.648 35.8145C366.039 36.0423 366.527 36.2214 367.113 36.3516C367.732 36.4492 368.415 36.498 369.164 36.498C369.913 36.498 370.629 36.4818 371.312 36.4492C372.029 36.4167 372.696 36.3841 373.314 36.3516C373.933 36.319 374.421 36.319 374.779 36.3516C376.732 36.4492 378.49 36.791 380.053 37.377C381.615 37.9629 382.95 38.7604 384.057 39.7695C385.163 40.7461 386.01 41.918 386.596 43.2852C387.182 44.6523 387.475 46.1497 387.475 47.7773C387.475 50.056 387.084 52.0742 386.303 53.832C385.554 55.5898 384.496 57.1198 383.129 58.4219C381.762 59.6914 380.118 60.7493 378.197 61.5957C376.309 62.4095 374.226 63.0117 371.947 63.4023L372.729 82.6406L367.943 83.1289L367.748 63.8906C367.292 63.9557 366.837 63.9883 366.381 63.9883C365.925 63.9883 365.469 63.9883 365.014 63.9883H364.818L364.916 83.0312L360.131 82.7383ZM454.902 66.0391C453.372 67.9596 451.484 69.6361 449.238 71.0684C446.992 72.5007 444.583 73.6888 442.012 74.6328C439.44 75.5768 436.803 76.2767 434.102 76.7324C431.4 77.2207 428.828 77.4648 426.387 77.4648C421.667 77.4648 417.321 76.6185 413.35 74.9258C409.378 73.2331 405.944 70.9056 403.047 67.9434C400.182 64.9486 397.936 61.4329 396.309 57.3965C394.681 53.36 393.867 49.0143 393.867 44.3594C393.867 40.8112 394.274 37.3444 395.088 33.959C395.902 30.541 397.057 27.3346 398.555 24.3398C400.085 21.3125 401.94 18.5456 404.121 16.0391C406.302 13.5 408.776 11.319 411.543 9.49609C414.31 7.67318 417.337 6.25716 420.625 5.24805C423.913 4.23893 427.428 3.73438 431.172 3.73438C432.572 3.73438 434.069 3.79948 435.664 3.92969C437.259 4.02734 438.838 4.22266 440.4 4.51562C441.995 4.77604 443.542 5.15039 445.039 5.63867C446.536 6.12695 447.904 6.72917 449.141 7.44531L447.773 26.0977C445.951 25.4141 444.062 24.9583 442.109 24.7305C440.189 24.4701 438.301 24.3398 436.445 24.3398C433.841 24.3398 431.4 24.7467 429.121 25.5605C426.875 26.3418 424.906 27.4811 423.213 28.9785C421.553 30.4759 420.234 32.2988 419.258 34.4473C418.281 36.5957 417.793 39.0208 417.793 41.7227C417.793 43.4154 418.021 45.0592 418.477 46.6543C418.932 48.2168 419.616 49.6165 420.527 50.8535C421.471 52.0579 422.627 53.0345 423.994 53.7832C425.394 54.5319 427.005 54.9062 428.828 54.9062C430.065 54.9062 431.335 54.7435 432.637 54.418C433.971 54.0924 435.111 53.5391 436.055 52.7578L436.25 48.9492L424.531 48.7539L425.117 34.1055C429.967 33.9427 434.818 33.8125 439.668 33.7148C444.518 33.5846 449.401 33.4219 454.316 33.2266L454.902 66.0391ZM523.014 41.5273C523.014 44.4896 522.672 47.3542 521.988 50.1211C521.305 52.8555 520.312 55.4271 519.01 57.8359C517.74 60.2448 516.178 62.4583 514.322 64.4766C512.499 66.4622 510.432 68.1712 508.121 69.6035C505.842 71.0358 503.352 72.1589 500.65 72.9727C497.949 73.7539 495.084 74.1445 492.057 74.1445C489.127 74.1445 486.327 73.7702 483.658 73.0215C481.021 72.2728 478.548 71.2311 476.236 69.8965C473.925 68.5293 471.826 66.9017 469.938 65.0137C468.082 63.0931 466.487 60.9772 465.152 58.666C463.85 56.3223 462.825 53.8158 462.076 51.1465C461.36 48.4772 461.002 45.694 461.002 42.7969C461.002 39.9648 461.344 37.1979 462.027 34.4961C462.711 31.7617 463.688 29.1901 464.957 26.7812C466.259 24.3724 467.822 22.1589 469.645 20.1406C471.467 18.1224 473.502 16.3809 475.748 14.916C478.027 13.4512 480.484 12.3118 483.121 11.498C485.758 10.6842 488.541 10.2773 491.471 10.2773C496.191 10.2773 500.488 11.0098 504.361 12.4746C508.268 13.9395 511.588 16.0391 514.322 18.7734C517.089 21.4753 519.221 24.763 520.719 28.6367C522.249 32.4779 523.014 36.7747 523.014 41.5273ZM501.334 42.7969C501.334 41.3971 501.122 40.0462 500.699 38.7441C500.309 37.4095 499.723 36.2376 498.941 35.2285C498.16 34.1868 497.184 33.3568 496.012 32.7383C494.872 32.0872 493.554 31.7617 492.057 31.7617C490.527 31.7617 489.16 32.0384 487.955 32.5918C486.751 33.1452 485.709 33.9102 484.83 34.8867C483.984 35.8307 483.333 36.9538 482.877 38.2559C482.421 39.5254 482.193 40.8763 482.193 42.3086C482.193 43.6758 482.389 45.043 482.779 46.4102C483.17 47.7773 483.756 49.0143 484.537 50.1211C485.318 51.2279 486.279 52.123 487.418 52.8066C488.59 53.4902 489.941 53.832 491.471 53.832C493.001 53.832 494.368 53.5391 495.572 52.9531C496.809 52.3346 497.851 51.5208 498.697 50.5117C499.544 49.4701 500.195 48.2819 500.65 46.9473C501.106 45.6126 501.334 44.2292 501.334 42.7969ZM581.359 6.17578L580.871 26.8789L566.32 27.4648L562.609 73.7539L542.004 74.8281L542.102 28.5391L527.551 29.3203L528.137 6.27344L581.359 6.17578ZM634.871 7.34766L632.137 27.9531C631.193 27.6927 630.249 27.5137 629.305 27.416C628.361 27.3184 627.417 27.2695 626.473 27.2695C624.064 27.2695 621.769 27.5951 619.588 28.2461C617.407 28.8646 615.47 29.8249 613.777 31.127C612.117 32.429 610.783 34.0566 609.773 36.0098C608.797 37.9629 608.309 40.2578 608.309 42.8945C608.309 44.5872 608.569 46.0521 609.09 47.2891C609.643 48.526 610.408 49.5514 611.385 50.3652C612.361 51.179 613.517 51.7812 614.852 52.1719C616.186 52.5625 617.651 52.7578 619.246 52.7578C620.451 52.7578 621.704 52.6276 623.006 52.3672C624.308 52.1068 625.594 51.765 626.863 51.3418C628.133 50.9186 629.37 50.4303 630.574 49.877C631.779 49.3236 632.885 48.7539 633.895 48.168L631.941 71.1172C630.672 71.7682 629.288 72.3542 627.791 72.875C626.326 73.3633 624.812 73.8027 623.25 74.1934C621.688 74.5514 620.125 74.8281 618.562 75.0234C617 75.2188 615.503 75.3164 614.07 75.3164C609.936 75.3164 606.079 74.5514 602.498 73.0215C598.917 71.4915 595.809 69.3919 593.172 66.7227C590.535 64.0534 588.452 60.9121 586.922 57.2988C585.424 53.653 584.676 49.7305 584.676 45.5312C584.676 39.9648 585.473 34.724 587.068 29.8086C588.663 24.8607 591.007 20.5312 594.1 16.8203C597.192 13.1094 601.017 10.1797 605.574 8.03125C610.164 5.88281 615.438 4.80859 621.395 4.80859C623.641 4.80859 625.936 4.98763 628.279 5.3457C630.656 5.70378 632.853 6.37109 634.871 7.34766ZM699.906 76L675.492 77.1719L675.297 54.6133H664.066L663.383 76H641.508L643.363 7.34766L666.605 8.42188L665.141 43.4805H675.98L676.078 5.78516L698.344 6.37109L699.906 76ZM734.912 7.25L729.541 73.7539L708.936 74.8281V8.61719L734.912 7.25Z" fill="white"/>
</svg>
